%TF.GenerationSoftware,KiCad,Pcbnew,(6.0.9-0)*%
%TF.CreationDate,2023-01-16T20:49:34+01:00*%
%TF.ProjectId,ray2,72617932-2e6b-4696-9361-645f70636258,rev?*%
%TF.SameCoordinates,Original*%
%TF.FileFunction,Copper,L2,Bot*%
%TF.FilePolarity,Positive*%
%FSLAX46Y46*%
G04 Gerber Fmt 4.6, Leading zero omitted, Abs format (unit mm)*
G04 Created by KiCad (PCBNEW (6.0.9-0)) date 2023-01-16 20:49:34*
%MOMM*%
%LPD*%
G01*
G04 APERTURE LIST*
G04 Aperture macros list*
%AMRoundRect*
0 Rectangle with rounded corners*
0 $1 Rounding radius*
0 $2 $3 $4 $5 $6 $7 $8 $9 X,Y pos of 4 corners*
0 Add a 4 corners polygon primitive as box body*
4,1,4,$2,$3,$4,$5,$6,$7,$8,$9,$2,$3,0*
0 Add four circle primitives for the rounded corners*
1,1,$1+$1,$2,$3*
1,1,$1+$1,$4,$5*
1,1,$1+$1,$6,$7*
1,1,$1+$1,$8,$9*
0 Add four rect primitives between the rounded corners*
20,1,$1+$1,$2,$3,$4,$5,0*
20,1,$1+$1,$4,$5,$6,$7,0*
20,1,$1+$1,$6,$7,$8,$9,0*
20,1,$1+$1,$8,$9,$2,$3,0*%
G04 Aperture macros list end*
%TA.AperFunction,ComponentPad*%
%ADD10RoundRect,0.250001X-0.799999X-0.799999X0.799999X-0.799999X0.799999X0.799999X-0.799999X0.799999X0*%
%TD*%
%TA.AperFunction,ComponentPad*%
%ADD11R,1.000000X1.000000*%
%TD*%
%TA.AperFunction,ComponentPad*%
%ADD12O,1.000000X1.000000*%
%TD*%
%TA.AperFunction,ComponentPad*%
%ADD13RoundRect,0.250002X-1.699998X-1.699998X1.699998X-1.699998X1.699998X1.699998X-1.699998X1.699998X0*%
%TD*%
%TA.AperFunction,ComponentPad*%
%ADD14R,0.900000X0.500000*%
%TD*%
%TA.AperFunction,ViaPad*%
%ADD15C,0.600000*%
%TD*%
%TA.AperFunction,ViaPad*%
%ADD16C,1.200000*%
%TD*%
%TA.AperFunction,Conductor*%
%ADD17C,0.500000*%
%TD*%
%TA.AperFunction,Conductor*%
%ADD18C,0.250000*%
%TD*%
%TA.AperFunction,Conductor*%
%ADD19C,0.200000*%
%TD*%
%TA.AperFunction,Conductor*%
%ADD20C,1.000000*%
%TD*%
G04 APERTURE END LIST*
D10*
%TO.P,P7,1,P1*%
%TO.N,Net-(P7-Pad1)*%
X132650000Y-101840000D03*
%TD*%
%TO.P,P2,1,P1*%
%TO.N,VIN*%
X142240000Y-118872000D03*
%TD*%
%TO.P,P1,1,P1*%
%TO.N,VIN*%
X144780000Y-118872000D03*
%TD*%
D11*
%TO.P,PG1,1,Pin_1*%
%TO.N,GND*%
X146913600Y-105435400D03*
D12*
%TO.P,PG1,2,Pin_2*%
%TO.N,/USB_D+*%
X146913600Y-106705400D03*
%TO.P,PG1,3,Pin_3*%
%TO.N,/USB_D-*%
X146913600Y-107975400D03*
%TO.P,PG1,4,Pin_4*%
%TO.N,VIN*%
X146913600Y-109245400D03*
%TO.P,PG1,5,Pin_5*%
%TO.N,/BOOT*%
X146913600Y-110515400D03*
%TD*%
D13*
%TO.P,VIN1,1,P1*%
%TO.N,VIN*%
X146812000Y-114554000D03*
%TD*%
%TO.P,GND1,1,P1*%
%TO.N,GND*%
X134112000Y-118024000D03*
%TD*%
D10*
%TO.P,N3,1,P1*%
%TO.N,/L3_GND*%
X138938000Y-113960000D03*
%TD*%
D14*
%TO.P,AE1,2,PCB_Trace*%
%TO.N,GND*%
X146990000Y-93450500D03*
%TD*%
D10*
%TO.P,N2,1,P1*%
%TO.N,/L2_GND*%
X136144000Y-113960000D03*
%TD*%
%TO.P,N1,1,P1*%
%TO.N,/L1_GND*%
X133350000Y-113960000D03*
%TD*%
%TO.P,P3,1,P1*%
%TO.N,VIN*%
X147574000Y-118872000D03*
%TD*%
%TO.P,P4,1,P1*%
%TO.N,Net-(P4-Pad1)*%
X132650000Y-98640000D03*
%TD*%
D15*
%TO.N,GND*%
X148390000Y-96220000D03*
X149030000Y-93990000D03*
X131900000Y-105880000D03*
X131830000Y-103630000D03*
X149000000Y-108640000D03*
X148940000Y-104840000D03*
X142630000Y-104330000D03*
X143150000Y-105720000D03*
X144270000Y-105960000D03*
X143640000Y-106190000D03*
X145020000Y-107370000D03*
X144320000Y-106670000D03*
%TO.N,Net-(P7-Pad1)*%
X134560000Y-97790000D03*
%TO.N,GND*%
X134800000Y-96200000D03*
X132000000Y-95200000D03*
X135600000Y-96200000D03*
X142000000Y-94400000D03*
X147600000Y-98800000D03*
X134800000Y-94400000D03*
X146600000Y-94600000D03*
X148900000Y-101400000D03*
D16*
X133641500Y-108958500D03*
D15*
X141200000Y-94400000D03*
X147900000Y-101700000D03*
X141350000Y-100950000D03*
X142800000Y-95200000D03*
X138465200Y-118024000D03*
X137300000Y-118900000D03*
X139150000Y-101850000D03*
X132000000Y-96200000D03*
X146343600Y-98512400D03*
X132800000Y-95200000D03*
D16*
X133600000Y-104800000D03*
D15*
X135300000Y-100950000D03*
X139600000Y-94400000D03*
X135600000Y-94400000D03*
X132000000Y-94400000D03*
X144350000Y-101080000D03*
X140400000Y-94400000D03*
X138300000Y-116500000D03*
X133800000Y-95200000D03*
X148900000Y-100300000D03*
X137200000Y-94400000D03*
X143600000Y-94400000D03*
X133800000Y-94400000D03*
X137200000Y-96200000D03*
X140400000Y-95200000D03*
X133800000Y-96200000D03*
X141200000Y-95200000D03*
D16*
X137400000Y-108800000D03*
D15*
X132800000Y-94400000D03*
X135600000Y-95200000D03*
X136400000Y-94400000D03*
X132800000Y-96200000D03*
X139100000Y-118900000D03*
X138000000Y-94400000D03*
X139950000Y-99800000D03*
X140044600Y-116444600D03*
X141884400Y-114604800D03*
D16*
X143269846Y-104916918D03*
D15*
X142800000Y-94400000D03*
X134800000Y-95200000D03*
X143600000Y-95200000D03*
X138950000Y-99800000D03*
X142900000Y-112900000D03*
X140450000Y-108150000D03*
X136400000Y-96200000D03*
X137200000Y-95200000D03*
X148300000Y-99500000D03*
X138747712Y-95162003D03*
X138000000Y-95200000D03*
X142000000Y-95200000D03*
X136400000Y-95200000D03*
X138800000Y-94400000D03*
%TO.N,+3V3*%
X141350000Y-96650000D03*
X136612000Y-100088000D03*
X143956400Y-98156400D03*
D16*
X141000000Y-104700000D03*
D15*
%TO.N,/PWM_DIMMER1*%
X136600000Y-101200000D03*
X135149500Y-102699610D03*
%TO.N,/BOOT*%
X136900000Y-103900000D03*
%TO.N,/PWM_DIMMER2*%
X135953668Y-106351491D03*
X137021874Y-105654960D03*
%TO.N,/PWM_DIMMER3*%
X139350000Y-104550000D03*
X137863222Y-104633129D03*
%TO.N,VIN*%
X139487500Y-107450000D03*
X137150000Y-106700000D03*
%TD*%
D17*
%TO.N,+3V3*%
X141300000Y-99500000D02*
X141300000Y-96700000D01*
X141300000Y-96700000D02*
X141350000Y-96650000D01*
%TO.N,GND*%
X146913600Y-105435400D02*
X143788328Y-105435400D01*
X143788328Y-105435400D02*
X143269846Y-104916918D01*
D18*
%TO.N,Net-(P7-Pad1)*%
X134560000Y-97790000D02*
X134560000Y-99980000D01*
X134560000Y-99980000D02*
X132700000Y-101840000D01*
D19*
%TO.N,/PWM_DIMMER1*%
X135149500Y-102650500D02*
X135149500Y-102699610D01*
X136600000Y-101200000D02*
X135149500Y-102650500D01*
D17*
%TO.N,GND*%
X133600000Y-104800000D02*
X134400000Y-104000000D01*
X134400000Y-104000000D02*
X134400000Y-101850000D01*
X134400000Y-101850000D02*
X135300000Y-100950000D01*
D19*
X140400000Y-95200000D02*
X140400000Y-94400000D01*
D17*
X146343600Y-98512400D02*
X147312400Y-98512400D01*
D19*
X137200000Y-96200000D02*
X137200000Y-97500000D01*
X138747712Y-95162003D02*
X138037997Y-95162003D01*
X143600000Y-95200000D02*
X143600000Y-94400000D01*
D17*
X133641500Y-108958500D02*
X131850000Y-110750000D01*
X131850000Y-110750000D02*
X131850000Y-115762000D01*
D19*
X135600000Y-96200000D02*
X136400000Y-96200000D01*
X148900000Y-101400000D02*
X148200000Y-101400000D01*
D17*
X137450000Y-101850000D02*
X139150000Y-101850000D01*
X131850000Y-115762000D02*
X134112000Y-118024000D01*
X143269846Y-102869846D02*
X142925000Y-102525000D01*
D19*
X132000000Y-94400000D02*
X132000000Y-95200000D01*
D17*
X134500000Y-104800000D02*
X137450000Y-101850000D01*
D19*
X137200000Y-97500000D02*
X138750000Y-99050000D01*
X142800000Y-95200000D02*
X142800000Y-94400000D01*
X138750000Y-99050000D02*
X138750000Y-99600000D01*
X148200000Y-101400000D02*
X147900000Y-101700000D01*
X147600000Y-95600000D02*
X146600000Y-94600000D01*
X142000000Y-95200000D02*
X141200000Y-95200000D01*
D17*
X134650000Y-111350000D02*
X136250000Y-111350000D01*
D19*
X136400000Y-94400000D02*
X135600000Y-94400000D01*
D17*
X142925000Y-102525000D02*
X141350000Y-100950000D01*
X133600000Y-108917000D02*
X133641500Y-108958500D01*
D19*
X142000000Y-94400000D02*
X141200000Y-94400000D01*
D17*
X133641500Y-110341500D02*
X134650000Y-111350000D01*
D19*
X137200000Y-95200000D02*
X136400000Y-95200000D01*
X148300000Y-99500000D02*
X148300000Y-99700000D01*
D17*
X133600000Y-104800000D02*
X133600000Y-108917000D01*
D19*
X138000000Y-94400000D02*
X137200000Y-94400000D01*
X139600000Y-94400000D02*
X138800000Y-94400000D01*
D17*
X143269846Y-104916918D02*
X143269846Y-102869846D01*
D19*
X133800000Y-95200000D02*
X132800000Y-95200000D01*
D17*
X142925000Y-102525000D02*
X142925000Y-102505000D01*
X144350000Y-100506000D02*
X144350000Y-101080000D01*
D19*
X134800000Y-94400000D02*
X133800000Y-94400000D01*
D17*
X137400000Y-110200000D02*
X137400000Y-108800000D01*
X146343600Y-98512400D02*
X144350000Y-100506000D01*
X133641500Y-108958500D02*
X133641500Y-110341500D01*
D19*
X138750000Y-99600000D02*
X138950000Y-99800000D01*
X147600000Y-98800000D02*
X147600000Y-95600000D01*
X132800000Y-94400000D02*
X132800000Y-96200000D01*
D17*
X142925000Y-102505000D02*
X144350000Y-101080000D01*
X133600000Y-104800000D02*
X134500000Y-104800000D01*
X136250000Y-111350000D02*
X137400000Y-110200000D01*
D19*
X138037997Y-95162003D02*
X138000000Y-95200000D01*
X138950000Y-99800000D02*
X139950000Y-99800000D01*
X143800000Y-94600000D02*
X143600000Y-94400000D01*
X148300000Y-99700000D02*
X148900000Y-100300000D01*
X146600000Y-94600000D02*
X143800000Y-94600000D01*
D17*
X139800000Y-108800000D02*
X140450000Y-108150000D01*
X147312400Y-98512400D02*
X147600000Y-98800000D01*
D19*
X135600000Y-95200000D02*
X134800000Y-95200000D01*
X133800000Y-96200000D02*
X134800000Y-96200000D01*
D17*
X137400000Y-108800000D02*
X139800000Y-108800000D01*
%TO.N,+3V3*%
X137274000Y-100750000D02*
X140400000Y-100750000D01*
X140400000Y-102250000D02*
X141000000Y-102850000D01*
X140400000Y-100750000D02*
X140400000Y-102250000D01*
X141000000Y-99800000D02*
X141000000Y-100150000D01*
X136612000Y-100088000D02*
X137274000Y-100750000D01*
X141000000Y-99800000D02*
X141300000Y-99500000D01*
D20*
X141000000Y-104700000D02*
X141000000Y-102850000D01*
D17*
X143956400Y-98193600D02*
X143956400Y-98156400D01*
X141000000Y-100150000D02*
X140400000Y-100750000D01*
X141300000Y-99500000D02*
X142650000Y-99500000D01*
X142650000Y-99500000D02*
X143956400Y-98193600D01*
D19*
%TO.N,/BOOT*%
X136900000Y-104650000D02*
X138700000Y-106450000D01*
X138700000Y-106450000D02*
X142848200Y-106450000D01*
X142848200Y-106450000D02*
X146913600Y-110515400D01*
X136900000Y-103900000D02*
X136900000Y-104650000D01*
%TO.N,/PWM_DIMMER2*%
X137021874Y-105654960D02*
X136545040Y-105654960D01*
X136545040Y-105654960D02*
X135953668Y-106246332D01*
X135953668Y-106246332D02*
X135953668Y-106351491D01*
%TO.N,/PWM_DIMMER3*%
X137946351Y-104550000D02*
X139350000Y-104550000D01*
X137863222Y-104633129D02*
X137946351Y-104550000D01*
%TO.N,VIN*%
X137150000Y-106700000D02*
X137900000Y-107450000D01*
X137900000Y-107450000D02*
X139487500Y-107450000D01*
%TD*%
%TA.AperFunction,Conductor*%
%TO.N,GND*%
G36*
X149247444Y-93708524D02*
G01*
X149294026Y-93762102D01*
X149305500Y-93814635D01*
X149305500Y-112729265D01*
X149285498Y-112797386D01*
X149231842Y-112843879D01*
X149161568Y-112853983D01*
X149096988Y-112824489D01*
X149058604Y-112764763D01*
X149054413Y-112744402D01*
X149052609Y-112729493D01*
X149052609Y-112729492D01*
X149051636Y-112721454D01*
X148996112Y-112581218D01*
X148990922Y-112574380D01*
X148990920Y-112574377D01*
X148910113Y-112467917D01*
X148904922Y-112461078D01*
X148895372Y-112453829D01*
X148791623Y-112375080D01*
X148791620Y-112375078D01*
X148784782Y-112369888D01*
X148644546Y-112314364D01*
X148636508Y-112313391D01*
X148636507Y-112313391D01*
X148604936Y-112309571D01*
X148554770Y-112303500D01*
X145069230Y-112303500D01*
X145019064Y-112309571D01*
X144987493Y-112313391D01*
X144987492Y-112313391D01*
X144979454Y-112314364D01*
X144839218Y-112369888D01*
X144832380Y-112375078D01*
X144832377Y-112375080D01*
X144728628Y-112453829D01*
X144719078Y-112461078D01*
X144713887Y-112467917D01*
X144633080Y-112574377D01*
X144633078Y-112574380D01*
X144627888Y-112581218D01*
X144572364Y-112721454D01*
X144561500Y-112811230D01*
X144561500Y-116296770D01*
X144572364Y-116386546D01*
X144627888Y-116526782D01*
X144633078Y-116533620D01*
X144633080Y-116533623D01*
X144711829Y-116637372D01*
X144719078Y-116646922D01*
X144725917Y-116652113D01*
X144832377Y-116732920D01*
X144832380Y-116732922D01*
X144839218Y-116738112D01*
X144979454Y-116793636D01*
X144987492Y-116794609D01*
X144987493Y-116794609D01*
X145019064Y-116798429D01*
X145069230Y-116804500D01*
X148554770Y-116804500D01*
X148604936Y-116798429D01*
X148636507Y-116794609D01*
X148636508Y-116794609D01*
X148644546Y-116793636D01*
X148784782Y-116738112D01*
X148791620Y-116732922D01*
X148791623Y-116732920D01*
X148898083Y-116652113D01*
X148904922Y-116646922D01*
X148912171Y-116637372D01*
X148990920Y-116533623D01*
X148990922Y-116533620D01*
X148996112Y-116526782D01*
X149051636Y-116386546D01*
X149054413Y-116363598D01*
X149082454Y-116298373D01*
X149141306Y-116258663D01*
X149212285Y-116257075D01*
X149272855Y-116294113D01*
X149303785Y-116358018D01*
X149305500Y-116378735D01*
X149305500Y-120137500D01*
X149285498Y-120205621D01*
X149231842Y-120252114D01*
X149179500Y-120263500D01*
X148870018Y-120263500D01*
X148801897Y-120243498D01*
X148755404Y-120189842D01*
X148745300Y-120119568D01*
X148769655Y-120061321D01*
X148852920Y-119951623D01*
X148858112Y-119944783D01*
X148913636Y-119804547D01*
X148924500Y-119714771D01*
X148924499Y-118029230D01*
X148924044Y-118025467D01*
X148914608Y-117947483D01*
X148914607Y-117947480D01*
X148913636Y-117939453D01*
X148858112Y-117799217D01*
X148766922Y-117679078D01*
X148646783Y-117587888D01*
X148506547Y-117532364D01*
X148498509Y-117531391D01*
X148498508Y-117531391D01*
X148466937Y-117527571D01*
X148416771Y-117521500D01*
X147574556Y-117521500D01*
X146731230Y-117521501D01*
X146727472Y-117521956D01*
X146727467Y-117521956D01*
X146649483Y-117531392D01*
X146649480Y-117531393D01*
X146641453Y-117532364D01*
X146501217Y-117587888D01*
X146381078Y-117679078D01*
X146375887Y-117685917D01*
X146316517Y-117764135D01*
X146289888Y-117799217D01*
X146286750Y-117807142D01*
X146235906Y-117856649D01*
X146166336Y-117870814D01*
X146100153Y-117845118D01*
X146067253Y-117807150D01*
X146064112Y-117799217D01*
X146037484Y-117764135D01*
X145978113Y-117685917D01*
X145972922Y-117679078D01*
X145852783Y-117587888D01*
X145712547Y-117532364D01*
X145704509Y-117531391D01*
X145704508Y-117531391D01*
X145672937Y-117527571D01*
X145622771Y-117521500D01*
X144780556Y-117521500D01*
X143937230Y-117521501D01*
X143933472Y-117521956D01*
X143933467Y-117521956D01*
X143855483Y-117531392D01*
X143855480Y-117531393D01*
X143847453Y-117532364D01*
X143707217Y-117587888D01*
X143587078Y-117679078D01*
X143585035Y-117676387D01*
X143536783Y-117702735D01*
X143465968Y-117697670D01*
X143434272Y-117677300D01*
X143432922Y-117679078D01*
X143319623Y-117593080D01*
X143312783Y-117587888D01*
X143172547Y-117532364D01*
X143164509Y-117531391D01*
X143164508Y-117531391D01*
X143132937Y-117527571D01*
X143082771Y-117521500D01*
X142240556Y-117521500D01*
X141397230Y-117521501D01*
X141393472Y-117521956D01*
X141393467Y-117521956D01*
X141315483Y-117531392D01*
X141315480Y-117531393D01*
X141307453Y-117532364D01*
X141167217Y-117587888D01*
X141047078Y-117679078D01*
X140955888Y-117799217D01*
X140900364Y-117939453D01*
X140889500Y-118029229D01*
X140889501Y-119714770D01*
X140889956Y-119718528D01*
X140889956Y-119718533D01*
X140897099Y-119777560D01*
X140900364Y-119804547D01*
X140955888Y-119944783D01*
X140961080Y-119951623D01*
X141044345Y-120061321D01*
X141069598Y-120127674D01*
X141054969Y-120197147D01*
X141005103Y-120247683D01*
X140943982Y-120263500D01*
X136595594Y-120263500D01*
X136527473Y-120243498D01*
X136480980Y-120189842D01*
X136470876Y-120119568D01*
X136488334Y-120071384D01*
X136499816Y-120052756D01*
X136505963Y-120039575D01*
X136557138Y-119885289D01*
X136560005Y-119871913D01*
X136569672Y-119777560D01*
X136570000Y-119771144D01*
X136570000Y-118296115D01*
X136565525Y-118280876D01*
X136564135Y-118279671D01*
X136556452Y-118278000D01*
X133984000Y-118278000D01*
X133915879Y-118257998D01*
X133869386Y-118204342D01*
X133858000Y-118152000D01*
X133858000Y-117751885D01*
X134366000Y-117751885D01*
X134370475Y-117767124D01*
X134371865Y-117768329D01*
X134379548Y-117770000D01*
X136551884Y-117770000D01*
X136567123Y-117765525D01*
X136568328Y-117764135D01*
X136569999Y-117756452D01*
X136569999Y-116276907D01*
X136569662Y-116270388D01*
X136559743Y-116174795D01*
X136556851Y-116161401D01*
X136505412Y-116007217D01*
X136499239Y-115994039D01*
X136413937Y-115856194D01*
X136404901Y-115844793D01*
X136290170Y-115730261D01*
X136278759Y-115721249D01*
X136140756Y-115636184D01*
X136127575Y-115630037D01*
X135973289Y-115578862D01*
X135959913Y-115575995D01*
X135865560Y-115566328D01*
X135859143Y-115566000D01*
X134384115Y-115566000D01*
X134368876Y-115570475D01*
X134367671Y-115571865D01*
X134366000Y-115579548D01*
X134366000Y-117751885D01*
X133858000Y-117751885D01*
X133858000Y-115584116D01*
X133853525Y-115568877D01*
X133852135Y-115567672D01*
X133844452Y-115566001D01*
X132364907Y-115566001D01*
X132358388Y-115566338D01*
X132262795Y-115576257D01*
X132249401Y-115579149D01*
X132095217Y-115630588D01*
X132082039Y-115636761D01*
X131944194Y-115722063D01*
X131932793Y-115731099D01*
X131818261Y-115845830D01*
X131809249Y-115857241D01*
X131753260Y-115948073D01*
X131700488Y-115995566D01*
X131630417Y-116006990D01*
X131565293Y-115978716D01*
X131525793Y-115919722D01*
X131520000Y-115881957D01*
X131520000Y-113117229D01*
X131999500Y-113117229D01*
X131999501Y-114802770D01*
X131999956Y-114806528D01*
X131999956Y-114806533D01*
X131999957Y-114806537D01*
X132010364Y-114892547D01*
X132065888Y-115032783D01*
X132157078Y-115152922D01*
X132277217Y-115244112D01*
X132417453Y-115299636D01*
X132425491Y-115300609D01*
X132425492Y-115300609D01*
X132457063Y-115304429D01*
X132507229Y-115310500D01*
X133349444Y-115310500D01*
X134192770Y-115310499D01*
X134196528Y-115310044D01*
X134196533Y-115310044D01*
X134274517Y-115300608D01*
X134274520Y-115300607D01*
X134282547Y-115299636D01*
X134422783Y-115244112D01*
X134542922Y-115152922D01*
X134634112Y-115032783D01*
X134637250Y-115024858D01*
X134688094Y-114975351D01*
X134757664Y-114961186D01*
X134823847Y-114986882D01*
X134856747Y-115024850D01*
X134859888Y-115032783D01*
X134951078Y-115152922D01*
X135071217Y-115244112D01*
X135211453Y-115299636D01*
X135219491Y-115300609D01*
X135219492Y-115300609D01*
X135251063Y-115304429D01*
X135301229Y-115310500D01*
X136143444Y-115310500D01*
X136986770Y-115310499D01*
X136990528Y-115310044D01*
X136990533Y-115310044D01*
X137068517Y-115300608D01*
X137068520Y-115300607D01*
X137076547Y-115299636D01*
X137216783Y-115244112D01*
X137336922Y-115152922D01*
X137428112Y-115032783D01*
X137431250Y-115024858D01*
X137482094Y-114975351D01*
X137551664Y-114961186D01*
X137617847Y-114986882D01*
X137650747Y-115024850D01*
X137653888Y-115032783D01*
X137745078Y-115152922D01*
X137865217Y-115244112D01*
X138005453Y-115299636D01*
X138013491Y-115300609D01*
X138013492Y-115300609D01*
X138045063Y-115304429D01*
X138095229Y-115310500D01*
X138937444Y-115310500D01*
X139780770Y-115310499D01*
X139784528Y-115310044D01*
X139784533Y-115310044D01*
X139862517Y-115300608D01*
X139862520Y-115300607D01*
X139870547Y-115299636D01*
X140010783Y-115244112D01*
X140130922Y-115152922D01*
X140222112Y-115032783D01*
X140277636Y-114892547D01*
X140288500Y-114802771D01*
X140288499Y-113117230D01*
X140288044Y-113113467D01*
X140278608Y-113035483D01*
X140278607Y-113035480D01*
X140277636Y-113027453D01*
X140222112Y-112887217D01*
X140130922Y-112767078D01*
X140010783Y-112675888D01*
X139870547Y-112620364D01*
X139862509Y-112619391D01*
X139862508Y-112619391D01*
X139830937Y-112615571D01*
X139780771Y-112609500D01*
X138938556Y-112609500D01*
X138095230Y-112609501D01*
X138091472Y-112609956D01*
X138091467Y-112609956D01*
X138013483Y-112619392D01*
X138013480Y-112619393D01*
X138005453Y-112620364D01*
X137865217Y-112675888D01*
X137745078Y-112767078D01*
X137653888Y-112887217D01*
X137650750Y-112895142D01*
X137599906Y-112944649D01*
X137530336Y-112958814D01*
X137464153Y-112933118D01*
X137431253Y-112895150D01*
X137428112Y-112887217D01*
X137336922Y-112767078D01*
X137216783Y-112675888D01*
X137076547Y-112620364D01*
X137068509Y-112619391D01*
X137068508Y-112619391D01*
X137036937Y-112615571D01*
X136986771Y-112609500D01*
X136144556Y-112609500D01*
X135301230Y-112609501D01*
X135297472Y-112609956D01*
X135297467Y-112609956D01*
X135219483Y-112619392D01*
X135219480Y-112619393D01*
X135211453Y-112620364D01*
X135071217Y-112675888D01*
X134951078Y-112767078D01*
X134859888Y-112887217D01*
X134856750Y-112895142D01*
X134805906Y-112944649D01*
X134736336Y-112958814D01*
X134670153Y-112933118D01*
X134637253Y-112895150D01*
X134634112Y-112887217D01*
X134542922Y-112767078D01*
X134422783Y-112675888D01*
X134282547Y-112620364D01*
X134274509Y-112619391D01*
X134274508Y-112619391D01*
X134242937Y-112615571D01*
X134192771Y-112609500D01*
X133350556Y-112609500D01*
X132507230Y-112609501D01*
X132503472Y-112609956D01*
X132503467Y-112609956D01*
X132425483Y-112619392D01*
X132425480Y-112619393D01*
X132417453Y-112620364D01*
X132277217Y-112675888D01*
X132157078Y-112767078D01*
X132065888Y-112887217D01*
X132010364Y-113027453D01*
X131999500Y-113117229D01*
X131520000Y-113117229D01*
X131520000Y-103286862D01*
X131540002Y-103218741D01*
X131593658Y-103172248D01*
X131663932Y-103162144D01*
X131692385Y-103169711D01*
X131717453Y-103179636D01*
X131725491Y-103180609D01*
X131725492Y-103180609D01*
X131757063Y-103184429D01*
X131807229Y-103190500D01*
X132649444Y-103190500D01*
X133492770Y-103190499D01*
X133496528Y-103190044D01*
X133496533Y-103190044D01*
X133574517Y-103180608D01*
X133574520Y-103180607D01*
X133582547Y-103179636D01*
X133722783Y-103124112D01*
X133842922Y-103032922D01*
X133934112Y-102912783D01*
X133989636Y-102772547D01*
X133998462Y-102699610D01*
X134543818Y-102699610D01*
X134564456Y-102856372D01*
X134624964Y-103002451D01*
X134693441Y-103091692D01*
X134714334Y-103118920D01*
X134721218Y-103127892D01*
X134846659Y-103224146D01*
X134992738Y-103284654D01*
X135000926Y-103285732D01*
X135066144Y-103294318D01*
X135149500Y-103305292D01*
X135157688Y-103304214D01*
X135298074Y-103285732D01*
X135306262Y-103284654D01*
X135452341Y-103224146D01*
X135577782Y-103127892D01*
X135584667Y-103118920D01*
X135605559Y-103091692D01*
X135674036Y-103002451D01*
X135734544Y-102856372D01*
X135755182Y-102699610D01*
X135753008Y-102683099D01*
X135763946Y-102612952D01*
X135788835Y-102577558D01*
X136524884Y-101841509D01*
X136587196Y-101807483D01*
X136600055Y-101806101D01*
X136600000Y-101805682D01*
X136756762Y-101785044D01*
X136902841Y-101724536D01*
X137028282Y-101628282D01*
X137124536Y-101502841D01*
X137174551Y-101382095D01*
X137219100Y-101326814D01*
X137285720Y-101304798D01*
X137291454Y-101305401D01*
X137299919Y-101303969D01*
X137299927Y-101303969D01*
X137310000Y-101302265D01*
X137331013Y-101300500D01*
X139723500Y-101300500D01*
X139791621Y-101320502D01*
X139838114Y-101374158D01*
X139849500Y-101426500D01*
X139849500Y-102235007D01*
X139849389Y-102240283D01*
X139846790Y-102302294D01*
X139848752Y-102310659D01*
X139856727Y-102344662D01*
X139858890Y-102356333D01*
X139864794Y-102399432D01*
X139868206Y-102407316D01*
X139868206Y-102407317D01*
X139870765Y-102413230D01*
X139877799Y-102434499D01*
X139881232Y-102449136D01*
X139885369Y-102456661D01*
X139885370Y-102456664D01*
X139902195Y-102487268D01*
X139907411Y-102497913D01*
X139924695Y-102537855D01*
X139934158Y-102549541D01*
X139946645Y-102568125D01*
X139953893Y-102581308D01*
X139960897Y-102589422D01*
X139985433Y-102613958D01*
X139994258Y-102623759D01*
X140014206Y-102648392D01*
X140019614Y-102655070D01*
X140026612Y-102660043D01*
X140026617Y-102660048D01*
X140034948Y-102665968D01*
X140051054Y-102679579D01*
X140162595Y-102791120D01*
X140196621Y-102853432D01*
X140199500Y-102880215D01*
X140199500Y-104251746D01*
X140182618Y-104314747D01*
X140172821Y-104331716D01*
X140170780Y-104337998D01*
X140162634Y-104363069D01*
X140122560Y-104421674D01*
X140057163Y-104449311D01*
X139987207Y-104437204D01*
X139934901Y-104389198D01*
X139926392Y-104372350D01*
X139877696Y-104254789D01*
X139874536Y-104247159D01*
X139778282Y-104121718D01*
X139652841Y-104025464D01*
X139506762Y-103964956D01*
X139350000Y-103944318D01*
X139193238Y-103964956D01*
X139047159Y-104025464D01*
X138921718Y-104121718D01*
X138919928Y-104119386D01*
X138870052Y-104146621D01*
X138843269Y-104149500D01*
X138262145Y-104149500D01*
X138194024Y-104129498D01*
X138185442Y-104123463D01*
X138172616Y-104113621D01*
X138172614Y-104113620D01*
X138166063Y-104108593D01*
X138019984Y-104048085D01*
X137863222Y-104027447D01*
X137706460Y-104048085D01*
X137675106Y-104061072D01*
X137604518Y-104068661D01*
X137541031Y-104036882D01*
X137504803Y-103975824D01*
X137501967Y-103928216D01*
X137504604Y-103908187D01*
X137505682Y-103900000D01*
X137485044Y-103743238D01*
X137424536Y-103597159D01*
X137328282Y-103471718D01*
X137202841Y-103375464D01*
X137056762Y-103314956D01*
X136900000Y-103294318D01*
X136743238Y-103314956D01*
X136597159Y-103375464D01*
X136471718Y-103471718D01*
X136375464Y-103597159D01*
X136314956Y-103743238D01*
X136294318Y-103900000D01*
X136314956Y-104056762D01*
X136375464Y-104202841D01*
X136380491Y-104209392D01*
X136471718Y-104328282D01*
X136469386Y-104330072D01*
X136496621Y-104379948D01*
X136499500Y-104406731D01*
X136499500Y-104713433D01*
X136502564Y-104722864D01*
X136502565Y-104722868D01*
X136506297Y-104734353D01*
X136510913Y-104753578D01*
X136514354Y-104775304D01*
X136518855Y-104784137D01*
X136518856Y-104784141D01*
X136524341Y-104794906D01*
X136531905Y-104813166D01*
X136538704Y-104834090D01*
X136551639Y-104851893D01*
X136561965Y-104868745D01*
X136571950Y-104888342D01*
X136594513Y-104910905D01*
X136594516Y-104910909D01*
X136671191Y-104987584D01*
X136705217Y-105049896D01*
X136700152Y-105120711D01*
X136658800Y-105176641D01*
X136593592Y-105226677D01*
X136591803Y-105224345D01*
X136541926Y-105251581D01*
X136523942Y-105253514D01*
X136523985Y-105254025D01*
X136523973Y-105254026D01*
X136516158Y-105254351D01*
X136515143Y-105254460D01*
X136513521Y-105254460D01*
X136513517Y-105254461D01*
X136481607Y-105254461D01*
X136472180Y-105257524D01*
X136472173Y-105257525D01*
X136460687Y-105261257D01*
X136441467Y-105265871D01*
X136429533Y-105267761D01*
X136429525Y-105267763D01*
X136419736Y-105269314D01*
X136410905Y-105273814D01*
X136410901Y-105273815D01*
X136400133Y-105279302D01*
X136381872Y-105286866D01*
X136360950Y-105293664D01*
X136345958Y-105304557D01*
X136343156Y-105306592D01*
X136326299Y-105316922D01*
X136315533Y-105322408D01*
X136315532Y-105322409D01*
X136306698Y-105326910D01*
X135908057Y-105725551D01*
X135845745Y-105759577D01*
X135835409Y-105761378D01*
X135805094Y-105765369D01*
X135805093Y-105765369D01*
X135796906Y-105766447D01*
X135650827Y-105826955D01*
X135525386Y-105923209D01*
X135429132Y-106048650D01*
X135368624Y-106194729D01*
X135367546Y-106202917D01*
X135366278Y-106212549D01*
X135347986Y-106351491D01*
X135368624Y-106508253D01*
X135371784Y-106515882D01*
X135374717Y-106522963D01*
X135429132Y-106654332D01*
X135525386Y-106779773D01*
X135531932Y-106784796D01*
X135558869Y-106805465D01*
X135650827Y-106876027D01*
X135796906Y-106936535D01*
X135953668Y-106957173D01*
X135961856Y-106956095D01*
X136102242Y-106937613D01*
X136110430Y-106936535D01*
X136256509Y-106876027D01*
X136367956Y-106790511D01*
X136434177Y-106764911D01*
X136503725Y-106779176D01*
X136554521Y-106828777D01*
X136564496Y-106853271D01*
X136564956Y-106856762D01*
X136625464Y-107002841D01*
X136721718Y-107128282D01*
X136847159Y-107224536D01*
X136993238Y-107285044D01*
X137001426Y-107286122D01*
X137150000Y-107305682D01*
X137149616Y-107308596D01*
X137204143Y-107324606D01*
X137225117Y-107341509D01*
X137661658Y-107778050D01*
X137670492Y-107782551D01*
X137670493Y-107782552D01*
X137681259Y-107788038D01*
X137698116Y-107798368D01*
X137707885Y-107805466D01*
X137707888Y-107805467D01*
X137715910Y-107811296D01*
X137736834Y-107818095D01*
X137755094Y-107825659D01*
X137765859Y-107831144D01*
X137765863Y-107831145D01*
X137774696Y-107835646D01*
X137784487Y-107837197D01*
X137784488Y-107837197D01*
X137796422Y-107839087D01*
X137815647Y-107843703D01*
X137827132Y-107847435D01*
X137827136Y-107847436D01*
X137836567Y-107850500D01*
X138980769Y-107850500D01*
X139048890Y-107870502D01*
X139058960Y-107878618D01*
X139059218Y-107878282D01*
X139184659Y-107974536D01*
X139330738Y-108035044D01*
X139487500Y-108055682D01*
X139495688Y-108054604D01*
X139636074Y-108036122D01*
X139644262Y-108035044D01*
X139790341Y-107974536D01*
X139915782Y-107878282D01*
X140012036Y-107752841D01*
X140072544Y-107606762D01*
X140093182Y-107450000D01*
X140072544Y-107293238D01*
X140012036Y-107147159D01*
X139939942Y-107053204D01*
X139914342Y-106986983D01*
X139928607Y-106917435D01*
X139978208Y-106866639D01*
X140039905Y-106850500D01*
X142630117Y-106850500D01*
X142698238Y-106870502D01*
X142719212Y-106887405D01*
X146090021Y-110258214D01*
X146124047Y-110320526D01*
X146125932Y-110363101D01*
X146108997Y-110497158D01*
X146108997Y-110497164D01*
X146108114Y-110504153D01*
X146108801Y-110511160D01*
X146108801Y-110511163D01*
X146109605Y-110519363D01*
X146125639Y-110682886D01*
X146127862Y-110689568D01*
X146127862Y-110689569D01*
X146136567Y-110715736D01*
X146182326Y-110853296D01*
X146275359Y-111006912D01*
X146400114Y-111136099D01*
X146550389Y-111234436D01*
X146718716Y-111297036D01*
X146725697Y-111297967D01*
X146725699Y-111297968D01*
X146889749Y-111319857D01*
X146889753Y-111319857D01*
X146896730Y-111320788D01*
X146903742Y-111320150D01*
X146903746Y-111320150D01*
X147068560Y-111305151D01*
X147068561Y-111305151D01*
X147075581Y-111304512D01*
X147246382Y-111249015D01*
X147277314Y-111230576D01*
X147394592Y-111160665D01*
X147394594Y-111160664D01*
X147400644Y-111157057D01*
X147530699Y-111033207D01*
X147548170Y-111006912D01*
X147626182Y-110889493D01*
X147630083Y-110883622D01*
X147644768Y-110844964D01*
X147691357Y-110722319D01*
X147691358Y-110722314D01*
X147693857Y-110715736D01*
X147718851Y-110537893D01*
X147719165Y-110515400D01*
X147699146Y-110336928D01*
X147640085Y-110167327D01*
X147544916Y-110015025D01*
X147500144Y-109969940D01*
X147466337Y-109907510D01*
X147471648Y-109836713D01*
X147502658Y-109789910D01*
X147530699Y-109763207D01*
X147630083Y-109613622D01*
X147644768Y-109574964D01*
X147691357Y-109452319D01*
X147691358Y-109452314D01*
X147693857Y-109445736D01*
X147718851Y-109267893D01*
X147719165Y-109245400D01*
X147699146Y-109066928D01*
X147640085Y-108897327D01*
X147544916Y-108745025D01*
X147500144Y-108699940D01*
X147466337Y-108637510D01*
X147471648Y-108566713D01*
X147502658Y-108519910D01*
X147530699Y-108493207D01*
X147548170Y-108466912D01*
X147626182Y-108349493D01*
X147630083Y-108343622D01*
X147644768Y-108304964D01*
X147691357Y-108182319D01*
X147691358Y-108182314D01*
X147693857Y-108175736D01*
X147699459Y-108135876D01*
X147718300Y-108001816D01*
X147718300Y-108001811D01*
X147718851Y-107997893D01*
X147719165Y-107975400D01*
X147699146Y-107796928D01*
X147693027Y-107779355D01*
X147642403Y-107633984D01*
X147640085Y-107627327D01*
X147544916Y-107475025D01*
X147500144Y-107429940D01*
X147466337Y-107367510D01*
X147471648Y-107296713D01*
X147502658Y-107249910D01*
X147530699Y-107223207D01*
X147548170Y-107196912D01*
X147626182Y-107079493D01*
X147630083Y-107073622D01*
X147656970Y-107002841D01*
X147691357Y-106912319D01*
X147691358Y-106912314D01*
X147693857Y-106905736D01*
X147703006Y-106840639D01*
X147718300Y-106731816D01*
X147718300Y-106731811D01*
X147718851Y-106727893D01*
X147719165Y-106705400D01*
X147699146Y-106526928D01*
X147682319Y-106478607D01*
X147678805Y-106407699D01*
X147714186Y-106346147D01*
X147725746Y-106336344D01*
X147769325Y-106303684D01*
X147781885Y-106291124D01*
X147858386Y-106189049D01*
X147866924Y-106173454D01*
X147912078Y-106053006D01*
X147915705Y-106037751D01*
X147921231Y-105986886D01*
X147921600Y-105980072D01*
X147921600Y-105707515D01*
X147917125Y-105692276D01*
X147915735Y-105691071D01*
X147908052Y-105689400D01*
X145923716Y-105689400D01*
X145908477Y-105693875D01*
X145907272Y-105695265D01*
X145905601Y-105702948D01*
X145905601Y-105980069D01*
X145905971Y-105986890D01*
X145911495Y-106037752D01*
X145915121Y-106053004D01*
X145960276Y-106173454D01*
X145968814Y-106189049D01*
X146045315Y-106291124D01*
X146057877Y-106303686D01*
X146100928Y-106335951D01*
X146143443Y-106392810D01*
X146148469Y-106463629D01*
X146143766Y-106479865D01*
X146130622Y-106515978D01*
X146108114Y-106694153D01*
X146108801Y-106701160D01*
X146108801Y-106701163D01*
X146115052Y-106764911D01*
X146125639Y-106872886D01*
X146127862Y-106879568D01*
X146127862Y-106879569D01*
X146168869Y-107002841D01*
X146182326Y-107043296D01*
X146185973Y-107049318D01*
X146245228Y-107147159D01*
X146275359Y-107196912D01*
X146328917Y-107252372D01*
X146361849Y-107315268D01*
X146355550Y-107385984D01*
X146326438Y-107429922D01*
X146297574Y-107458188D01*
X146289332Y-107466259D01*
X146285513Y-107472184D01*
X146285512Y-107472186D01*
X146204061Y-107598574D01*
X146192046Y-107617217D01*
X146130622Y-107785978D01*
X146108114Y-107964153D01*
X146108801Y-107971160D01*
X146108801Y-107971163D01*
X146109442Y-107977696D01*
X146125639Y-108142886D01*
X146127862Y-108149568D01*
X146127862Y-108149569D01*
X146136567Y-108175736D01*
X146182326Y-108313296D01*
X146275359Y-108466912D01*
X146328917Y-108522372D01*
X146361849Y-108585268D01*
X146355550Y-108655984D01*
X146326438Y-108699922D01*
X146289332Y-108736259D01*
X146285513Y-108742184D01*
X146285512Y-108742186D01*
X146195865Y-108881291D01*
X146192046Y-108887217D01*
X146189635Y-108893840D01*
X146189634Y-108893843D01*
X146168900Y-108950810D01*
X146126806Y-109007982D01*
X146060485Y-109033320D01*
X145990993Y-109018779D01*
X145961404Y-108996811D01*
X143109109Y-106144516D01*
X143109105Y-106144513D01*
X143086542Y-106121950D01*
X143066946Y-106111965D01*
X143050093Y-106101639D01*
X143032290Y-106088704D01*
X143011366Y-106081905D01*
X142993106Y-106074341D01*
X142982341Y-106068856D01*
X142982337Y-106068855D01*
X142973504Y-106064354D01*
X142963713Y-106062803D01*
X142963712Y-106062803D01*
X142951778Y-106060913D01*
X142932553Y-106056297D01*
X142921068Y-106052565D01*
X142921064Y-106052564D01*
X142911633Y-106049500D01*
X138918083Y-106049500D01*
X138849962Y-106029498D01*
X138828987Y-106012595D01*
X138159015Y-105342622D01*
X138124990Y-105280310D01*
X138130055Y-105209494D01*
X138171406Y-105153565D01*
X138275089Y-105074007D01*
X138284958Y-105066434D01*
X138291504Y-105061411D01*
X138296527Y-105054865D01*
X138296531Y-105054861D01*
X138338784Y-104999796D01*
X138396122Y-104957929D01*
X138438746Y-104950500D01*
X138843269Y-104950500D01*
X138911390Y-104970502D01*
X138921460Y-104978618D01*
X138921718Y-104978282D01*
X139047159Y-105074536D01*
X139193238Y-105135044D01*
X139350000Y-105155682D01*
X139358188Y-105154604D01*
X139498574Y-105136122D01*
X139506762Y-105135044D01*
X139652841Y-105074536D01*
X139778282Y-104978282D01*
X139874536Y-104852841D01*
X139877697Y-104845211D01*
X139880358Y-104840601D01*
X139931740Y-104791607D01*
X140001454Y-104778170D01*
X140067365Y-104804557D01*
X140108548Y-104862388D01*
X140112724Y-104877401D01*
X140113636Y-104881692D01*
X140114326Y-104888256D01*
X140116366Y-104894533D01*
X140116366Y-104894535D01*
X140141450Y-104971736D01*
X140172821Y-105068284D01*
X140176124Y-105074006D01*
X140176125Y-105074007D01*
X140178255Y-105077696D01*
X140267467Y-105232216D01*
X140271885Y-105237123D01*
X140271886Y-105237124D01*
X140334436Y-105306592D01*
X140394129Y-105372888D01*
X140547270Y-105484151D01*
X140720197Y-105561144D01*
X140818212Y-105581978D01*
X140898897Y-105599128D01*
X140898901Y-105599128D01*
X140905354Y-105600500D01*
X141094646Y-105600500D01*
X141101099Y-105599128D01*
X141101103Y-105599128D01*
X141181788Y-105581978D01*
X141279803Y-105561144D01*
X141452730Y-105484151D01*
X141605871Y-105372888D01*
X141665565Y-105306592D01*
X141728114Y-105237124D01*
X141728115Y-105237123D01*
X141732533Y-105232216D01*
X141772330Y-105163285D01*
X145905600Y-105163285D01*
X145910075Y-105178524D01*
X145911465Y-105179729D01*
X145919148Y-105181400D01*
X146641485Y-105181400D01*
X146656724Y-105176925D01*
X146657929Y-105175535D01*
X146659600Y-105167852D01*
X146659600Y-105163285D01*
X147167600Y-105163285D01*
X147172075Y-105178524D01*
X147173465Y-105179729D01*
X147181148Y-105181400D01*
X147903484Y-105181400D01*
X147918723Y-105176925D01*
X147919928Y-105175535D01*
X147921599Y-105167852D01*
X147921599Y-104890731D01*
X147921229Y-104883910D01*
X147915705Y-104833048D01*
X147912079Y-104817796D01*
X147866924Y-104697346D01*
X147858386Y-104681751D01*
X147781885Y-104579676D01*
X147769324Y-104567115D01*
X147667249Y-104490614D01*
X147651654Y-104482076D01*
X147531206Y-104436922D01*
X147515951Y-104433295D01*
X147465086Y-104427769D01*
X147458272Y-104427400D01*
X147185715Y-104427400D01*
X147170476Y-104431875D01*
X147169271Y-104433265D01*
X147167600Y-104440948D01*
X147167600Y-105163285D01*
X146659600Y-105163285D01*
X146659600Y-104445516D01*
X146655125Y-104430277D01*
X146653735Y-104429072D01*
X146646052Y-104427401D01*
X146368931Y-104427401D01*
X146362110Y-104427771D01*
X146311248Y-104433295D01*
X146295996Y-104436921D01*
X146175546Y-104482076D01*
X146159951Y-104490614D01*
X146057876Y-104567115D01*
X146045315Y-104579676D01*
X145968814Y-104681751D01*
X145960276Y-104697346D01*
X145915122Y-104817794D01*
X145911495Y-104833049D01*
X145905969Y-104883914D01*
X145905600Y-104890728D01*
X145905600Y-105163285D01*
X141772330Y-105163285D01*
X141821745Y-105077696D01*
X141823875Y-105074007D01*
X141823876Y-105074006D01*
X141827179Y-105068284D01*
X141885674Y-104888256D01*
X141888654Y-104859909D01*
X141904770Y-104706565D01*
X141905460Y-104700000D01*
X141885674Y-104511744D01*
X141827179Y-104331716D01*
X141817382Y-104314747D01*
X141800500Y-104251746D01*
X141800500Y-102804845D01*
X141785546Y-102671528D01*
X141726485Y-102501927D01*
X141698202Y-102456664D01*
X141635049Y-102355599D01*
X141631316Y-102349625D01*
X141560064Y-102277874D01*
X141509733Y-102227190D01*
X141509729Y-102227187D01*
X141504770Y-102222193D01*
X141353136Y-102125963D01*
X141267353Y-102095417D01*
X141190586Y-102068081D01*
X141190581Y-102068080D01*
X141183951Y-102065719D01*
X141176963Y-102064886D01*
X141176960Y-102064885D01*
X141061581Y-102051127D01*
X140996308Y-102023199D01*
X140956495Y-101964416D01*
X140950500Y-101926013D01*
X140950500Y-101030216D01*
X140970502Y-100962095D01*
X140987404Y-100941121D01*
X141378655Y-100549869D01*
X141382465Y-100546216D01*
X141428156Y-100504201D01*
X141437271Y-100489501D01*
X141451087Y-100467217D01*
X141457801Y-100457447D01*
X141484112Y-100422784D01*
X141489649Y-100408799D01*
X141499713Y-100388791D01*
X141503108Y-100383315D01*
X141507635Y-100376014D01*
X141519773Y-100334234D01*
X141523613Y-100323015D01*
X141539636Y-100282547D01*
X141541208Y-100267592D01*
X141545520Y-100245617D01*
X141549715Y-100231175D01*
X141550500Y-100220485D01*
X141550500Y-100185783D01*
X141551191Y-100172608D01*
X141552167Y-100163325D01*
X141579182Y-100097669D01*
X141637405Y-100057042D01*
X141677476Y-100050500D01*
X142635007Y-100050500D01*
X142640284Y-100050611D01*
X142702294Y-100053210D01*
X142713848Y-100050500D01*
X142744662Y-100043273D01*
X142756333Y-100041110D01*
X142782875Y-100037474D01*
X142799432Y-100035206D01*
X142813230Y-100029235D01*
X142834499Y-100022201D01*
X142840775Y-100020729D01*
X142849136Y-100018768D01*
X142856661Y-100014631D01*
X142856664Y-100014630D01*
X142887268Y-99997805D01*
X142897913Y-99992589D01*
X142937855Y-99975305D01*
X142949541Y-99965842D01*
X142968126Y-99953354D01*
X142975518Y-99949290D01*
X142981308Y-99946107D01*
X142989422Y-99939103D01*
X143013958Y-99914567D01*
X143023759Y-99905742D01*
X143048392Y-99885794D01*
X143048393Y-99885793D01*
X143055070Y-99880386D01*
X143060043Y-99873388D01*
X143060048Y-99873383D01*
X143065968Y-99865052D01*
X143079579Y-99848946D01*
X144222885Y-98705640D01*
X144248981Y-98685615D01*
X144251612Y-98684096D01*
X144259241Y-98680936D01*
X144384682Y-98584682D01*
X144480936Y-98459241D01*
X144541444Y-98313162D01*
X144562082Y-98156400D01*
X144541444Y-97999638D01*
X144480936Y-97853559D01*
X144384682Y-97728118D01*
X144259241Y-97631864D01*
X144113162Y-97571356D01*
X143956400Y-97550718D01*
X143799638Y-97571356D01*
X143653559Y-97631864D01*
X143528118Y-97728118D01*
X143431864Y-97853559D01*
X143428704Y-97861189D01*
X143380607Y-97977304D01*
X143353294Y-98018181D01*
X142905684Y-98465792D01*
X142458881Y-98912595D01*
X142396568Y-98946620D01*
X142369785Y-98949500D01*
X141976500Y-98949500D01*
X141908379Y-98929498D01*
X141861886Y-98875842D01*
X141850500Y-98823500D01*
X141850500Y-97026078D01*
X141867381Y-96963077D01*
X141869506Y-96959396D01*
X141874536Y-96952841D01*
X141935044Y-96806762D01*
X141955682Y-96650000D01*
X141935044Y-96493238D01*
X141874536Y-96347159D01*
X141778282Y-96221718D01*
X141652841Y-96125464D01*
X141506762Y-96064956D01*
X141350000Y-96044318D01*
X141193238Y-96064956D01*
X141047159Y-96125464D01*
X140921718Y-96221718D01*
X140825464Y-96347159D01*
X140764956Y-96493238D01*
X140744318Y-96650000D01*
X140745396Y-96658188D01*
X140746470Y-96666346D01*
X140746858Y-96695957D01*
X140744599Y-96717454D01*
X140746031Y-96725919D01*
X140746031Y-96725927D01*
X140747735Y-96736000D01*
X140749500Y-96757013D01*
X140749500Y-99219786D01*
X140729498Y-99287907D01*
X140712595Y-99308881D01*
X140621357Y-99400119D01*
X140617548Y-99403772D01*
X140571844Y-99445799D01*
X140548901Y-99482802D01*
X140542200Y-99492552D01*
X140515888Y-99527217D01*
X140510354Y-99541195D01*
X140500293Y-99561199D01*
X140492365Y-99573986D01*
X140489968Y-99582237D01*
X140489967Y-99582239D01*
X140480225Y-99615772D01*
X140476380Y-99627002D01*
X140460364Y-99667453D01*
X140459466Y-99675994D01*
X140459466Y-99675995D01*
X140458792Y-99682408D01*
X140454480Y-99704383D01*
X140450285Y-99718825D01*
X140449500Y-99729515D01*
X140449500Y-99764217D01*
X140448810Y-99777387D01*
X140444599Y-99817454D01*
X140446031Y-99825919D01*
X140446031Y-99825928D01*
X140447735Y-99836000D01*
X140449500Y-99857013D01*
X140449500Y-99869784D01*
X140429498Y-99937905D01*
X140412596Y-99958879D01*
X140208881Y-100162595D01*
X140146569Y-100196620D01*
X140119785Y-100199500D01*
X137554214Y-100199500D01*
X137486093Y-100179498D01*
X137465119Y-100162595D01*
X137188804Y-99886280D01*
X137161490Y-99845403D01*
X137139696Y-99792789D01*
X137136536Y-99785159D01*
X137040282Y-99659718D01*
X136914841Y-99563464D01*
X136768762Y-99502956D01*
X136612000Y-99482318D01*
X136455238Y-99502956D01*
X136309159Y-99563464D01*
X136183718Y-99659718D01*
X136087464Y-99785159D01*
X136026956Y-99931238D01*
X136006318Y-100088000D01*
X136026956Y-100244762D01*
X136087464Y-100390841D01*
X136134849Y-100452595D01*
X136163168Y-100489500D01*
X136183718Y-100516282D01*
X136190264Y-100521305D01*
X136213889Y-100539433D01*
X136255756Y-100596771D01*
X136259978Y-100667642D01*
X136225214Y-100729545D01*
X136213889Y-100739358D01*
X136178268Y-100766691D01*
X136178264Y-100766695D01*
X136171718Y-100771718D01*
X136075464Y-100897159D01*
X136014956Y-101043238D01*
X135994318Y-101200000D01*
X135991404Y-101199616D01*
X135975394Y-101254142D01*
X135958491Y-101275116D01*
X135168434Y-102065173D01*
X135106122Y-102099199D01*
X135095792Y-102100999D01*
X134992738Y-102114566D01*
X134846659Y-102175074D01*
X134721218Y-102271328D01*
X134716195Y-102277874D01*
X134697457Y-102302294D01*
X134624964Y-102396769D01*
X134564456Y-102542848D01*
X134543818Y-102699610D01*
X133998462Y-102699610D01*
X134000500Y-102682771D01*
X134000499Y-101193439D01*
X134020501Y-101125318D01*
X134037404Y-101104344D01*
X134908528Y-100233220D01*
X134919423Y-100211837D01*
X134929747Y-100194991D01*
X134938020Y-100183604D01*
X134943849Y-100175581D01*
X134946913Y-100166150D01*
X134946915Y-100166147D01*
X134951264Y-100152763D01*
X134958828Y-100134502D01*
X134965216Y-100121964D01*
X134965216Y-100121963D01*
X134969719Y-100113126D01*
X134973472Y-100089429D01*
X134978086Y-100070210D01*
X134985500Y-100047393D01*
X134985500Y-98264679D01*
X135005502Y-98196558D01*
X135011538Y-98187975D01*
X135079506Y-98099397D01*
X135079508Y-98099394D01*
X135084536Y-98092841D01*
X135145044Y-97946762D01*
X135165682Y-97790000D01*
X135145044Y-97633238D01*
X135084536Y-97487159D01*
X134988282Y-97361718D01*
X134862841Y-97265464D01*
X134716762Y-97204956D01*
X134560000Y-97184318D01*
X134403238Y-97204956D01*
X134257159Y-97265464D01*
X134131718Y-97361718D01*
X134054874Y-97461864D01*
X134054471Y-97462389D01*
X133997133Y-97504256D01*
X133926262Y-97508478D01*
X133864359Y-97473714D01*
X133854145Y-97461864D01*
X133848113Y-97453917D01*
X133842922Y-97447078D01*
X133722783Y-97355888D01*
X133582547Y-97300364D01*
X133574509Y-97299391D01*
X133574508Y-97299391D01*
X133542937Y-97295571D01*
X133492771Y-97289500D01*
X132650556Y-97289500D01*
X131807230Y-97289501D01*
X131803472Y-97289956D01*
X131803467Y-97289956D01*
X131725483Y-97299392D01*
X131725480Y-97299393D01*
X131717453Y-97300364D01*
X131709932Y-97303342D01*
X131709931Y-97303342D01*
X131692386Y-97310289D01*
X131621685Y-97316770D01*
X131558705Y-97283998D01*
X131523440Y-97222379D01*
X131520000Y-97193138D01*
X131520000Y-93843826D01*
X131540002Y-93775705D01*
X131593658Y-93729212D01*
X131645790Y-93717826D01*
X139484786Y-93704775D01*
X149179292Y-93688636D01*
X149247444Y-93708524D01*
G37*
%TD.AperFunction*%
%TD*%
M02*
