%TF.GenerationSoftware,KiCad,Pcbnew,(6.0.9-0)*%
%TF.CreationDate,2023-01-16T20:49:35+01:00*%
%TF.ProjectId,ray2,72617932-2e6b-4696-9361-645f70636258,rev?*%
%TF.SameCoordinates,Original*%
%TF.FileFunction,Legend,Bot*%
%TF.FilePolarity,Positive*%
%FSLAX46Y46*%
G04 Gerber Fmt 4.6, Leading zero omitted, Abs format (unit mm)*
G04 Created by KiCad (PCBNEW (6.0.9-0)) date 2023-01-16 20:49:35*
%MOMM*%
%LPD*%
G01*
G04 APERTURE LIST*
%ADD10C,0.120000*%
%ADD11C,0.150000*%
%ADD12C,0.010000*%
G04 APERTURE END LIST*
D10*
X142156666Y-105886666D02*
X142156666Y-105420000D01*
X142156666Y-105486666D02*
X142123333Y-105453333D01*
X142056666Y-105420000D01*
X141956666Y-105420000D01*
X141890000Y-105453333D01*
X141856666Y-105520000D01*
X141856666Y-105886666D01*
X141856666Y-105520000D02*
X141823333Y-105453333D01*
X141756666Y-105420000D01*
X141656666Y-105420000D01*
X141590000Y-105453333D01*
X141556666Y-105520000D01*
X141556666Y-105886666D01*
X141223333Y-105886666D02*
X141223333Y-105420000D01*
X141223333Y-105186666D02*
X141256666Y-105220000D01*
X141223333Y-105253333D01*
X141190000Y-105220000D01*
X141223333Y-105186666D01*
X141223333Y-105253333D01*
X140590000Y-105853333D02*
X140656666Y-105886666D01*
X140790000Y-105886666D01*
X140856666Y-105853333D01*
X140890000Y-105820000D01*
X140923333Y-105753333D01*
X140923333Y-105553333D01*
X140890000Y-105486666D01*
X140856666Y-105453333D01*
X140790000Y-105420000D01*
X140656666Y-105420000D01*
X140590000Y-105453333D01*
X140290000Y-105886666D02*
X140290000Y-105420000D01*
X140290000Y-105553333D02*
X140256666Y-105486666D01*
X140223333Y-105453333D01*
X140156666Y-105420000D01*
X140090000Y-105420000D01*
X139756666Y-105886666D02*
X139823333Y-105853333D01*
X139856666Y-105820000D01*
X139890000Y-105753333D01*
X139890000Y-105553333D01*
X139856666Y-105486666D01*
X139823333Y-105453333D01*
X139756666Y-105420000D01*
X139656666Y-105420000D01*
X139590000Y-105453333D01*
X139556666Y-105486666D01*
X139523333Y-105553333D01*
X139523333Y-105753333D01*
X139556666Y-105820000D01*
X139590000Y-105853333D01*
X139656666Y-105886666D01*
X139756666Y-105886666D01*
X138590000Y-105886666D02*
X138656666Y-105853333D01*
X138690000Y-105786666D01*
X138690000Y-105186666D01*
X138056666Y-105853333D02*
X138123333Y-105886666D01*
X138256666Y-105886666D01*
X138323333Y-105853333D01*
X138356666Y-105786666D01*
X138356666Y-105520000D01*
X138323333Y-105453333D01*
X138256666Y-105420000D01*
X138123333Y-105420000D01*
X138056666Y-105453333D01*
X138023333Y-105520000D01*
X138023333Y-105586666D01*
X138356666Y-105653333D01*
X137423333Y-105886666D02*
X137423333Y-105186666D01*
X137423333Y-105853333D02*
X137490000Y-105886666D01*
X137623333Y-105886666D01*
X137690000Y-105853333D01*
X137723333Y-105820000D01*
X137756666Y-105753333D01*
X137756666Y-105553333D01*
X137723333Y-105486666D01*
X137690000Y-105453333D01*
X137623333Y-105420000D01*
X137490000Y-105420000D01*
X137423333Y-105453333D01*
X136256666Y-105886666D02*
X136256666Y-105186666D01*
X136256666Y-105853333D02*
X136323333Y-105886666D01*
X136456666Y-105886666D01*
X136523333Y-105853333D01*
X136556666Y-105820000D01*
X136590000Y-105753333D01*
X136590000Y-105553333D01*
X136556666Y-105486666D01*
X136523333Y-105453333D01*
X136456666Y-105420000D01*
X136323333Y-105420000D01*
X136256666Y-105453333D01*
X135923333Y-105886666D02*
X135923333Y-105420000D01*
X135923333Y-105186666D02*
X135956666Y-105220000D01*
X135923333Y-105253333D01*
X135890000Y-105220000D01*
X135923333Y-105186666D01*
X135923333Y-105253333D01*
X135590000Y-105886666D02*
X135590000Y-105420000D01*
X135590000Y-105486666D02*
X135556666Y-105453333D01*
X135490000Y-105420000D01*
X135390000Y-105420000D01*
X135323333Y-105453333D01*
X135290000Y-105520000D01*
X135290000Y-105886666D01*
X135290000Y-105520000D02*
X135256666Y-105453333D01*
X135190000Y-105420000D01*
X135090000Y-105420000D01*
X135023333Y-105453333D01*
X134990000Y-105520000D01*
X134990000Y-105886666D01*
X134656666Y-105886666D02*
X134656666Y-105420000D01*
X134656666Y-105486666D02*
X134623333Y-105453333D01*
X134556666Y-105420000D01*
X134456666Y-105420000D01*
X134390000Y-105453333D01*
X134356666Y-105520000D01*
X134356666Y-105886666D01*
X134356666Y-105520000D02*
X134323333Y-105453333D01*
X134256666Y-105420000D01*
X134156666Y-105420000D01*
X134090000Y-105453333D01*
X134056666Y-105520000D01*
X134056666Y-105886666D01*
X133456666Y-105853333D02*
X133523333Y-105886666D01*
X133656666Y-105886666D01*
X133723333Y-105853333D01*
X133756666Y-105786666D01*
X133756666Y-105520000D01*
X133723333Y-105453333D01*
X133656666Y-105420000D01*
X133523333Y-105420000D01*
X133456666Y-105453333D01*
X133423333Y-105520000D01*
X133423333Y-105586666D01*
X133756666Y-105653333D01*
X133123333Y-105886666D02*
X133123333Y-105420000D01*
X133123333Y-105553333D02*
X133090000Y-105486666D01*
X133056666Y-105453333D01*
X132990000Y-105420000D01*
X132923333Y-105420000D01*
D11*
X144296666Y-103450000D02*
X144296666Y-104016666D01*
X144330000Y-104083333D01*
X144363333Y-104116666D01*
X144430000Y-104150000D01*
X144530000Y-104150000D01*
X144596666Y-104116666D01*
X144296666Y-103883333D02*
X144363333Y-103916666D01*
X144496666Y-103916666D01*
X144563333Y-103883333D01*
X144596666Y-103850000D01*
X144630000Y-103783333D01*
X144630000Y-103583333D01*
X144596666Y-103516666D01*
X144563333Y-103483333D01*
X144496666Y-103450000D01*
X144363333Y-103450000D01*
X144296666Y-103483333D01*
X143963333Y-103916666D02*
X143963333Y-103450000D01*
X143963333Y-103216666D02*
X143996666Y-103250000D01*
X143963333Y-103283333D01*
X143930000Y-103250000D01*
X143963333Y-103216666D01*
X143963333Y-103283333D01*
X143730000Y-103450000D02*
X143463333Y-103450000D01*
X143630000Y-103216666D02*
X143630000Y-103816666D01*
X143596666Y-103883333D01*
X143530000Y-103916666D01*
X143463333Y-103916666D01*
X143230000Y-103916666D02*
X143230000Y-103216666D01*
X142930000Y-103916666D02*
X142930000Y-103550000D01*
X142963333Y-103483333D01*
X143030000Y-103450000D01*
X143130000Y-103450000D01*
X143196666Y-103483333D01*
X143230000Y-103516666D01*
X142296666Y-103450000D02*
X142296666Y-103916666D01*
X142596666Y-103450000D02*
X142596666Y-103816666D01*
X142563333Y-103883333D01*
X142496666Y-103916666D01*
X142396666Y-103916666D01*
X142330000Y-103883333D01*
X142296666Y-103850000D01*
X141963333Y-103916666D02*
X141963333Y-103216666D01*
X141963333Y-103483333D02*
X141896666Y-103450000D01*
X141763333Y-103450000D01*
X141696666Y-103483333D01*
X141663333Y-103516666D01*
X141630000Y-103583333D01*
X141630000Y-103783333D01*
X141663333Y-103850000D01*
X141696666Y-103883333D01*
X141763333Y-103916666D01*
X141896666Y-103916666D01*
X141963333Y-103883333D01*
X141330000Y-103850000D02*
X141296666Y-103883333D01*
X141330000Y-103916666D01*
X141363333Y-103883333D01*
X141330000Y-103850000D01*
X141330000Y-103916666D01*
X140696666Y-103883333D02*
X140763333Y-103916666D01*
X140896666Y-103916666D01*
X140963333Y-103883333D01*
X140996666Y-103850000D01*
X141030000Y-103783333D01*
X141030000Y-103583333D01*
X140996666Y-103516666D01*
X140963333Y-103483333D01*
X140896666Y-103450000D01*
X140763333Y-103450000D01*
X140696666Y-103483333D01*
X140296666Y-103916666D02*
X140363333Y-103883333D01*
X140396666Y-103850000D01*
X140430000Y-103783333D01*
X140430000Y-103583333D01*
X140396666Y-103516666D01*
X140363333Y-103483333D01*
X140296666Y-103450000D01*
X140196666Y-103450000D01*
X140130000Y-103483333D01*
X140096666Y-103516666D01*
X140063333Y-103583333D01*
X140063333Y-103783333D01*
X140096666Y-103850000D01*
X140130000Y-103883333D01*
X140196666Y-103916666D01*
X140296666Y-103916666D01*
X139763333Y-103916666D02*
X139763333Y-103450000D01*
X139763333Y-103516666D02*
X139730000Y-103483333D01*
X139663333Y-103450000D01*
X139563333Y-103450000D01*
X139496666Y-103483333D01*
X139463333Y-103550000D01*
X139463333Y-103916666D01*
X139463333Y-103550000D02*
X139430000Y-103483333D01*
X139363333Y-103450000D01*
X139263333Y-103450000D01*
X139196666Y-103483333D01*
X139163333Y-103550000D01*
X139163333Y-103916666D01*
X138330000Y-103183333D02*
X138930000Y-104083333D01*
X137996666Y-103916666D02*
X138063333Y-103883333D01*
X138096666Y-103850000D01*
X138130000Y-103783333D01*
X138130000Y-103583333D01*
X138096666Y-103516666D01*
X138063333Y-103483333D01*
X137996666Y-103450000D01*
X137896666Y-103450000D01*
X137830000Y-103483333D01*
X137796666Y-103516666D01*
X137763333Y-103583333D01*
X137763333Y-103783333D01*
X137796666Y-103850000D01*
X137830000Y-103883333D01*
X137896666Y-103916666D01*
X137996666Y-103916666D01*
X137463333Y-103916666D02*
X137463333Y-103216666D01*
X137163333Y-103916666D02*
X137163333Y-103550000D01*
X137196666Y-103483333D01*
X137263333Y-103450000D01*
X137363333Y-103450000D01*
X137430000Y-103483333D01*
X137463333Y-103516666D01*
X136530000Y-103916666D02*
X136530000Y-103550000D01*
X136563333Y-103483333D01*
X136630000Y-103450000D01*
X136763333Y-103450000D01*
X136830000Y-103483333D01*
X136530000Y-103883333D02*
X136596666Y-103916666D01*
X136763333Y-103916666D01*
X136830000Y-103883333D01*
X136863333Y-103816666D01*
X136863333Y-103750000D01*
X136830000Y-103683333D01*
X136763333Y-103650000D01*
X136596666Y-103650000D01*
X136530000Y-103616666D01*
X135896666Y-103450000D02*
X135896666Y-103916666D01*
X136196666Y-103450000D02*
X136196666Y-103816666D01*
X136163333Y-103883333D01*
X136096666Y-103916666D01*
X135996666Y-103916666D01*
X135930000Y-103883333D01*
X135896666Y-103850000D01*
X135663333Y-103450000D02*
X135396666Y-103450000D01*
X135563333Y-103216666D02*
X135563333Y-103816666D01*
X135530000Y-103883333D01*
X135463333Y-103916666D01*
X135396666Y-103916666D01*
X134663333Y-103183333D02*
X135263333Y-104083333D01*
X134430000Y-103916666D02*
X134430000Y-103450000D01*
X134430000Y-103583333D02*
X134396666Y-103516666D01*
X134363333Y-103483333D01*
X134296666Y-103450000D01*
X134230000Y-103450000D01*
X133696666Y-103916666D02*
X133696666Y-103550000D01*
X133730000Y-103483333D01*
X133796666Y-103450000D01*
X133930000Y-103450000D01*
X133996666Y-103483333D01*
X133696666Y-103883333D02*
X133763333Y-103916666D01*
X133930000Y-103916666D01*
X133996666Y-103883333D01*
X134030000Y-103816666D01*
X134030000Y-103750000D01*
X133996666Y-103683333D01*
X133930000Y-103650000D01*
X133763333Y-103650000D01*
X133696666Y-103616666D01*
X133430000Y-103450000D02*
X133263333Y-103916666D01*
X133096666Y-103450000D02*
X133263333Y-103916666D01*
X133330000Y-104083333D01*
X133363333Y-104116666D01*
X133430000Y-104150000D01*
D10*
X134900000Y-107110000D02*
X134733333Y-107576666D01*
X134566666Y-107110000D01*
X134333333Y-106943333D02*
X134300000Y-106910000D01*
X134233333Y-106876666D01*
X134066666Y-106876666D01*
X134000000Y-106910000D01*
X133966666Y-106943333D01*
X133933333Y-107010000D01*
X133933333Y-107076666D01*
X133966666Y-107176666D01*
X134366666Y-107576666D01*
X133933333Y-107576666D01*
X133633333Y-107510000D02*
X133600000Y-107543333D01*
X133633333Y-107576666D01*
X133666666Y-107543333D01*
X133633333Y-107510000D01*
X133633333Y-107576666D01*
X133166666Y-106876666D02*
X133100000Y-106876666D01*
X133033333Y-106910000D01*
X133000000Y-106943333D01*
X132966666Y-107010000D01*
X132933333Y-107143333D01*
X132933333Y-107310000D01*
X132966666Y-107443333D01*
X133000000Y-107510000D01*
X133033333Y-107543333D01*
X133100000Y-107576666D01*
X133166666Y-107576666D01*
X133233333Y-107543333D01*
X133266666Y-107510000D01*
X133300000Y-107443333D01*
X133333333Y-107310000D01*
X133333333Y-107143333D01*
X133300000Y-107010000D01*
X133266666Y-106943333D01*
X133233333Y-106910000D01*
X133166666Y-106876666D01*
X132633333Y-107510000D02*
X132600000Y-107543333D01*
X132633333Y-107576666D01*
X132666666Y-107543333D01*
X132633333Y-107510000D01*
X132633333Y-107576666D01*
X132166666Y-106876666D02*
X132100000Y-106876666D01*
X132033333Y-106910000D01*
X132000000Y-106943333D01*
X131966666Y-107010000D01*
X131933333Y-107143333D01*
X131933333Y-107310000D01*
X131966666Y-107443333D01*
X132000000Y-107510000D01*
X132033333Y-107543333D01*
X132100000Y-107576666D01*
X132166666Y-107576666D01*
X132233333Y-107543333D01*
X132266666Y-107510000D01*
X132300000Y-107443333D01*
X132333333Y-107310000D01*
X132333333Y-107143333D01*
X132300000Y-107010000D01*
X132266666Y-106943333D01*
X132233333Y-106910000D01*
X132166666Y-106876666D01*
%TO.C,REF\u002A\u002A*%
G36*
X141383936Y-101559911D02*
G01*
X141425807Y-101570547D01*
X141464791Y-101597062D01*
X141514965Y-101646420D01*
X141547232Y-101681279D01*
X141580844Y-101726534D01*
X141596003Y-101768951D01*
X141599539Y-101822768D01*
X141599539Y-101910850D01*
X141539470Y-101879787D01*
X141491867Y-101841936D01*
X141459261Y-101790950D01*
X141453661Y-101777088D01*
X141410992Y-101723358D01*
X141351707Y-101696417D01*
X141287061Y-101699039D01*
X141228308Y-101734000D01*
X141203450Y-101762394D01*
X141188970Y-101798718D01*
X141204470Y-101831046D01*
X141252667Y-101863565D01*
X141336274Y-101900461D01*
X141348962Y-101905557D01*
X141425078Y-101938907D01*
X141490396Y-101971793D01*
X141531953Y-101997769D01*
X141573576Y-102044167D01*
X141601247Y-102118211D01*
X141598310Y-102197670D01*
X141565571Y-102272868D01*
X141503841Y-102334131D01*
X141453858Y-102360210D01*
X141357303Y-102378470D01*
X141303647Y-102376007D01*
X141253976Y-102362687D01*
X141234919Y-102334739D01*
X141242045Y-102288710D01*
X141244118Y-102282624D01*
X141260556Y-102250349D01*
X141287926Y-102238133D01*
X141340068Y-102238950D01*
X141376884Y-102240061D01*
X141419961Y-102230528D01*
X141449475Y-102202026D01*
X141466286Y-102166935D01*
X141468161Y-102130175D01*
X141468074Y-102129961D01*
X141446279Y-102110098D01*
X141399632Y-102081192D01*
X141339278Y-102048886D01*
X141276360Y-102018823D01*
X141222023Y-101996646D01*
X141187410Y-101988000D01*
X141182260Y-101996467D01*
X141175778Y-102036309D01*
X141171339Y-102101371D01*
X141169692Y-102183385D01*
X141169309Y-102240153D01*
X141167505Y-102311648D01*
X141164558Y-102360610D01*
X141160843Y-102378769D01*
X141141424Y-102372667D01*
X141102227Y-102356095D01*
X141052462Y-102333420D01*
X141052462Y-102042509D01*
X141052780Y-101967940D01*
X141055789Y-101854701D01*
X141063454Y-101770692D01*
X141077562Y-101709520D01*
X141099899Y-101664795D01*
X141132253Y-101630124D01*
X141176410Y-101599117D01*
X141232667Y-101573528D01*
X141336540Y-101558154D01*
X141383936Y-101559911D01*
G37*
D12*
X141383936Y-101559911D02*
X141425807Y-101570547D01*
X141464791Y-101597062D01*
X141514965Y-101646420D01*
X141547232Y-101681279D01*
X141580844Y-101726534D01*
X141596003Y-101768951D01*
X141599539Y-101822768D01*
X141599539Y-101910850D01*
X141539470Y-101879787D01*
X141491867Y-101841936D01*
X141459261Y-101790950D01*
X141453661Y-101777088D01*
X141410992Y-101723358D01*
X141351707Y-101696417D01*
X141287061Y-101699039D01*
X141228308Y-101734000D01*
X141203450Y-101762394D01*
X141188970Y-101798718D01*
X141204470Y-101831046D01*
X141252667Y-101863565D01*
X141336274Y-101900461D01*
X141348962Y-101905557D01*
X141425078Y-101938907D01*
X141490396Y-101971793D01*
X141531953Y-101997769D01*
X141573576Y-102044167D01*
X141601247Y-102118211D01*
X141598310Y-102197670D01*
X141565571Y-102272868D01*
X141503841Y-102334131D01*
X141453858Y-102360210D01*
X141357303Y-102378470D01*
X141303647Y-102376007D01*
X141253976Y-102362687D01*
X141234919Y-102334739D01*
X141242045Y-102288710D01*
X141244118Y-102282624D01*
X141260556Y-102250349D01*
X141287926Y-102238133D01*
X141340068Y-102238950D01*
X141376884Y-102240061D01*
X141419961Y-102230528D01*
X141449475Y-102202026D01*
X141466286Y-102166935D01*
X141468161Y-102130175D01*
X141468074Y-102129961D01*
X141446279Y-102110098D01*
X141399632Y-102081192D01*
X141339278Y-102048886D01*
X141276360Y-102018823D01*
X141222023Y-101996646D01*
X141187410Y-101988000D01*
X141182260Y-101996467D01*
X141175778Y-102036309D01*
X141171339Y-102101371D01*
X141169692Y-102183385D01*
X141169309Y-102240153D01*
X141167505Y-102311648D01*
X141164558Y-102360610D01*
X141160843Y-102378769D01*
X141141424Y-102372667D01*
X141102227Y-102356095D01*
X141052462Y-102333420D01*
X141052462Y-102042509D01*
X141052780Y-101967940D01*
X141055789Y-101854701D01*
X141063454Y-101770692D01*
X141077562Y-101709520D01*
X141099899Y-101664795D01*
X141132253Y-101630124D01*
X141176410Y-101599117D01*
X141232667Y-101573528D01*
X141336540Y-101558154D01*
X141383936Y-101559911D01*
G36*
X142307998Y-101564034D02*
G01*
X142350850Y-101580829D01*
X142400615Y-101603503D01*
X142400615Y-102258533D01*
X142338785Y-102320363D01*
X142324662Y-102334228D01*
X142285536Y-102365046D01*
X142246078Y-102375028D01*
X142187362Y-102370433D01*
X142163456Y-102367462D01*
X142101801Y-102361176D01*
X142058692Y-102358672D01*
X142045905Y-102359055D01*
X141993446Y-102363200D01*
X141930022Y-102370433D01*
X141909730Y-102372918D01*
X141858610Y-102373895D01*
X141821207Y-102358462D01*
X141778599Y-102320363D01*
X141716769Y-102258533D01*
X141716769Y-101908343D01*
X141717251Y-101804857D01*
X141718753Y-101706192D01*
X141721089Y-101628068D01*
X141724071Y-101576662D01*
X141727509Y-101558154D01*
X141728230Y-101558204D01*
X141753203Y-101567413D01*
X141795399Y-101587707D01*
X141852549Y-101617261D01*
X141857928Y-101924746D01*
X141863308Y-102232231D01*
X141980539Y-102232231D01*
X141985885Y-101895192D01*
X141987579Y-101803574D01*
X141990005Y-101705649D01*
X141992634Y-101627906D01*
X141995246Y-101576642D01*
X141997623Y-101558154D01*
X141998306Y-101558219D01*
X142021996Y-101565020D01*
X142065546Y-101579604D01*
X142127077Y-101601054D01*
X142127376Y-101897104D01*
X142127676Y-101948532D01*
X142129754Y-102048466D01*
X142133470Y-102131925D01*
X142138430Y-102191377D01*
X142144240Y-102219287D01*
X142165024Y-102234214D01*
X142207440Y-102238825D01*
X142254077Y-102232231D01*
X142259423Y-101895192D01*
X142261336Y-101809546D01*
X142265303Y-101708172D01*
X142270491Y-101628655D01*
X142276499Y-101576736D01*
X142282927Y-101558154D01*
X142307998Y-101564034D01*
G37*
X142307998Y-101564034D02*
X142350850Y-101580829D01*
X142400615Y-101603503D01*
X142400615Y-102258533D01*
X142338785Y-102320363D01*
X142324662Y-102334228D01*
X142285536Y-102365046D01*
X142246078Y-102375028D01*
X142187362Y-102370433D01*
X142163456Y-102367462D01*
X142101801Y-102361176D01*
X142058692Y-102358672D01*
X142045905Y-102359055D01*
X141993446Y-102363200D01*
X141930022Y-102370433D01*
X141909730Y-102372918D01*
X141858610Y-102373895D01*
X141821207Y-102358462D01*
X141778599Y-102320363D01*
X141716769Y-102258533D01*
X141716769Y-101908343D01*
X141717251Y-101804857D01*
X141718753Y-101706192D01*
X141721089Y-101628068D01*
X141724071Y-101576662D01*
X141727509Y-101558154D01*
X141728230Y-101558204D01*
X141753203Y-101567413D01*
X141795399Y-101587707D01*
X141852549Y-101617261D01*
X141857928Y-101924746D01*
X141863308Y-102232231D01*
X141980539Y-102232231D01*
X141985885Y-101895192D01*
X141987579Y-101803574D01*
X141990005Y-101705649D01*
X141992634Y-101627906D01*
X141995246Y-101576642D01*
X141997623Y-101558154D01*
X141998306Y-101558219D01*
X142021996Y-101565020D01*
X142065546Y-101579604D01*
X142127077Y-101601054D01*
X142127376Y-101897104D01*
X142127676Y-101948532D01*
X142129754Y-102048466D01*
X142133470Y-102131925D01*
X142138430Y-102191377D01*
X142144240Y-102219287D01*
X142165024Y-102234214D01*
X142207440Y-102238825D01*
X142254077Y-102232231D01*
X142259423Y-101895192D01*
X142261336Y-101809546D01*
X142265303Y-101708172D01*
X142270491Y-101628655D01*
X142276499Y-101576736D01*
X142282927Y-101558154D01*
X142307998Y-101564034D01*
G36*
X144240458Y-101579228D02*
G01*
X144307622Y-101618389D01*
X144337169Y-101648902D01*
X144393948Y-101740110D01*
X144413077Y-101839548D01*
X144413077Y-101907960D01*
X144350191Y-101881518D01*
X144306700Y-101854837D01*
X144272426Y-101799446D01*
X144268907Y-101788024D01*
X144231028Y-101729838D01*
X144173936Y-101698407D01*
X144108383Y-101697058D01*
X144045117Y-101729116D01*
X144035672Y-101737383D01*
X144004087Y-101773311D01*
X143998871Y-101804635D01*
X144022765Y-101835391D01*
X144078510Y-101869617D01*
X144168846Y-101911350D01*
X144174956Y-101913993D01*
X144275241Y-101960755D01*
X144343735Y-102002181D01*
X144385899Y-102043542D01*
X144407193Y-102090111D01*
X144413077Y-102147160D01*
X144405366Y-102210408D01*
X144366430Y-102291364D01*
X144297932Y-102349522D01*
X144248388Y-102366983D01*
X144178469Y-102376537D01*
X144110575Y-102374496D01*
X144062093Y-102360082D01*
X144056943Y-102356493D01*
X144043267Y-102331416D01*
X144052757Y-102287218D01*
X144069246Y-102252527D01*
X144095687Y-102238084D01*
X144145834Y-102238803D01*
X144215453Y-102234660D01*
X144260943Y-102206054D01*
X144276308Y-102153104D01*
X144276294Y-102151582D01*
X144266983Y-102120845D01*
X144235311Y-102092643D01*
X144173731Y-102060136D01*
X144089986Y-102020998D01*
X144034518Y-101999706D01*
X144002497Y-102001079D01*
X143987534Y-102029203D01*
X143983242Y-102088170D01*
X143983231Y-102182068D01*
X143982752Y-102240031D01*
X143980556Y-102311612D01*
X143976986Y-102360606D01*
X143972491Y-102378769D01*
X143971290Y-102378646D01*
X143945319Y-102368802D01*
X143902305Y-102348028D01*
X143842859Y-102317287D01*
X143849923Y-102040298D01*
X143850414Y-102021928D01*
X143856025Y-101892992D01*
X143865938Y-101795814D01*
X143882175Y-101723925D01*
X143906759Y-101670852D01*
X143941715Y-101630127D01*
X143989064Y-101595279D01*
X143989940Y-101594733D01*
X144066499Y-101566303D01*
X144155044Y-101561500D01*
X144240458Y-101579228D01*
G37*
X144240458Y-101579228D02*
X144307622Y-101618389D01*
X144337169Y-101648902D01*
X144393948Y-101740110D01*
X144413077Y-101839548D01*
X144413077Y-101907960D01*
X144350191Y-101881518D01*
X144306700Y-101854837D01*
X144272426Y-101799446D01*
X144268907Y-101788024D01*
X144231028Y-101729838D01*
X144173936Y-101698407D01*
X144108383Y-101697058D01*
X144045117Y-101729116D01*
X144035672Y-101737383D01*
X144004087Y-101773311D01*
X143998871Y-101804635D01*
X144022765Y-101835391D01*
X144078510Y-101869617D01*
X144168846Y-101911350D01*
X144174956Y-101913993D01*
X144275241Y-101960755D01*
X144343735Y-102002181D01*
X144385899Y-102043542D01*
X144407193Y-102090111D01*
X144413077Y-102147160D01*
X144405366Y-102210408D01*
X144366430Y-102291364D01*
X144297932Y-102349522D01*
X144248388Y-102366983D01*
X144178469Y-102376537D01*
X144110575Y-102374496D01*
X144062093Y-102360082D01*
X144056943Y-102356493D01*
X144043267Y-102331416D01*
X144052757Y-102287218D01*
X144069246Y-102252527D01*
X144095687Y-102238084D01*
X144145834Y-102238803D01*
X144215453Y-102234660D01*
X144260943Y-102206054D01*
X144276308Y-102153104D01*
X144276294Y-102151582D01*
X144266983Y-102120845D01*
X144235311Y-102092643D01*
X144173731Y-102060136D01*
X144089986Y-102020998D01*
X144034518Y-101999706D01*
X144002497Y-102001079D01*
X143987534Y-102029203D01*
X143983242Y-102088170D01*
X143983231Y-102182068D01*
X143982752Y-102240031D01*
X143980556Y-102311612D01*
X143976986Y-102360606D01*
X143972491Y-102378769D01*
X143971290Y-102378646D01*
X143945319Y-102368802D01*
X143902305Y-102348028D01*
X143842859Y-102317287D01*
X143849923Y-102040298D01*
X143850414Y-102021928D01*
X143856025Y-101892992D01*
X143865938Y-101795814D01*
X143882175Y-101723925D01*
X143906759Y-101670852D01*
X143941715Y-101630127D01*
X143989064Y-101595279D01*
X143989940Y-101594733D01*
X144066499Y-101566303D01*
X144155044Y-101561500D01*
X144240458Y-101579228D01*
G36*
X140731501Y-101566476D02*
G01*
X140812167Y-101596440D01*
X140845714Y-101618954D01*
X140879687Y-101651212D01*
X140903919Y-101692246D01*
X140920001Y-101748108D01*
X140929521Y-101824851D01*
X140934068Y-101928525D01*
X140935231Y-102065184D01*
X140935003Y-102135805D01*
X140933860Y-102232308D01*
X140931919Y-102309323D01*
X140929365Y-102360319D01*
X140926381Y-102378769D01*
X140906962Y-102372667D01*
X140867766Y-102356095D01*
X140866589Y-102355558D01*
X140846235Y-102344903D01*
X140832546Y-102330282D01*
X140824199Y-102304673D01*
X140819874Y-102261054D01*
X140818248Y-102192403D01*
X140818000Y-102091698D01*
X140817500Y-102027813D01*
X140812164Y-101907751D01*
X140799945Y-101819809D01*
X140779552Y-101759375D01*
X140749695Y-101721836D01*
X140709082Y-101702581D01*
X140703448Y-101701239D01*
X140627378Y-101700191D01*
X140568052Y-101734271D01*
X140527077Y-101802598D01*
X140519770Y-101822351D01*
X140503114Y-101866066D01*
X140494679Y-101886155D01*
X140477356Y-101883387D01*
X140439525Y-101868365D01*
X140404240Y-101843556D01*
X140388154Y-101796670D01*
X140392952Y-101763087D01*
X140422431Y-101694967D01*
X140470098Y-101631134D01*
X140525839Y-101586988D01*
X140549193Y-101576782D01*
X140637619Y-101559718D01*
X140731501Y-101566476D01*
G37*
X140731501Y-101566476D02*
X140812167Y-101596440D01*
X140845714Y-101618954D01*
X140879687Y-101651212D01*
X140903919Y-101692246D01*
X140920001Y-101748108D01*
X140929521Y-101824851D01*
X140934068Y-101928525D01*
X140935231Y-102065184D01*
X140935003Y-102135805D01*
X140933860Y-102232308D01*
X140931919Y-102309323D01*
X140929365Y-102360319D01*
X140926381Y-102378769D01*
X140906962Y-102372667D01*
X140867766Y-102356095D01*
X140866589Y-102355558D01*
X140846235Y-102344903D01*
X140832546Y-102330282D01*
X140824199Y-102304673D01*
X140819874Y-102261054D01*
X140818248Y-102192403D01*
X140818000Y-102091698D01*
X140817500Y-102027813D01*
X140812164Y-101907751D01*
X140799945Y-101819809D01*
X140779552Y-101759375D01*
X140749695Y-101721836D01*
X140709082Y-101702581D01*
X140703448Y-101701239D01*
X140627378Y-101700191D01*
X140568052Y-101734271D01*
X140527077Y-101802598D01*
X140519770Y-101822351D01*
X140503114Y-101866066D01*
X140494679Y-101886155D01*
X140477356Y-101883387D01*
X140439525Y-101868365D01*
X140404240Y-101843556D01*
X140388154Y-101796670D01*
X140392952Y-101763087D01*
X140422431Y-101694967D01*
X140470098Y-101631134D01*
X140525839Y-101586988D01*
X140549193Y-101576782D01*
X140637619Y-101559718D01*
X140731501Y-101566476D01*
G36*
X143591892Y-101587167D02*
G01*
X143598060Y-101590581D01*
X143648447Y-101629692D01*
X143693498Y-101679975D01*
X143701355Y-101691339D01*
X143716376Y-101717860D01*
X143727107Y-101749336D01*
X143734486Y-101792591D01*
X143739452Y-101854449D01*
X143742942Y-101941733D01*
X143745893Y-102061269D01*
X143746311Y-102081478D01*
X143747654Y-102212499D01*
X143745761Y-102305296D01*
X143740605Y-102360507D01*
X143732158Y-102378769D01*
X143706594Y-102373301D01*
X143663166Y-102356733D01*
X143652940Y-102351888D01*
X143636967Y-102340920D01*
X143625954Y-102322890D01*
X143618750Y-102291396D01*
X143614208Y-102240036D01*
X143611180Y-102162410D01*
X143608516Y-102052115D01*
X143607785Y-102019875D01*
X143604965Y-101918050D01*
X143601304Y-101846788D01*
X143595694Y-101799332D01*
X143587029Y-101768925D01*
X143574202Y-101748810D01*
X143556105Y-101732229D01*
X143502525Y-101703161D01*
X143436612Y-101697564D01*
X143377635Y-101719807D01*
X143335203Y-101765859D01*
X143318923Y-101831692D01*
X143318470Y-101849587D01*
X143309578Y-101881982D01*
X143283325Y-101886925D01*
X143231919Y-101867633D01*
X143220013Y-101861446D01*
X143187835Y-101825058D01*
X143187198Y-101770954D01*
X143217856Y-101696128D01*
X143245978Y-101655350D01*
X143317883Y-101597421D01*
X143406638Y-101564670D01*
X143501542Y-101560212D01*
X143591892Y-101587167D01*
G37*
X143591892Y-101587167D02*
X143598060Y-101590581D01*
X143648447Y-101629692D01*
X143693498Y-101679975D01*
X143701355Y-101691339D01*
X143716376Y-101717860D01*
X143727107Y-101749336D01*
X143734486Y-101792591D01*
X143739452Y-101854449D01*
X143742942Y-101941733D01*
X143745893Y-102061269D01*
X143746311Y-102081478D01*
X143747654Y-102212499D01*
X143745761Y-102305296D01*
X143740605Y-102360507D01*
X143732158Y-102378769D01*
X143706594Y-102373301D01*
X143663166Y-102356733D01*
X143652940Y-102351888D01*
X143636967Y-102340920D01*
X143625954Y-102322890D01*
X143618750Y-102291396D01*
X143614208Y-102240036D01*
X143611180Y-102162410D01*
X143608516Y-102052115D01*
X143607785Y-102019875D01*
X143604965Y-101918050D01*
X143601304Y-101846788D01*
X143595694Y-101799332D01*
X143587029Y-101768925D01*
X143574202Y-101748810D01*
X143556105Y-101732229D01*
X143502525Y-101703161D01*
X143436612Y-101697564D01*
X143377635Y-101719807D01*
X143335203Y-101765859D01*
X143318923Y-101831692D01*
X143318470Y-101849587D01*
X143309578Y-101881982D01*
X143283325Y-101886925D01*
X143231919Y-101867633D01*
X143220013Y-101861446D01*
X143187835Y-101825058D01*
X143187198Y-101770954D01*
X143217856Y-101696128D01*
X143245978Y-101655350D01*
X143317883Y-101597421D01*
X143406638Y-101564670D01*
X143501542Y-101560212D01*
X143591892Y-101587167D01*
G36*
X145096923Y-101321806D02*
G01*
X145096923Y-101856455D01*
X145096660Y-101995094D01*
X145095958Y-102119805D01*
X145094883Y-102225557D01*
X145093500Y-102307322D01*
X145091874Y-102360069D01*
X145090070Y-102378769D01*
X145089364Y-102378706D01*
X145065387Y-102371912D01*
X145021685Y-102357320D01*
X144960154Y-102335870D01*
X144960154Y-102060617D01*
X144959763Y-101952466D01*
X144957946Y-101874026D01*
X144953767Y-101820647D01*
X144946286Y-101785256D01*
X144934567Y-101760779D01*
X144917671Y-101740144D01*
X144906152Y-101729170D01*
X144843864Y-101698775D01*
X144775211Y-101701466D01*
X144712298Y-101737406D01*
X144703139Y-101746325D01*
X144688471Y-101764844D01*
X144678433Y-101789326D01*
X144672151Y-101826393D01*
X144668748Y-101882667D01*
X144667349Y-101964771D01*
X144667077Y-102079329D01*
X144666947Y-102137430D01*
X144666099Y-102232993D01*
X144664594Y-102309526D01*
X144662585Y-102360345D01*
X144660223Y-102378769D01*
X144659518Y-102378706D01*
X144635541Y-102371912D01*
X144591839Y-102357320D01*
X144530308Y-102335870D01*
X144530338Y-102059358D01*
X144530384Y-102034742D01*
X144532970Y-101906419D01*
X144540913Y-101809384D01*
X144556155Y-101737057D01*
X144580636Y-101682855D01*
X144616298Y-101640198D01*
X144665082Y-101602505D01*
X144712661Y-101578910D01*
X144788732Y-101560672D01*
X144863556Y-101559636D01*
X144921077Y-101577378D01*
X144925402Y-101579829D01*
X144938738Y-101579566D01*
X144947851Y-101559039D01*
X144954428Y-101511980D01*
X144960154Y-101432120D01*
X144969923Y-101268236D01*
X145096923Y-101321806D01*
G37*
X145096923Y-101321806D02*
X145096923Y-101856455D01*
X145096660Y-101995094D01*
X145095958Y-102119805D01*
X145094883Y-102225557D01*
X145093500Y-102307322D01*
X145091874Y-102360069D01*
X145090070Y-102378769D01*
X145089364Y-102378706D01*
X145065387Y-102371912D01*
X145021685Y-102357320D01*
X144960154Y-102335870D01*
X144960154Y-102060617D01*
X144959763Y-101952466D01*
X144957946Y-101874026D01*
X144953767Y-101820647D01*
X144946286Y-101785256D01*
X144934567Y-101760779D01*
X144917671Y-101740144D01*
X144906152Y-101729170D01*
X144843864Y-101698775D01*
X144775211Y-101701466D01*
X144712298Y-101737406D01*
X144703139Y-101746325D01*
X144688471Y-101764844D01*
X144678433Y-101789326D01*
X144672151Y-101826393D01*
X144668748Y-101882667D01*
X144667349Y-101964771D01*
X144667077Y-102079329D01*
X144666947Y-102137430D01*
X144666099Y-102232993D01*
X144664594Y-102309526D01*
X144662585Y-102360345D01*
X144660223Y-102378769D01*
X144659518Y-102378706D01*
X144635541Y-102371912D01*
X144591839Y-102357320D01*
X144530308Y-102335870D01*
X144530338Y-102059358D01*
X144530384Y-102034742D01*
X144532970Y-101906419D01*
X144540913Y-101809384D01*
X144556155Y-101737057D01*
X144580636Y-101682855D01*
X144616298Y-101640198D01*
X144665082Y-101602505D01*
X144712661Y-101578910D01*
X144788732Y-101560672D01*
X144863556Y-101559636D01*
X144921077Y-101577378D01*
X144925402Y-101579829D01*
X144938738Y-101579566D01*
X144947851Y-101559039D01*
X144954428Y-101511980D01*
X144960154Y-101432120D01*
X144969923Y-101268236D01*
X145096923Y-101321806D01*
G36*
X148516135Y-101970105D02*
G01*
X148515076Y-102064584D01*
X148511436Y-102130414D01*
X148503892Y-102176394D01*
X148491122Y-102211321D01*
X148471803Y-102243995D01*
X148467050Y-102250775D01*
X148416759Y-102304231D01*
X148359457Y-102344547D01*
X148330032Y-102357629D01*
X148224299Y-102379450D01*
X148119734Y-102365336D01*
X148023368Y-102317105D01*
X147942235Y-102236579D01*
X147935385Y-102225791D01*
X147913097Y-102163153D01*
X147898079Y-102075935D01*
X147890792Y-101975210D01*
X147891611Y-101882037D01*
X148088796Y-101882037D01*
X148090349Y-102011114D01*
X148090974Y-102019420D01*
X148100077Y-102090643D01*
X148116288Y-102135809D01*
X148143660Y-102166752D01*
X148189553Y-102195737D01*
X148234942Y-102197261D01*
X148281692Y-102163846D01*
X148289824Y-102155053D01*
X148305754Y-102128741D01*
X148315159Y-102090520D01*
X148319632Y-102031349D01*
X148320769Y-101942182D01*
X148318822Y-101858664D01*
X148309105Y-101779095D01*
X148289047Y-101728808D01*
X148256240Y-101702513D01*
X148208280Y-101694923D01*
X148190016Y-101696432D01*
X148138848Y-101724107D01*
X148105035Y-101786172D01*
X148088796Y-101882037D01*
X147891611Y-101882037D01*
X147891699Y-101872052D01*
X147901262Y-101777533D01*
X147919943Y-101702727D01*
X147943951Y-101652905D01*
X148011536Y-101575409D01*
X148103114Y-101527256D01*
X148215213Y-101510703D01*
X148245151Y-101511599D01*
X148333315Y-101529929D01*
X148405733Y-101576104D01*
X148472192Y-101655648D01*
X148476147Y-101661548D01*
X148494040Y-101693288D01*
X148505678Y-101729163D01*
X148512371Y-101777906D01*
X148515426Y-101848249D01*
X148516106Y-101942182D01*
X148516154Y-101948923D01*
X148516135Y-101970105D01*
G37*
X148516135Y-101970105D02*
X148515076Y-102064584D01*
X148511436Y-102130414D01*
X148503892Y-102176394D01*
X148491122Y-102211321D01*
X148471803Y-102243995D01*
X148467050Y-102250775D01*
X148416759Y-102304231D01*
X148359457Y-102344547D01*
X148330032Y-102357629D01*
X148224299Y-102379450D01*
X148119734Y-102365336D01*
X148023368Y-102317105D01*
X147942235Y-102236579D01*
X147935385Y-102225791D01*
X147913097Y-102163153D01*
X147898079Y-102075935D01*
X147890792Y-101975210D01*
X147891611Y-101882037D01*
X148088796Y-101882037D01*
X148090349Y-102011114D01*
X148090974Y-102019420D01*
X148100077Y-102090643D01*
X148116288Y-102135809D01*
X148143660Y-102166752D01*
X148189553Y-102195737D01*
X148234942Y-102197261D01*
X148281692Y-102163846D01*
X148289824Y-102155053D01*
X148305754Y-102128741D01*
X148315159Y-102090520D01*
X148319632Y-102031349D01*
X148320769Y-101942182D01*
X148318822Y-101858664D01*
X148309105Y-101779095D01*
X148289047Y-101728808D01*
X148256240Y-101702513D01*
X148208280Y-101694923D01*
X148190016Y-101696432D01*
X148138848Y-101724107D01*
X148105035Y-101786172D01*
X148088796Y-101882037D01*
X147891611Y-101882037D01*
X147891699Y-101872052D01*
X147901262Y-101777533D01*
X147919943Y-101702727D01*
X147943951Y-101652905D01*
X148011536Y-101575409D01*
X148103114Y-101527256D01*
X148215213Y-101510703D01*
X148245151Y-101511599D01*
X148333315Y-101529929D01*
X148405733Y-101576104D01*
X148472192Y-101655648D01*
X148476147Y-101661548D01*
X148494040Y-101693288D01*
X148505678Y-101729163D01*
X148512371Y-101777906D01*
X148515426Y-101848249D01*
X148516106Y-101942182D01*
X148516154Y-101948923D01*
X148516135Y-101970105D01*
G36*
X143082839Y-102044652D02*
G01*
X143071810Y-102148507D01*
X143047814Y-102226333D01*
X143008043Y-102285760D01*
X142949688Y-102334418D01*
X142894100Y-102362546D01*
X142800751Y-102378199D01*
X142707530Y-102361084D01*
X142623272Y-102313388D01*
X142556818Y-102237294D01*
X142548793Y-102223262D01*
X142538196Y-102198679D01*
X142530335Y-102167309D01*
X142524807Y-102123769D01*
X142521206Y-102062678D01*
X142519128Y-101978655D01*
X142519064Y-101971200D01*
X142654615Y-101971200D01*
X142655077Y-102042316D01*
X142657999Y-102106641D01*
X142665221Y-102148166D01*
X142678561Y-102176067D01*
X142699836Y-102199517D01*
X142704821Y-102204025D01*
X142768863Y-102237295D01*
X142836625Y-102233890D01*
X142899734Y-102194042D01*
X142918526Y-102173398D01*
X142934254Y-102146029D01*
X142943039Y-102108192D01*
X142946859Y-102050355D01*
X142947692Y-101962986D01*
X142947281Y-101896319D01*
X142944434Y-101831245D01*
X142937256Y-101789251D01*
X142923889Y-101761063D01*
X142902472Y-101737406D01*
X142889890Y-101726753D01*
X142824699Y-101698057D01*
X142756400Y-101702575D01*
X142697098Y-101740144D01*
X142684333Y-101755040D01*
X142668764Y-101783089D01*
X142659762Y-101822258D01*
X142655617Y-101881858D01*
X142654615Y-101971200D01*
X142519064Y-101971200D01*
X142518167Y-101866320D01*
X142517919Y-101720289D01*
X142517846Y-101266963D01*
X142581346Y-101293564D01*
X142598136Y-101300845D01*
X142624859Y-101317287D01*
X142640156Y-101342187D01*
X142648563Y-101385732D01*
X142654615Y-101458106D01*
X142660144Y-101523089D01*
X142667450Y-101565750D01*
X142677918Y-101581670D01*
X142693692Y-101577400D01*
X142733890Y-101562397D01*
X142805728Y-101558678D01*
X142883010Y-101572572D01*
X142949688Y-101602505D01*
X142986371Y-101630211D01*
X143033472Y-101684269D01*
X143063638Y-101753577D01*
X143079678Y-101845765D01*
X143084191Y-101962986D01*
X143084401Y-101968462D01*
X143082839Y-102044652D01*
G37*
X143082839Y-102044652D02*
X143071810Y-102148507D01*
X143047814Y-102226333D01*
X143008043Y-102285760D01*
X142949688Y-102334418D01*
X142894100Y-102362546D01*
X142800751Y-102378199D01*
X142707530Y-102361084D01*
X142623272Y-102313388D01*
X142556818Y-102237294D01*
X142548793Y-102223262D01*
X142538196Y-102198679D01*
X142530335Y-102167309D01*
X142524807Y-102123769D01*
X142521206Y-102062678D01*
X142519128Y-101978655D01*
X142519064Y-101971200D01*
X142654615Y-101971200D01*
X142655077Y-102042316D01*
X142657999Y-102106641D01*
X142665221Y-102148166D01*
X142678561Y-102176067D01*
X142699836Y-102199517D01*
X142704821Y-102204025D01*
X142768863Y-102237295D01*
X142836625Y-102233890D01*
X142899734Y-102194042D01*
X142918526Y-102173398D01*
X142934254Y-102146029D01*
X142943039Y-102108192D01*
X142946859Y-102050355D01*
X142947692Y-101962986D01*
X142947281Y-101896319D01*
X142944434Y-101831245D01*
X142937256Y-101789251D01*
X142923889Y-101761063D01*
X142902472Y-101737406D01*
X142889890Y-101726753D01*
X142824699Y-101698057D01*
X142756400Y-101702575D01*
X142697098Y-101740144D01*
X142684333Y-101755040D01*
X142668764Y-101783089D01*
X142659762Y-101822258D01*
X142655617Y-101881858D01*
X142654615Y-101971200D01*
X142519064Y-101971200D01*
X142518167Y-101866320D01*
X142517919Y-101720289D01*
X142517846Y-101266963D01*
X142581346Y-101293564D01*
X142598136Y-101300845D01*
X142624859Y-101317287D01*
X142640156Y-101342187D01*
X142648563Y-101385732D01*
X142654615Y-101458106D01*
X142660144Y-101523089D01*
X142667450Y-101565750D01*
X142677918Y-101581670D01*
X142693692Y-101577400D01*
X142733890Y-101562397D01*
X142805728Y-101558678D01*
X142883010Y-101572572D01*
X142949688Y-101602505D01*
X142986371Y-101630211D01*
X143033472Y-101684269D01*
X143063638Y-101753577D01*
X143079678Y-101845765D01*
X143084191Y-101962986D01*
X143084401Y-101968462D01*
X143082839Y-102044652D01*
G36*
X140270413Y-102024449D02*
G01*
X140265641Y-102127047D01*
X140253150Y-102202126D01*
X140230121Y-102257748D01*
X140193732Y-102301975D01*
X140141162Y-102342869D01*
X140107714Y-102361466D01*
X140054098Y-102373991D01*
X139978780Y-102373003D01*
X139936672Y-102369035D01*
X139885879Y-102356920D01*
X139845280Y-102330585D01*
X139798049Y-102281514D01*
X139791738Y-102274346D01*
X139749277Y-102219189D01*
X139729018Y-102171150D01*
X139723846Y-102114184D01*
X139723846Y-102030471D01*
X139782346Y-102052552D01*
X139824994Y-102078364D01*
X139862064Y-102138928D01*
X139869803Y-102158320D01*
X139913074Y-102213235D01*
X139971976Y-102240879D01*
X140036111Y-102238393D01*
X140095077Y-102202923D01*
X140115342Y-102180805D01*
X140133720Y-102147436D01*
X140127971Y-102117117D01*
X140094887Y-102085913D01*
X140031261Y-102049887D01*
X139933885Y-102005103D01*
X139733615Y-101917445D01*
X139728301Y-101830607D01*
X139730299Y-101775296D01*
X139860783Y-101775296D01*
X139870688Y-101809538D01*
X139915756Y-101846096D01*
X139997557Y-101887692D01*
X140011092Y-101893718D01*
X140075818Y-101921753D01*
X140124247Y-101941472D01*
X140146751Y-101948923D01*
X140150161Y-101943438D01*
X140151529Y-101909948D01*
X140146651Y-101856116D01*
X140134364Y-101803473D01*
X140096041Y-101737151D01*
X140040720Y-101699780D01*
X139974640Y-101694721D01*
X139904040Y-101725339D01*
X139884474Y-101740648D01*
X139860783Y-101775296D01*
X139730299Y-101775296D01*
X139730647Y-101765663D01*
X139760186Y-101683590D01*
X139797472Y-101638361D01*
X139874776Y-101587838D01*
X139966478Y-101562316D01*
X140061274Y-101564336D01*
X140147859Y-101596440D01*
X140166920Y-101608767D01*
X140210640Y-101646912D01*
X140240540Y-101695167D01*
X140258968Y-101760710D01*
X140268270Y-101850720D01*
X140269499Y-101909948D01*
X140270794Y-101972376D01*
X140270413Y-102024449D01*
G37*
X140270413Y-102024449D02*
X140265641Y-102127047D01*
X140253150Y-102202126D01*
X140230121Y-102257748D01*
X140193732Y-102301975D01*
X140141162Y-102342869D01*
X140107714Y-102361466D01*
X140054098Y-102373991D01*
X139978780Y-102373003D01*
X139936672Y-102369035D01*
X139885879Y-102356920D01*
X139845280Y-102330585D01*
X139798049Y-102281514D01*
X139791738Y-102274346D01*
X139749277Y-102219189D01*
X139729018Y-102171150D01*
X139723846Y-102114184D01*
X139723846Y-102030471D01*
X139782346Y-102052552D01*
X139824994Y-102078364D01*
X139862064Y-102138928D01*
X139869803Y-102158320D01*
X139913074Y-102213235D01*
X139971976Y-102240879D01*
X140036111Y-102238393D01*
X140095077Y-102202923D01*
X140115342Y-102180805D01*
X140133720Y-102147436D01*
X140127971Y-102117117D01*
X140094887Y-102085913D01*
X140031261Y-102049887D01*
X139933885Y-102005103D01*
X139733615Y-101917445D01*
X139728301Y-101830607D01*
X139730299Y-101775296D01*
X139860783Y-101775296D01*
X139870688Y-101809538D01*
X139915756Y-101846096D01*
X139997557Y-101887692D01*
X140011092Y-101893718D01*
X140075818Y-101921753D01*
X140124247Y-101941472D01*
X140146751Y-101948923D01*
X140150161Y-101943438D01*
X140151529Y-101909948D01*
X140146651Y-101856116D01*
X140134364Y-101803473D01*
X140096041Y-101737151D01*
X140040720Y-101699780D01*
X139974640Y-101694721D01*
X139904040Y-101725339D01*
X139884474Y-101740648D01*
X139860783Y-101775296D01*
X139730299Y-101775296D01*
X139730647Y-101765663D01*
X139760186Y-101683590D01*
X139797472Y-101638361D01*
X139874776Y-101587838D01*
X139966478Y-101562316D01*
X140061274Y-101564336D01*
X140147859Y-101596440D01*
X140166920Y-101608767D01*
X140210640Y-101646912D01*
X140240540Y-101695167D01*
X140258968Y-101760710D01*
X140268270Y-101850720D01*
X140269499Y-101909948D01*
X140270794Y-101972376D01*
X140270413Y-102024449D01*
G36*
X147024574Y-102041643D02*
G01*
X147021066Y-102073021D01*
X146994927Y-102184705D01*
X146947694Y-102269642D01*
X146875862Y-102334741D01*
X146871802Y-102337428D01*
X146780487Y-102375634D01*
X146685144Y-102379034D01*
X146593274Y-102349939D01*
X146512379Y-102290660D01*
X146449962Y-102203510D01*
X146448914Y-102201409D01*
X146428173Y-102147289D01*
X146412980Y-102085781D01*
X146404921Y-102028039D01*
X146405582Y-101985215D01*
X146416548Y-101968462D01*
X146426290Y-101969480D01*
X146472877Y-101988009D01*
X146525682Y-102022081D01*
X146570603Y-102061522D01*
X146593535Y-102096155D01*
X146617373Y-102143133D01*
X146666230Y-102185862D01*
X146722963Y-102202923D01*
X146743758Y-102197990D01*
X146784804Y-102173157D01*
X146820557Y-102138685D01*
X146835846Y-102107411D01*
X146835842Y-102107295D01*
X146818495Y-102092933D01*
X146772247Y-102067025D01*
X146704067Y-102033210D01*
X146620923Y-101995129D01*
X146620466Y-101994927D01*
X146530138Y-101954709D01*
X146469592Y-101925733D01*
X146432888Y-101903474D01*
X146414086Y-101883407D01*
X146407246Y-101861009D01*
X146406429Y-101831756D01*
X146412113Y-101776363D01*
X146605000Y-101776363D01*
X146624911Y-101793777D01*
X146674521Y-101819872D01*
X146675976Y-101820610D01*
X146734506Y-101848483D01*
X146786868Y-101870719D01*
X146820086Y-101880126D01*
X146833410Y-101867552D01*
X146835846Y-101824468D01*
X146825724Y-101770847D01*
X146790631Y-101722119D01*
X146739823Y-101696856D01*
X146683181Y-101699406D01*
X146630584Y-101734120D01*
X146609910Y-101758107D01*
X146605000Y-101776363D01*
X146412113Y-101776363D01*
X146413622Y-101761654D01*
X146449184Y-101666412D01*
X146508714Y-101591567D01*
X146585746Y-101539745D01*
X146673815Y-101513573D01*
X146766454Y-101515676D01*
X146857198Y-101548681D01*
X146939579Y-101615215D01*
X146985222Y-101681055D01*
X147018008Y-101775036D01*
X147023339Y-101824468D01*
X147030787Y-101893536D01*
X147024574Y-102041643D01*
G37*
X147024574Y-102041643D02*
X147021066Y-102073021D01*
X146994927Y-102184705D01*
X146947694Y-102269642D01*
X146875862Y-102334741D01*
X146871802Y-102337428D01*
X146780487Y-102375634D01*
X146685144Y-102379034D01*
X146593274Y-102349939D01*
X146512379Y-102290660D01*
X146449962Y-102203510D01*
X146448914Y-102201409D01*
X146428173Y-102147289D01*
X146412980Y-102085781D01*
X146404921Y-102028039D01*
X146405582Y-101985215D01*
X146416548Y-101968462D01*
X146426290Y-101969480D01*
X146472877Y-101988009D01*
X146525682Y-102022081D01*
X146570603Y-102061522D01*
X146593535Y-102096155D01*
X146617373Y-102143133D01*
X146666230Y-102185862D01*
X146722963Y-102202923D01*
X146743758Y-102197990D01*
X146784804Y-102173157D01*
X146820557Y-102138685D01*
X146835846Y-102107411D01*
X146835842Y-102107295D01*
X146818495Y-102092933D01*
X146772247Y-102067025D01*
X146704067Y-102033210D01*
X146620923Y-101995129D01*
X146620466Y-101994927D01*
X146530138Y-101954709D01*
X146469592Y-101925733D01*
X146432888Y-101903474D01*
X146414086Y-101883407D01*
X146407246Y-101861009D01*
X146406429Y-101831756D01*
X146412113Y-101776363D01*
X146605000Y-101776363D01*
X146624911Y-101793777D01*
X146674521Y-101819872D01*
X146675976Y-101820610D01*
X146734506Y-101848483D01*
X146786868Y-101870719D01*
X146820086Y-101880126D01*
X146833410Y-101867552D01*
X146835846Y-101824468D01*
X146825724Y-101770847D01*
X146790631Y-101722119D01*
X146739823Y-101696856D01*
X146683181Y-101699406D01*
X146630584Y-101734120D01*
X146609910Y-101758107D01*
X146605000Y-101776363D01*
X146412113Y-101776363D01*
X146413622Y-101761654D01*
X146449184Y-101666412D01*
X146508714Y-101591567D01*
X146585746Y-101539745D01*
X146673815Y-101513573D01*
X146766454Y-101515676D01*
X146857198Y-101548681D01*
X146939579Y-101615215D01*
X146985222Y-101681055D01*
X147018008Y-101775036D01*
X147023339Y-101824468D01*
X147030787Y-101893536D01*
X147024574Y-102041643D01*
G36*
X146046372Y-101521684D02*
G01*
X146137629Y-101564569D01*
X146212416Y-101638729D01*
X146227917Y-101661944D01*
X146240774Y-101688256D01*
X146249893Y-101721420D01*
X146256102Y-101767881D01*
X146260233Y-101834082D01*
X146263116Y-101926468D01*
X146265579Y-102051485D01*
X146271697Y-102398278D01*
X146220303Y-102378738D01*
X146173246Y-102360787D01*
X146138015Y-102343511D01*
X146115017Y-102321242D01*
X146101655Y-102287165D01*
X146095328Y-102234463D01*
X146093437Y-102156323D01*
X146093385Y-102045928D01*
X146093117Y-101957935D01*
X146091521Y-101873502D01*
X146087712Y-101815834D01*
X146080820Y-101777988D01*
X146069975Y-101753024D01*
X146054308Y-101734000D01*
X146015792Y-101707153D01*
X145951091Y-101697034D01*
X145887081Y-101722606D01*
X145882856Y-101725880D01*
X145869689Y-101741007D01*
X145859975Y-101765268D01*
X145852903Y-101804650D01*
X145847656Y-101865141D01*
X145843421Y-101952729D01*
X145839385Y-102073402D01*
X145829615Y-102396515D01*
X145663539Y-102322065D01*
X145663539Y-102027062D01*
X145663883Y-101946919D01*
X145666847Y-101835431D01*
X145674351Y-101752421D01*
X145688190Y-101691199D01*
X145710155Y-101645075D01*
X145742039Y-101607358D01*
X145785633Y-101571358D01*
X145848336Y-101535089D01*
X145947117Y-101511412D01*
X146046372Y-101521684D01*
G37*
X146046372Y-101521684D02*
X146137629Y-101564569D01*
X146212416Y-101638729D01*
X146227917Y-101661944D01*
X146240774Y-101688256D01*
X146249893Y-101721420D01*
X146256102Y-101767881D01*
X146260233Y-101834082D01*
X146263116Y-101926468D01*
X146265579Y-102051485D01*
X146271697Y-102398278D01*
X146220303Y-102378738D01*
X146173246Y-102360787D01*
X146138015Y-102343511D01*
X146115017Y-102321242D01*
X146101655Y-102287165D01*
X146095328Y-102234463D01*
X146093437Y-102156323D01*
X146093385Y-102045928D01*
X146093117Y-101957935D01*
X146091521Y-101873502D01*
X146087712Y-101815834D01*
X146080820Y-101777988D01*
X146069975Y-101753024D01*
X146054308Y-101734000D01*
X146015792Y-101707153D01*
X145951091Y-101697034D01*
X145887081Y-101722606D01*
X145882856Y-101725880D01*
X145869689Y-101741007D01*
X145859975Y-101765268D01*
X145852903Y-101804650D01*
X145847656Y-101865141D01*
X145843421Y-101952729D01*
X145839385Y-102073402D01*
X145829615Y-102396515D01*
X145663539Y-102322065D01*
X145663539Y-102027062D01*
X145663883Y-101946919D01*
X145666847Y-101835431D01*
X145674351Y-101752421D01*
X145688190Y-101691199D01*
X145710155Y-101645075D01*
X145742039Y-101607358D01*
X145785633Y-101571358D01*
X145848336Y-101535089D01*
X145947117Y-101511412D01*
X146046372Y-101521684D01*
G36*
X147769763Y-102188269D02*
G01*
X147770300Y-102231802D01*
X147772019Y-102377344D01*
X147772365Y-102488711D01*
X147770277Y-102569804D01*
X147764698Y-102624522D01*
X147754567Y-102656761D01*
X147738826Y-102670422D01*
X147716417Y-102669403D01*
X147686280Y-102657603D01*
X147647355Y-102638920D01*
X147639038Y-102634933D01*
X147604402Y-102615419D01*
X147586314Y-102592202D01*
X147579392Y-102553492D01*
X147578256Y-102487497D01*
X147578205Y-102369000D01*
X147456141Y-102369000D01*
X147381055Y-102365712D01*
X147322015Y-102352377D01*
X147272986Y-102325423D01*
X147269330Y-102322788D01*
X147219581Y-102278286D01*
X147184959Y-102224523D01*
X147163123Y-102154154D01*
X147151737Y-102059830D01*
X147148959Y-101953271D01*
X147343846Y-101953271D01*
X147343880Y-101971131D01*
X147345735Y-102051748D01*
X147351693Y-102104447D01*
X147363506Y-102138668D01*
X147382923Y-102163846D01*
X147384133Y-102165049D01*
X147431858Y-102197628D01*
X147478110Y-102194417D01*
X147530350Y-102154965D01*
X147543128Y-102141482D01*
X147561949Y-102113837D01*
X147572562Y-102077880D01*
X147577252Y-102023364D01*
X147578308Y-101940042D01*
X147577394Y-101889598D01*
X147567477Y-101797857D01*
X147544842Y-101737752D01*
X147507238Y-101704900D01*
X147452416Y-101694923D01*
X147429317Y-101697050D01*
X147389350Y-101718147D01*
X147362926Y-101765161D01*
X147348330Y-101842175D01*
X147343846Y-101953271D01*
X147148959Y-101953271D01*
X147148462Y-101934206D01*
X147149187Y-101842536D01*
X147152490Y-101773098D01*
X147159828Y-101724945D01*
X147172655Y-101688866D01*
X147192423Y-101655648D01*
X147210569Y-101630261D01*
X147276461Y-101561727D01*
X147351114Y-101524505D01*
X147444904Y-101512722D01*
X147552240Y-101524467D01*
X147645031Y-101566595D01*
X147718421Y-101640898D01*
X147723954Y-101648764D01*
X147736857Y-101669668D01*
X147746742Y-101693555D01*
X147754093Y-101725582D01*
X147759394Y-101770905D01*
X147763127Y-101834679D01*
X147765778Y-101922060D01*
X147766096Y-101940042D01*
X147767828Y-102038205D01*
X147769763Y-102188269D01*
G37*
X147769763Y-102188269D02*
X147770300Y-102231802D01*
X147772019Y-102377344D01*
X147772365Y-102488711D01*
X147770277Y-102569804D01*
X147764698Y-102624522D01*
X147754567Y-102656761D01*
X147738826Y-102670422D01*
X147716417Y-102669403D01*
X147686280Y-102657603D01*
X147647355Y-102638920D01*
X147639038Y-102634933D01*
X147604402Y-102615419D01*
X147586314Y-102592202D01*
X147579392Y-102553492D01*
X147578256Y-102487497D01*
X147578205Y-102369000D01*
X147456141Y-102369000D01*
X147381055Y-102365712D01*
X147322015Y-102352377D01*
X147272986Y-102325423D01*
X147269330Y-102322788D01*
X147219581Y-102278286D01*
X147184959Y-102224523D01*
X147163123Y-102154154D01*
X147151737Y-102059830D01*
X147148959Y-101953271D01*
X147343846Y-101953271D01*
X147343880Y-101971131D01*
X147345735Y-102051748D01*
X147351693Y-102104447D01*
X147363506Y-102138668D01*
X147382923Y-102163846D01*
X147384133Y-102165049D01*
X147431858Y-102197628D01*
X147478110Y-102194417D01*
X147530350Y-102154965D01*
X147543128Y-102141482D01*
X147561949Y-102113837D01*
X147572562Y-102077880D01*
X147577252Y-102023364D01*
X147578308Y-101940042D01*
X147577394Y-101889598D01*
X147567477Y-101797857D01*
X147544842Y-101737752D01*
X147507238Y-101704900D01*
X147452416Y-101694923D01*
X147429317Y-101697050D01*
X147389350Y-101718147D01*
X147362926Y-101765161D01*
X147348330Y-101842175D01*
X147343846Y-101953271D01*
X147148959Y-101953271D01*
X147148462Y-101934206D01*
X147149187Y-101842536D01*
X147152490Y-101773098D01*
X147159828Y-101724945D01*
X147172655Y-101688866D01*
X147192423Y-101655648D01*
X147210569Y-101630261D01*
X147276461Y-101561727D01*
X147351114Y-101524505D01*
X147444904Y-101512722D01*
X147552240Y-101524467D01*
X147645031Y-101566595D01*
X147718421Y-101640898D01*
X147723954Y-101648764D01*
X147736857Y-101669668D01*
X147746742Y-101693555D01*
X147754093Y-101725582D01*
X147759394Y-101770905D01*
X147763127Y-101834679D01*
X147765778Y-101922060D01*
X147766096Y-101940042D01*
X147767828Y-102038205D01*
X147769763Y-102188269D01*
G36*
X144137575Y-95227693D02*
G01*
X144273371Y-95227807D01*
X144375576Y-95228472D01*
X144449122Y-95230182D01*
X144498942Y-95233429D01*
X144529967Y-95238706D01*
X144547129Y-95246507D01*
X144555361Y-95257325D01*
X144559594Y-95271654D01*
X144559716Y-95272168D01*
X144566672Y-95305851D01*
X144579320Y-95370917D01*
X144596360Y-95460542D01*
X144616496Y-95567904D01*
X144638429Y-95686178D01*
X144640218Y-95695856D01*
X144662083Y-95810650D01*
X144682430Y-95911480D01*
X144699934Y-95992217D01*
X144713271Y-96046734D01*
X144721116Y-96068901D01*
X144721158Y-96068936D01*
X144745884Y-96081200D01*
X144796631Y-96101576D01*
X144862462Y-96125674D01*
X144866169Y-96126983D01*
X144950331Y-96158791D01*
X145048230Y-96198685D01*
X145139435Y-96238353D01*
X145289407Y-96306420D01*
X145621499Y-96079639D01*
X145644889Y-96063688D01*
X145745080Y-95995890D01*
X145834480Y-95936208D01*
X145907745Y-95888156D01*
X145959527Y-95855250D01*
X145984480Y-95841004D01*
X146001577Y-95844270D01*
X146040395Y-95869571D01*
X146100385Y-95919675D01*
X146183210Y-95995989D01*
X146290535Y-96099922D01*
X146300139Y-96109382D01*
X146385302Y-96194145D01*
X146460949Y-96270937D01*
X146522449Y-96334947D01*
X146565173Y-96381361D01*
X146584489Y-96405369D01*
X146584552Y-96405485D01*
X146587006Y-96423763D01*
X146577956Y-96453411D01*
X146555119Y-96498486D01*
X146516213Y-96563044D01*
X146458954Y-96651140D01*
X146381059Y-96766830D01*
X146367785Y-96786357D01*
X146300652Y-96885278D01*
X146241410Y-96972848D01*
X146193588Y-97043831D01*
X146160715Y-97092991D01*
X146146318Y-97115095D01*
X146145232Y-97119777D01*
X146152044Y-97154710D01*
X146172450Y-97211753D01*
X146203123Y-97281172D01*
X146244808Y-97371959D01*
X146291352Y-97479686D01*
X146330877Y-97577192D01*
X146340676Y-97602430D01*
X146366340Y-97666870D01*
X146385193Y-97711763D01*
X146393710Y-97728616D01*
X146403111Y-97729875D01*
X146445363Y-97737159D01*
X146514521Y-97749739D01*
X146603387Y-97766246D01*
X146704768Y-97785312D01*
X146811467Y-97805569D01*
X146916288Y-97825647D01*
X147012036Y-97844179D01*
X147091516Y-97859795D01*
X147147530Y-97871127D01*
X147172885Y-97876807D01*
X147177088Y-97878408D01*
X147187334Y-97887045D01*
X147194957Y-97905433D01*
X147200338Y-97938460D01*
X147203859Y-97991013D01*
X147205901Y-98067979D01*
X147206847Y-98174246D01*
X147207077Y-98314701D01*
X147207077Y-98741845D01*
X147104500Y-98762091D01*
X147092092Y-98764518D01*
X147026199Y-98777088D01*
X146935084Y-98794170D01*
X146829104Y-98813829D01*
X146718615Y-98834132D01*
X146675105Y-98842299D01*
X146577882Y-98862167D01*
X146496858Y-98880954D01*
X146439477Y-98896859D01*
X146413187Y-98908079D01*
X146401273Y-98926411D01*
X146379583Y-98974916D01*
X146357395Y-99037692D01*
X146349585Y-99061200D01*
X146320835Y-99138366D01*
X146283752Y-99229694D01*
X146244375Y-99320093D01*
X146223315Y-99367310D01*
X146193311Y-99437837D01*
X146172692Y-99490655D01*
X146165026Y-99516912D01*
X146165452Y-99518894D01*
X146179993Y-99546751D01*
X146212783Y-99600510D01*
X146260493Y-99674963D01*
X146319798Y-99764897D01*
X146387369Y-99865104D01*
X146609713Y-100191416D01*
X146317601Y-100484016D01*
X146289349Y-100512171D01*
X146202961Y-100596449D01*
X146125756Y-100669128D01*
X146062258Y-100726112D01*
X146016990Y-100763307D01*
X145994474Y-100776616D01*
X145970023Y-100766490D01*
X145918819Y-100737421D01*
X145846747Y-100692896D01*
X145759460Y-100636411D01*
X145662612Y-100571462D01*
X145567486Y-100507314D01*
X145481669Y-100450827D01*
X145411652Y-100406184D01*
X145362876Y-100376855D01*
X145340783Y-100366308D01*
X145339488Y-100366404D01*
X145310139Y-100376802D01*
X145258093Y-100401012D01*
X145193708Y-100434249D01*
X145193032Y-100434613D01*
X145107521Y-100477441D01*
X145048926Y-100498365D01*
X145012571Y-100498423D01*
X144993775Y-100478654D01*
X144985819Y-100459195D01*
X144964347Y-100407080D01*
X144931273Y-100326964D01*
X144888356Y-100223107D01*
X144837356Y-100099767D01*
X144780033Y-99961201D01*
X144718146Y-99811670D01*
X144662052Y-99675636D01*
X144604977Y-99536050D01*
X144554479Y-99411315D01*
X144512254Y-99305672D01*
X144479995Y-99223365D01*
X144459397Y-99168635D01*
X144452154Y-99145726D01*
X144465986Y-99124718D01*
X144504412Y-99089642D01*
X144558807Y-99048887D01*
X144689395Y-98942267D01*
X144806260Y-98806025D01*
X144891780Y-98656118D01*
X144945431Y-98496971D01*
X144966684Y-98333012D01*
X144955014Y-98168667D01*
X144909894Y-98008361D01*
X144830797Y-97856520D01*
X144717197Y-97717572D01*
X144657965Y-97663460D01*
X144516054Y-97567782D01*
X144364206Y-97505405D01*
X144206861Y-97474844D01*
X144048456Y-97474615D01*
X143893429Y-97503232D01*
X143746220Y-97559210D01*
X143611266Y-97641064D01*
X143493005Y-97747309D01*
X143395877Y-97876459D01*
X143324318Y-98027031D01*
X143282769Y-98197539D01*
X143275143Y-98279722D01*
X143285634Y-98457775D01*
X143332882Y-98626704D01*
X143415489Y-98783522D01*
X143532059Y-98925245D01*
X143681193Y-99048887D01*
X143733561Y-99087982D01*
X143772832Y-99123443D01*
X143787846Y-99145692D01*
X143781859Y-99165088D01*
X143762432Y-99217059D01*
X143731194Y-99297002D01*
X143689839Y-99400673D01*
X143640061Y-99523832D01*
X143583553Y-99662234D01*
X143522009Y-99811637D01*
X143466008Y-99947020D01*
X143408184Y-100086852D01*
X143356500Y-100211872D01*
X143312718Y-100317822D01*
X143278597Y-100400441D01*
X143255898Y-100455472D01*
X143246380Y-100478654D01*
X143246269Y-100478928D01*
X143227228Y-100498503D01*
X143190694Y-100498279D01*
X143131954Y-100477210D01*
X143046292Y-100434249D01*
X143039549Y-100430631D01*
X142975938Y-100398087D01*
X142925707Y-100375050D01*
X142899218Y-100366308D01*
X142877506Y-100376639D01*
X142828984Y-100405788D01*
X142759163Y-100450287D01*
X142673484Y-100506668D01*
X142577388Y-100571462D01*
X142482706Y-100634984D01*
X142395132Y-100691705D01*
X142322642Y-100736547D01*
X142270889Y-100766016D01*
X142245526Y-100776616D01*
X142241206Y-100775270D01*
X142211092Y-100754056D01*
X142159640Y-100710237D01*
X142091375Y-100647909D01*
X142010820Y-100571170D01*
X141922500Y-100484116D01*
X141630488Y-100191617D01*
X142085360Y-99522525D01*
X142016208Y-99372916D01*
X142016003Y-99372473D01*
X141974477Y-99277101D01*
X141932044Y-99170896D01*
X141897858Y-99076769D01*
X141892684Y-99061588D01*
X141866601Y-98991109D01*
X141843081Y-98936342D01*
X141826677Y-98908079D01*
X141819996Y-98904088D01*
X141779892Y-98890697D01*
X141711795Y-98873373D01*
X141623145Y-98853917D01*
X141521385Y-98834132D01*
X141490904Y-98828551D01*
X141380628Y-98808233D01*
X141277731Y-98789095D01*
X141192569Y-98773070D01*
X141135500Y-98762091D01*
X141032923Y-98741845D01*
X141032923Y-98314701D01*
X141032946Y-98262180D01*
X141033379Y-98134047D01*
X141034659Y-98038420D01*
X141037168Y-97970411D01*
X141041286Y-97925133D01*
X141047395Y-97897697D01*
X141055878Y-97883218D01*
X141067115Y-97876807D01*
X141077994Y-97874209D01*
X141122347Y-97865022D01*
X141193106Y-97850991D01*
X141283074Y-97833486D01*
X141385056Y-97813874D01*
X141491857Y-97793525D01*
X141596281Y-97773807D01*
X141691132Y-97756089D01*
X141769214Y-97741738D01*
X141823332Y-97732124D01*
X141846291Y-97728616D01*
X141847842Y-97726497D01*
X141860325Y-97699006D01*
X141881927Y-97646406D01*
X141909123Y-97577192D01*
X141946866Y-97483937D01*
X141993328Y-97376159D01*
X142036878Y-97281172D01*
X142046858Y-97259851D01*
X142074862Y-97193086D01*
X142091641Y-97141590D01*
X142093854Y-97115095D01*
X142092713Y-97113218D01*
X142074584Y-97085565D01*
X142038644Y-97031849D01*
X141988418Y-96957303D01*
X141927430Y-96867162D01*
X141859205Y-96766657D01*
X141782330Y-96652470D01*
X141724663Y-96563770D01*
X141685426Y-96498721D01*
X141662350Y-96453295D01*
X141653166Y-96423463D01*
X141655604Y-96405195D01*
X141656424Y-96403825D01*
X141678477Y-96377205D01*
X141723436Y-96328697D01*
X141786673Y-96263108D01*
X141863559Y-96185247D01*
X141949465Y-96099922D01*
X142038579Y-96013334D01*
X142125872Y-95931947D01*
X142190018Y-95877035D01*
X142232679Y-95847190D01*
X142255521Y-95841004D01*
X142258505Y-95842394D01*
X142289936Y-95861127D01*
X142346997Y-95897733D01*
X142424343Y-95948697D01*
X142516626Y-96010504D01*
X142618502Y-96079639D01*
X142950593Y-96306420D01*
X143100566Y-96238353D01*
X143104923Y-96236381D01*
X143197000Y-96196491D01*
X143294683Y-96156818D01*
X143377539Y-96125674D01*
X143377905Y-96125545D01*
X143443685Y-96101456D01*
X143494323Y-96081110D01*
X143518884Y-96068901D01*
X143519282Y-96068458D01*
X143527619Y-96043456D01*
X143541341Y-95986598D01*
X143559123Y-95904014D01*
X143579641Y-95801831D01*
X143601571Y-95686178D01*
X143602336Y-95682033D01*
X143624229Y-95564019D01*
X143644281Y-95457151D01*
X143661192Y-95368252D01*
X143673667Y-95304145D01*
X143680406Y-95271654D01*
X143680837Y-95269853D01*
X143685273Y-95255944D01*
X143694263Y-95245489D01*
X143712737Y-95237996D01*
X143745628Y-95232972D01*
X143797868Y-95229922D01*
X143874388Y-95228355D01*
X143980122Y-95227776D01*
X144120000Y-95227692D01*
X144137575Y-95227693D01*
G37*
X144137575Y-95227693D02*
X144273371Y-95227807D01*
X144375576Y-95228472D01*
X144449122Y-95230182D01*
X144498942Y-95233429D01*
X144529967Y-95238706D01*
X144547129Y-95246507D01*
X144555361Y-95257325D01*
X144559594Y-95271654D01*
X144559716Y-95272168D01*
X144566672Y-95305851D01*
X144579320Y-95370917D01*
X144596360Y-95460542D01*
X144616496Y-95567904D01*
X144638429Y-95686178D01*
X144640218Y-95695856D01*
X144662083Y-95810650D01*
X144682430Y-95911480D01*
X144699934Y-95992217D01*
X144713271Y-96046734D01*
X144721116Y-96068901D01*
X144721158Y-96068936D01*
X144745884Y-96081200D01*
X144796631Y-96101576D01*
X144862462Y-96125674D01*
X144866169Y-96126983D01*
X144950331Y-96158791D01*
X145048230Y-96198685D01*
X145139435Y-96238353D01*
X145289407Y-96306420D01*
X145621499Y-96079639D01*
X145644889Y-96063688D01*
X145745080Y-95995890D01*
X145834480Y-95936208D01*
X145907745Y-95888156D01*
X145959527Y-95855250D01*
X145984480Y-95841004D01*
X146001577Y-95844270D01*
X146040395Y-95869571D01*
X146100385Y-95919675D01*
X146183210Y-95995989D01*
X146290535Y-96099922D01*
X146300139Y-96109382D01*
X146385302Y-96194145D01*
X146460949Y-96270937D01*
X146522449Y-96334947D01*
X146565173Y-96381361D01*
X146584489Y-96405369D01*
X146584552Y-96405485D01*
X146587006Y-96423763D01*
X146577956Y-96453411D01*
X146555119Y-96498486D01*
X146516213Y-96563044D01*
X146458954Y-96651140D01*
X146381059Y-96766830D01*
X146367785Y-96786357D01*
X146300652Y-96885278D01*
X146241410Y-96972848D01*
X146193588Y-97043831D01*
X146160715Y-97092991D01*
X146146318Y-97115095D01*
X146145232Y-97119777D01*
X146152044Y-97154710D01*
X146172450Y-97211753D01*
X146203123Y-97281172D01*
X146244808Y-97371959D01*
X146291352Y-97479686D01*
X146330877Y-97577192D01*
X146340676Y-97602430D01*
X146366340Y-97666870D01*
X146385193Y-97711763D01*
X146393710Y-97728616D01*
X146403111Y-97729875D01*
X146445363Y-97737159D01*
X146514521Y-97749739D01*
X146603387Y-97766246D01*
X146704768Y-97785312D01*
X146811467Y-97805569D01*
X146916288Y-97825647D01*
X147012036Y-97844179D01*
X147091516Y-97859795D01*
X147147530Y-97871127D01*
X147172885Y-97876807D01*
X147177088Y-97878408D01*
X147187334Y-97887045D01*
X147194957Y-97905433D01*
X147200338Y-97938460D01*
X147203859Y-97991013D01*
X147205901Y-98067979D01*
X147206847Y-98174246D01*
X147207077Y-98314701D01*
X147207077Y-98741845D01*
X147104500Y-98762091D01*
X147092092Y-98764518D01*
X147026199Y-98777088D01*
X146935084Y-98794170D01*
X146829104Y-98813829D01*
X146718615Y-98834132D01*
X146675105Y-98842299D01*
X146577882Y-98862167D01*
X146496858Y-98880954D01*
X146439477Y-98896859D01*
X146413187Y-98908079D01*
X146401273Y-98926411D01*
X146379583Y-98974916D01*
X146357395Y-99037692D01*
X146349585Y-99061200D01*
X146320835Y-99138366D01*
X146283752Y-99229694D01*
X146244375Y-99320093D01*
X146223315Y-99367310D01*
X146193311Y-99437837D01*
X146172692Y-99490655D01*
X146165026Y-99516912D01*
X146165452Y-99518894D01*
X146179993Y-99546751D01*
X146212783Y-99600510D01*
X146260493Y-99674963D01*
X146319798Y-99764897D01*
X146387369Y-99865104D01*
X146609713Y-100191416D01*
X146317601Y-100484016D01*
X146289349Y-100512171D01*
X146202961Y-100596449D01*
X146125756Y-100669128D01*
X146062258Y-100726112D01*
X146016990Y-100763307D01*
X145994474Y-100776616D01*
X145970023Y-100766490D01*
X145918819Y-100737421D01*
X145846747Y-100692896D01*
X145759460Y-100636411D01*
X145662612Y-100571462D01*
X145567486Y-100507314D01*
X145481669Y-100450827D01*
X145411652Y-100406184D01*
X145362876Y-100376855D01*
X145340783Y-100366308D01*
X145339488Y-100366404D01*
X145310139Y-100376802D01*
X145258093Y-100401012D01*
X145193708Y-100434249D01*
X145193032Y-100434613D01*
X145107521Y-100477441D01*
X145048926Y-100498365D01*
X145012571Y-100498423D01*
X144993775Y-100478654D01*
X144985819Y-100459195D01*
X144964347Y-100407080D01*
X144931273Y-100326964D01*
X144888356Y-100223107D01*
X144837356Y-100099767D01*
X144780033Y-99961201D01*
X144718146Y-99811670D01*
X144662052Y-99675636D01*
X144604977Y-99536050D01*
X144554479Y-99411315D01*
X144512254Y-99305672D01*
X144479995Y-99223365D01*
X144459397Y-99168635D01*
X144452154Y-99145726D01*
X144465986Y-99124718D01*
X144504412Y-99089642D01*
X144558807Y-99048887D01*
X144689395Y-98942267D01*
X144806260Y-98806025D01*
X144891780Y-98656118D01*
X144945431Y-98496971D01*
X144966684Y-98333012D01*
X144955014Y-98168667D01*
X144909894Y-98008361D01*
X144830797Y-97856520D01*
X144717197Y-97717572D01*
X144657965Y-97663460D01*
X144516054Y-97567782D01*
X144364206Y-97505405D01*
X144206861Y-97474844D01*
X144048456Y-97474615D01*
X143893429Y-97503232D01*
X143746220Y-97559210D01*
X143611266Y-97641064D01*
X143493005Y-97747309D01*
X143395877Y-97876459D01*
X143324318Y-98027031D01*
X143282769Y-98197539D01*
X143275143Y-98279722D01*
X143285634Y-98457775D01*
X143332882Y-98626704D01*
X143415489Y-98783522D01*
X143532059Y-98925245D01*
X143681193Y-99048887D01*
X143733561Y-99087982D01*
X143772832Y-99123443D01*
X143787846Y-99145692D01*
X143781859Y-99165088D01*
X143762432Y-99217059D01*
X143731194Y-99297002D01*
X143689839Y-99400673D01*
X143640061Y-99523832D01*
X143583553Y-99662234D01*
X143522009Y-99811637D01*
X143466008Y-99947020D01*
X143408184Y-100086852D01*
X143356500Y-100211872D01*
X143312718Y-100317822D01*
X143278597Y-100400441D01*
X143255898Y-100455472D01*
X143246380Y-100478654D01*
X143246269Y-100478928D01*
X143227228Y-100498503D01*
X143190694Y-100498279D01*
X143131954Y-100477210D01*
X143046292Y-100434249D01*
X143039549Y-100430631D01*
X142975938Y-100398087D01*
X142925707Y-100375050D01*
X142899218Y-100366308D01*
X142877506Y-100376639D01*
X142828984Y-100405788D01*
X142759163Y-100450287D01*
X142673484Y-100506668D01*
X142577388Y-100571462D01*
X142482706Y-100634984D01*
X142395132Y-100691705D01*
X142322642Y-100736547D01*
X142270889Y-100766016D01*
X142245526Y-100776616D01*
X142241206Y-100775270D01*
X142211092Y-100754056D01*
X142159640Y-100710237D01*
X142091375Y-100647909D01*
X142010820Y-100571170D01*
X141922500Y-100484116D01*
X141630488Y-100191617D01*
X142085360Y-99522525D01*
X142016208Y-99372916D01*
X142016003Y-99372473D01*
X141974477Y-99277101D01*
X141932044Y-99170896D01*
X141897858Y-99076769D01*
X141892684Y-99061588D01*
X141866601Y-98991109D01*
X141843081Y-98936342D01*
X141826677Y-98908079D01*
X141819996Y-98904088D01*
X141779892Y-98890697D01*
X141711795Y-98873373D01*
X141623145Y-98853917D01*
X141521385Y-98834132D01*
X141490904Y-98828551D01*
X141380628Y-98808233D01*
X141277731Y-98789095D01*
X141192569Y-98773070D01*
X141135500Y-98762091D01*
X141032923Y-98741845D01*
X141032923Y-98314701D01*
X141032946Y-98262180D01*
X141033379Y-98134047D01*
X141034659Y-98038420D01*
X141037168Y-97970411D01*
X141041286Y-97925133D01*
X141047395Y-97897697D01*
X141055878Y-97883218D01*
X141067115Y-97876807D01*
X141077994Y-97874209D01*
X141122347Y-97865022D01*
X141193106Y-97850991D01*
X141283074Y-97833486D01*
X141385056Y-97813874D01*
X141491857Y-97793525D01*
X141596281Y-97773807D01*
X141691132Y-97756089D01*
X141769214Y-97741738D01*
X141823332Y-97732124D01*
X141846291Y-97728616D01*
X141847842Y-97726497D01*
X141860325Y-97699006D01*
X141881927Y-97646406D01*
X141909123Y-97577192D01*
X141946866Y-97483937D01*
X141993328Y-97376159D01*
X142036878Y-97281172D01*
X142046858Y-97259851D01*
X142074862Y-97193086D01*
X142091641Y-97141590D01*
X142093854Y-97115095D01*
X142092713Y-97113218D01*
X142074584Y-97085565D01*
X142038644Y-97031849D01*
X141988418Y-96957303D01*
X141927430Y-96867162D01*
X141859205Y-96766657D01*
X141782330Y-96652470D01*
X141724663Y-96563770D01*
X141685426Y-96498721D01*
X141662350Y-96453295D01*
X141653166Y-96423463D01*
X141655604Y-96405195D01*
X141656424Y-96403825D01*
X141678477Y-96377205D01*
X141723436Y-96328697D01*
X141786673Y-96263108D01*
X141863559Y-96185247D01*
X141949465Y-96099922D01*
X142038579Y-96013334D01*
X142125872Y-95931947D01*
X142190018Y-95877035D01*
X142232679Y-95847190D01*
X142255521Y-95841004D01*
X142258505Y-95842394D01*
X142289936Y-95861127D01*
X142346997Y-95897733D01*
X142424343Y-95948697D01*
X142516626Y-96010504D01*
X142618502Y-96079639D01*
X142950593Y-96306420D01*
X143100566Y-96238353D01*
X143104923Y-96236381D01*
X143197000Y-96196491D01*
X143294683Y-96156818D01*
X143377539Y-96125674D01*
X143377905Y-96125545D01*
X143443685Y-96101456D01*
X143494323Y-96081110D01*
X143518884Y-96068901D01*
X143519282Y-96068458D01*
X143527619Y-96043456D01*
X143541341Y-95986598D01*
X143559123Y-95904014D01*
X143579641Y-95801831D01*
X143601571Y-95686178D01*
X143602336Y-95682033D01*
X143624229Y-95564019D01*
X143644281Y-95457151D01*
X143661192Y-95368252D01*
X143673667Y-95304145D01*
X143680406Y-95271654D01*
X143680837Y-95269853D01*
X143685273Y-95255944D01*
X143694263Y-95245489D01*
X143712737Y-95237996D01*
X143745628Y-95232972D01*
X143797868Y-95229922D01*
X143874388Y-95228355D01*
X143980122Y-95227776D01*
X144120000Y-95227692D01*
X144137575Y-95227693D01*
%TD*%
M02*
