%TF.GenerationSoftware,KiCad,Pcbnew,(6.0.9-0)*%
%TF.CreationDate,2023-01-16T20:49:34+01:00*%
%TF.ProjectId,ray2,72617932-2e6b-4696-9361-645f70636258,rev?*%
%TF.SameCoordinates,Original*%
%TF.FileFunction,Legend,Top*%
%TF.FilePolarity,Positive*%
%FSLAX46Y46*%
G04 Gerber Fmt 4.6, Leading zero omitted, Abs format (unit mm)*
G04 Created by KiCad (PCBNEW (6.0.9-0)) date 2023-01-16 20:49:34*
%MOMM*%
%LPD*%
G01*
G04 APERTURE LIST*
%ADD10C,0.120000*%
%ADD11C,0.150000*%
%ADD12C,0.200000*%
G04 APERTURE END LIST*
D10*
X140481587Y-117505659D02*
X140252156Y-117833320D01*
X140366872Y-117669489D02*
X139793465Y-117267986D01*
X139837142Y-117379954D01*
X139853514Y-117472802D01*
X139842580Y-117546531D01*
X140042015Y-116913020D02*
X140290565Y-116558054D01*
X140375171Y-116902143D01*
X140432528Y-116820228D01*
X140498072Y-116784737D01*
X140544496Y-116776551D01*
X140618226Y-116787485D01*
X140754751Y-116883081D01*
X140790242Y-116948624D01*
X140798428Y-116995048D01*
X140787494Y-117068778D01*
X140672779Y-117232608D01*
X140607236Y-117268099D01*
X140560811Y-117276285D01*
X140981434Y-116675573D02*
X141027858Y-116667388D01*
X141036044Y-116713812D01*
X140989620Y-116721998D01*
X140981434Y-116675573D01*
X141036044Y-116713812D01*
X140845022Y-115766207D02*
X140653830Y-116039258D01*
X140907761Y-116257755D01*
X140899575Y-116211331D01*
X140910509Y-116137601D01*
X141006105Y-116001076D01*
X141071648Y-115965585D01*
X141118073Y-115957399D01*
X141191802Y-115968333D01*
X141328327Y-116063929D01*
X141363818Y-116129472D01*
X141372004Y-116175896D01*
X141361071Y-116249626D01*
X141265475Y-116386151D01*
X141199931Y-116421642D01*
X141153507Y-116429828D01*
X141189111Y-115681601D02*
X141666978Y-115812745D01*
X141380303Y-115408550D01*
X141920990Y-117414843D02*
X141538719Y-117147174D01*
X141593329Y-117185412D02*
X141585143Y-117138988D01*
X141596076Y-117065259D01*
X141653434Y-116983344D01*
X141718977Y-116947853D01*
X141792707Y-116958786D01*
X142093063Y-117169097D01*
X141792707Y-116958786D02*
X141757216Y-116893243D01*
X141768149Y-116819513D01*
X141825507Y-116737598D01*
X141891050Y-116702107D01*
X141964780Y-116713040D01*
X142265136Y-116923352D01*
X142628401Y-116404556D02*
X142328045Y-116194244D01*
X142254315Y-116183311D01*
X142188772Y-116218802D01*
X142112295Y-116328022D01*
X142101362Y-116401751D01*
X142601096Y-116385436D02*
X142590162Y-116459166D01*
X142494566Y-116595691D01*
X142429023Y-116631182D01*
X142355293Y-116620249D01*
X142300683Y-116582010D01*
X142265192Y-116516467D01*
X142276126Y-116442737D01*
X142371722Y-116306212D01*
X142382655Y-116232483D01*
X142781354Y-116186115D02*
X142609395Y-115618090D01*
X142399083Y-115918446D02*
X142991666Y-115885759D01*
X143090009Y-115629080D02*
X143136434Y-115620894D01*
X143144619Y-115667319D01*
X143098195Y-115675505D01*
X143090009Y-115629080D01*
X143144619Y-115667319D01*
X145240000Y-116893333D02*
X145273333Y-116860000D01*
X145340000Y-116826666D01*
X145506666Y-116826666D01*
X145573333Y-116860000D01*
X145606666Y-116893333D01*
X145640000Y-116960000D01*
X145640000Y-117026666D01*
X145606666Y-117126666D01*
X145206666Y-117526666D01*
X145640000Y-117526666D01*
X143300000Y-117526666D02*
X142900000Y-117526666D01*
X143100000Y-117526666D02*
X143100000Y-116826666D01*
X143033333Y-116926666D01*
X142966666Y-116993333D01*
X142900000Y-117026666D01*
X148126666Y-116816666D02*
X148560000Y-116816666D01*
X148326666Y-117083333D01*
X148426666Y-117083333D01*
X148493333Y-117116666D01*
X148526666Y-117150000D01*
X148560000Y-117216666D01*
X148560000Y-117383333D01*
X148526666Y-117450000D01*
X148493333Y-117483333D01*
X148426666Y-117516666D01*
X148226666Y-117516666D01*
X148160000Y-117483333D01*
X148126666Y-117450000D01*
X132506666Y-103876666D02*
X132506666Y-103176666D01*
X132773333Y-103176666D01*
X132840000Y-103210000D01*
X132873333Y-103243333D01*
X132906666Y-103310000D01*
X132906666Y-103410000D01*
X132873333Y-103476666D01*
X132840000Y-103510000D01*
X132773333Y-103543333D01*
X132506666Y-103543333D01*
D11*
X136750000Y-112500000D02*
X135750000Y-112500000D01*
X144000000Y-114000000D02*
X144750000Y-113000000D01*
X149250000Y-112750000D02*
X149250000Y-120000000D01*
X140500000Y-115500000D02*
X140500000Y-112500000D01*
X134250000Y-112500000D02*
X132500000Y-112500000D01*
X140500000Y-112500000D02*
X138250000Y-112500000D01*
X131750000Y-113750000D02*
X131750000Y-119750000D01*
X140750000Y-119750000D02*
X140750000Y-117750000D01*
X140750000Y-117750000D02*
X142250000Y-115750000D01*
X136750000Y-120000000D02*
X140500000Y-115500000D01*
D10*
X148170933Y-109391400D02*
X148704266Y-109391400D01*
X148437600Y-109658066D02*
X148437600Y-109124733D01*
X148133333Y-107118066D02*
X148133333Y-106418066D01*
X148300000Y-106418066D01*
X148400000Y-106451400D01*
X148466666Y-106518066D01*
X148500000Y-106584733D01*
X148533333Y-106718066D01*
X148533333Y-106818066D01*
X148500000Y-106951400D01*
X148466666Y-107018066D01*
X148400000Y-107084733D01*
X148300000Y-107118066D01*
X148133333Y-107118066D01*
X148833333Y-106851400D02*
X149366666Y-106851400D01*
X149100000Y-107118066D02*
X149100000Y-106584733D01*
X145283333Y-104516666D02*
X145050000Y-104183333D01*
X144883333Y-104516666D02*
X144883333Y-103816666D01*
X145150000Y-103816666D01*
X145216666Y-103850000D01*
X145250000Y-103883333D01*
X145283333Y-103950000D01*
X145283333Y-104050000D01*
X145250000Y-104116666D01*
X145216666Y-104150000D01*
X145150000Y-104183333D01*
X144883333Y-104183333D01*
X145516666Y-103816666D02*
X145983333Y-104516666D01*
X145983333Y-103816666D02*
X145516666Y-104516666D01*
X147983333Y-105327400D02*
X148516666Y-105327400D01*
X132506666Y-97236666D02*
X132506666Y-96536666D01*
X132673333Y-96536666D01*
X132773333Y-96570000D01*
X132840000Y-96636666D01*
X132873333Y-96703333D01*
X132906666Y-96836666D01*
X132906666Y-96936666D01*
X132873333Y-97070000D01*
X132840000Y-97136666D01*
X132773333Y-97203333D01*
X132673333Y-97236666D01*
X132506666Y-97236666D01*
D12*
X142684571Y-114661142D02*
X143827428Y-114661142D01*
X143256000Y-115232571D02*
X143256000Y-114089714D01*
D10*
X137266666Y-112116666D02*
X137700000Y-112116666D01*
X137466666Y-112383333D01*
X137566666Y-112383333D01*
X137633333Y-112416666D01*
X137666666Y-112450000D01*
X137700000Y-112516666D01*
X137700000Y-112683333D01*
X137666666Y-112750000D01*
X137633333Y-112783333D01*
X137566666Y-112816666D01*
X137366666Y-112816666D01*
X137300000Y-112783333D01*
X137266666Y-112750000D01*
X132200000Y-112816666D02*
X131800000Y-112816666D01*
X132000000Y-112816666D02*
X132000000Y-112116666D01*
X131933333Y-112216666D01*
X131866666Y-112283333D01*
X131800000Y-112316666D01*
X147466666Y-103816666D02*
X147866666Y-103816666D01*
X147666666Y-104516666D02*
X147666666Y-103816666D01*
X148033333Y-103816666D02*
X148500000Y-104516666D01*
X148500000Y-103816666D02*
X148033333Y-104516666D01*
D12*
X136678571Y-117857142D02*
X137821428Y-117857142D01*
D10*
X134800000Y-112183333D02*
X134833333Y-112150000D01*
X134900000Y-112116666D01*
X135066666Y-112116666D01*
X135133333Y-112150000D01*
X135166666Y-112183333D01*
X135200000Y-112250000D01*
X135200000Y-112316666D01*
X135166666Y-112416666D01*
X134766666Y-112816666D01*
X135200000Y-112816666D01*
X148487600Y-110561400D02*
X148587600Y-110594733D01*
X148620933Y-110628066D01*
X148654266Y-110694733D01*
X148654266Y-110794733D01*
X148620933Y-110861400D01*
X148587600Y-110894733D01*
X148520933Y-110928066D01*
X148254266Y-110928066D01*
X148254266Y-110228066D01*
X148487600Y-110228066D01*
X148554266Y-110261400D01*
X148587600Y-110294733D01*
X148620933Y-110361400D01*
X148620933Y-110428066D01*
X148587600Y-110494733D01*
X148554266Y-110528066D01*
X148487600Y-110561400D01*
X148254266Y-110561400D01*
X148133333Y-108388066D02*
X148133333Y-107688066D01*
X148300000Y-107688066D01*
X148400000Y-107721400D01*
X148466666Y-107788066D01*
X148500000Y-107854733D01*
X148533333Y-107988066D01*
X148533333Y-108088066D01*
X148500000Y-108221400D01*
X148466666Y-108288066D01*
X148400000Y-108354733D01*
X148300000Y-108388066D01*
X148133333Y-108388066D01*
X148833333Y-108121400D02*
X149366666Y-108121400D01*
%TO.C,R4*%
X135543333Y-97206666D02*
X135310000Y-96873333D01*
X135143333Y-97206666D02*
X135143333Y-96506666D01*
X135410000Y-96506666D01*
X135476666Y-96540000D01*
X135510000Y-96573333D01*
X135543333Y-96640000D01*
X135543333Y-96740000D01*
X135510000Y-96806666D01*
X135476666Y-96840000D01*
X135410000Y-96873333D01*
X135143333Y-96873333D01*
X136143333Y-96740000D02*
X136143333Y-97206666D01*
X135976666Y-96473333D02*
X135810000Y-96973333D01*
X136243333Y-96973333D01*
%TO.C,C10*%
X141982000Y-110940000D02*
X142015333Y-110973333D01*
X142048666Y-111073333D01*
X142048666Y-111140000D01*
X142015333Y-111240000D01*
X141948666Y-111306666D01*
X141882000Y-111340000D01*
X141748666Y-111373333D01*
X141648666Y-111373333D01*
X141515333Y-111340000D01*
X141448666Y-111306666D01*
X141382000Y-111240000D01*
X141348666Y-111140000D01*
X141348666Y-111073333D01*
X141382000Y-110973333D01*
X141415333Y-110940000D01*
X142048666Y-110273333D02*
X142048666Y-110673333D01*
X142048666Y-110473333D02*
X141348666Y-110473333D01*
X141448666Y-110540000D01*
X141515333Y-110606666D01*
X141548666Y-110673333D01*
X141348666Y-109840000D02*
X141348666Y-109773333D01*
X141382000Y-109706666D01*
X141415333Y-109673333D01*
X141482000Y-109640000D01*
X141615333Y-109606666D01*
X141782000Y-109606666D01*
X141915333Y-109640000D01*
X141982000Y-109673333D01*
X142015333Y-109706666D01*
X142048666Y-109773333D01*
X142048666Y-109840000D01*
X142015333Y-109906666D01*
X141982000Y-109940000D01*
X141915333Y-109973333D01*
X141782000Y-110006666D01*
X141615333Y-110006666D01*
X141482000Y-109973333D01*
X141415333Y-109940000D01*
X141382000Y-109906666D01*
X141348666Y-109840000D01*
%TO.C,C2*%
X143750000Y-98116666D02*
X143783333Y-98150000D01*
X143816666Y-98250000D01*
X143816666Y-98316666D01*
X143783333Y-98416666D01*
X143716666Y-98483333D01*
X143650000Y-98516666D01*
X143516666Y-98550000D01*
X143416666Y-98550000D01*
X143283333Y-98516666D01*
X143216666Y-98483333D01*
X143150000Y-98416666D01*
X143116666Y-98316666D01*
X143116666Y-98250000D01*
X143150000Y-98150000D01*
X143183333Y-98116666D01*
X143183333Y-97850000D02*
X143150000Y-97816666D01*
X143116666Y-97750000D01*
X143116666Y-97583333D01*
X143150000Y-97516666D01*
X143183333Y-97483333D01*
X143250000Y-97450000D01*
X143316666Y-97450000D01*
X143416666Y-97483333D01*
X143816666Y-97883333D01*
X143816666Y-97450000D01*
%TO.C,C7*%
X145213333Y-97470000D02*
X145180000Y-97503333D01*
X145080000Y-97536666D01*
X145013333Y-97536666D01*
X144913333Y-97503333D01*
X144846666Y-97436666D01*
X144813333Y-97370000D01*
X144780000Y-97236666D01*
X144780000Y-97136666D01*
X144813333Y-97003333D01*
X144846666Y-96936666D01*
X144913333Y-96870000D01*
X145013333Y-96836666D01*
X145080000Y-96836666D01*
X145180000Y-96870000D01*
X145213333Y-96903333D01*
X145446666Y-96836666D02*
X145913333Y-96836666D01*
X145613333Y-97536666D01*
%TO.C,C1*%
X144250000Y-94616666D02*
X144283333Y-94650000D01*
X144316666Y-94750000D01*
X144316666Y-94816666D01*
X144283333Y-94916666D01*
X144216666Y-94983333D01*
X144150000Y-95016666D01*
X144016666Y-95050000D01*
X143916666Y-95050000D01*
X143783333Y-95016666D01*
X143716666Y-94983333D01*
X143650000Y-94916666D01*
X143616666Y-94816666D01*
X143616666Y-94750000D01*
X143650000Y-94650000D01*
X143683333Y-94616666D01*
X144316666Y-93950000D02*
X144316666Y-94350000D01*
X144316666Y-94150000D02*
X143616666Y-94150000D01*
X143716666Y-94216666D01*
X143783333Y-94283333D01*
X143816666Y-94350000D01*
%TO.C,Q1*%
X135061333Y-107571333D02*
X134994666Y-107538000D01*
X134928000Y-107471333D01*
X134828000Y-107371333D01*
X134761333Y-107338000D01*
X134694666Y-107338000D01*
X134728000Y-107504666D02*
X134661333Y-107471333D01*
X134594666Y-107404666D01*
X134561333Y-107271333D01*
X134561333Y-107038000D01*
X134594666Y-106904666D01*
X134661333Y-106838000D01*
X134728000Y-106804666D01*
X134861333Y-106804666D01*
X134928000Y-106838000D01*
X134994666Y-106904666D01*
X135028000Y-107038000D01*
X135028000Y-107271333D01*
X134994666Y-107404666D01*
X134928000Y-107471333D01*
X134861333Y-107504666D01*
X134728000Y-107504666D01*
X135694666Y-107504666D02*
X135294666Y-107504666D01*
X135494666Y-107504666D02*
X135494666Y-106804666D01*
X135428000Y-106904666D01*
X135361333Y-106971333D01*
X135294666Y-107004666D01*
%TO.C,J1*%
X148296666Y-98376666D02*
X148296666Y-98876666D01*
X148263333Y-98976666D01*
X148196666Y-99043333D01*
X148096666Y-99076666D01*
X148030000Y-99076666D01*
X148996666Y-99076666D02*
X148596666Y-99076666D01*
X148796666Y-99076666D02*
X148796666Y-98376666D01*
X148730000Y-98476666D01*
X148663333Y-98543333D01*
X148596666Y-98576666D01*
%TO.C,Y1*%
X147510266Y-100364133D02*
X147510266Y-100697466D01*
X147276933Y-99997466D02*
X147510266Y-100364133D01*
X147743600Y-99997466D01*
X148343600Y-100697466D02*
X147943600Y-100697466D01*
X148143600Y-100697466D02*
X148143600Y-99997466D01*
X148076933Y-100097466D01*
X148010266Y-100164133D01*
X147943600Y-100197466D01*
%TO.C,R2*%
X136566666Y-104366666D02*
X136233333Y-104600000D01*
X136566666Y-104766666D02*
X135866666Y-104766666D01*
X135866666Y-104500000D01*
X135900000Y-104433333D01*
X135933333Y-104400000D01*
X136000000Y-104366666D01*
X136100000Y-104366666D01*
X136166666Y-104400000D01*
X136200000Y-104433333D01*
X136233333Y-104500000D01*
X136233333Y-104766666D01*
X135933333Y-104100000D02*
X135900000Y-104066666D01*
X135866666Y-104000000D01*
X135866666Y-103833333D01*
X135900000Y-103766666D01*
X135933333Y-103733333D01*
X136000000Y-103700000D01*
X136066666Y-103700000D01*
X136166666Y-103733333D01*
X136566666Y-104133333D01*
X136566666Y-103700000D01*
%TO.C,C3*%
X138426000Y-94604666D02*
X138459333Y-94638000D01*
X138492666Y-94738000D01*
X138492666Y-94804666D01*
X138459333Y-94904666D01*
X138392666Y-94971333D01*
X138326000Y-95004666D01*
X138192666Y-95038000D01*
X138092666Y-95038000D01*
X137959333Y-95004666D01*
X137892666Y-94971333D01*
X137826000Y-94904666D01*
X137792666Y-94804666D01*
X137792666Y-94738000D01*
X137826000Y-94638000D01*
X137859333Y-94604666D01*
X137792666Y-94371333D02*
X137792666Y-93938000D01*
X138059333Y-94171333D01*
X138059333Y-94071333D01*
X138092666Y-94004666D01*
X138126000Y-93971333D01*
X138192666Y-93938000D01*
X138359333Y-93938000D01*
X138426000Y-93971333D01*
X138459333Y-94004666D01*
X138492666Y-94071333D01*
X138492666Y-94271333D01*
X138459333Y-94338000D01*
X138426000Y-94371333D01*
%TO.C,U1*%
X141452666Y-97152666D02*
X141452666Y-97719333D01*
X141486000Y-97786000D01*
X141519333Y-97819333D01*
X141586000Y-97852666D01*
X141719333Y-97852666D01*
X141786000Y-97819333D01*
X141819333Y-97786000D01*
X141852666Y-97719333D01*
X141852666Y-97152666D01*
X142552666Y-97852666D02*
X142152666Y-97852666D01*
X142352666Y-97852666D02*
X142352666Y-97152666D01*
X142286000Y-97252666D01*
X142219333Y-97319333D01*
X142152666Y-97352666D01*
%TO.C,C5*%
X144776000Y-110860666D02*
X144809333Y-110894000D01*
X144842666Y-110994000D01*
X144842666Y-111060666D01*
X144809333Y-111160666D01*
X144742666Y-111227333D01*
X144676000Y-111260666D01*
X144542666Y-111294000D01*
X144442666Y-111294000D01*
X144309333Y-111260666D01*
X144242666Y-111227333D01*
X144176000Y-111160666D01*
X144142666Y-111060666D01*
X144142666Y-110994000D01*
X144176000Y-110894000D01*
X144209333Y-110860666D01*
X144142666Y-110227333D02*
X144142666Y-110560666D01*
X144476000Y-110594000D01*
X144442666Y-110560666D01*
X144409333Y-110494000D01*
X144409333Y-110327333D01*
X144442666Y-110260666D01*
X144476000Y-110227333D01*
X144542666Y-110194000D01*
X144709333Y-110194000D01*
X144776000Y-110227333D01*
X144809333Y-110260666D01*
X144842666Y-110327333D01*
X144842666Y-110494000D01*
X144809333Y-110560666D01*
X144776000Y-110594000D01*
%TO.C,R3*%
X134676666Y-99006666D02*
X134343333Y-99240000D01*
X134676666Y-99406666D02*
X133976666Y-99406666D01*
X133976666Y-99140000D01*
X134010000Y-99073333D01*
X134043333Y-99040000D01*
X134110000Y-99006666D01*
X134210000Y-99006666D01*
X134276666Y-99040000D01*
X134310000Y-99073333D01*
X134343333Y-99140000D01*
X134343333Y-99406666D01*
X133976666Y-98773333D02*
X133976666Y-98340000D01*
X134243333Y-98573333D01*
X134243333Y-98473333D01*
X134276666Y-98406666D01*
X134310000Y-98373333D01*
X134376666Y-98340000D01*
X134543333Y-98340000D01*
X134610000Y-98373333D01*
X134643333Y-98406666D01*
X134676666Y-98473333D01*
X134676666Y-98673333D01*
X134643333Y-98740000D01*
X134610000Y-98773333D01*
%TO.C,Q2*%
X135061333Y-111635333D02*
X134994666Y-111602000D01*
X134928000Y-111535333D01*
X134828000Y-111435333D01*
X134761333Y-111402000D01*
X134694666Y-111402000D01*
X134728000Y-111568666D02*
X134661333Y-111535333D01*
X134594666Y-111468666D01*
X134561333Y-111335333D01*
X134561333Y-111102000D01*
X134594666Y-110968666D01*
X134661333Y-110902000D01*
X134728000Y-110868666D01*
X134861333Y-110868666D01*
X134928000Y-110902000D01*
X134994666Y-110968666D01*
X135028000Y-111102000D01*
X135028000Y-111335333D01*
X134994666Y-111468666D01*
X134928000Y-111535333D01*
X134861333Y-111568666D01*
X134728000Y-111568666D01*
X135294666Y-110935333D02*
X135328000Y-110902000D01*
X135394666Y-110868666D01*
X135561333Y-110868666D01*
X135628000Y-110902000D01*
X135661333Y-110935333D01*
X135694666Y-111002000D01*
X135694666Y-111068666D01*
X135661333Y-111168666D01*
X135261333Y-111568666D01*
X135694666Y-111568666D01*
%TO.C,C4*%
X142236000Y-94604666D02*
X142269333Y-94638000D01*
X142302666Y-94738000D01*
X142302666Y-94804666D01*
X142269333Y-94904666D01*
X142202666Y-94971333D01*
X142136000Y-95004666D01*
X142002666Y-95038000D01*
X141902666Y-95038000D01*
X141769333Y-95004666D01*
X141702666Y-94971333D01*
X141636000Y-94904666D01*
X141602666Y-94804666D01*
X141602666Y-94738000D01*
X141636000Y-94638000D01*
X141669333Y-94604666D01*
X141836000Y-94004666D02*
X142302666Y-94004666D01*
X141569333Y-94171333D02*
X142069333Y-94338000D01*
X142069333Y-93904666D01*
%TO.C,L1*%
X145563333Y-95716666D02*
X145230000Y-95716666D01*
X145230000Y-95016666D01*
X146163333Y-95716666D02*
X145763333Y-95716666D01*
X145963333Y-95716666D02*
X145963333Y-95016666D01*
X145896666Y-95116666D01*
X145830000Y-95183333D01*
X145763333Y-95216666D01*
%TO.C,R1*%
X139762666Y-94604666D02*
X139429333Y-94838000D01*
X139762666Y-95004666D02*
X139062666Y-95004666D01*
X139062666Y-94738000D01*
X139096000Y-94671333D01*
X139129333Y-94638000D01*
X139196000Y-94604666D01*
X139296000Y-94604666D01*
X139362666Y-94638000D01*
X139396000Y-94671333D01*
X139429333Y-94738000D01*
X139429333Y-95004666D01*
X139762666Y-93938000D02*
X139762666Y-94338000D01*
X139762666Y-94138000D02*
X139062666Y-94138000D01*
X139162666Y-94204666D01*
X139229333Y-94271333D01*
X139262666Y-94338000D01*
%TO.C,C6*%
X135983333Y-101130000D02*
X135950000Y-101163333D01*
X135850000Y-101196666D01*
X135783333Y-101196666D01*
X135683333Y-101163333D01*
X135616666Y-101096666D01*
X135583333Y-101030000D01*
X135550000Y-100896666D01*
X135550000Y-100796666D01*
X135583333Y-100663333D01*
X135616666Y-100596666D01*
X135683333Y-100530000D01*
X135783333Y-100496666D01*
X135850000Y-100496666D01*
X135950000Y-100530000D01*
X135983333Y-100563333D01*
X136583333Y-100496666D02*
X136450000Y-100496666D01*
X136383333Y-100530000D01*
X136350000Y-100563333D01*
X136283333Y-100663333D01*
X136250000Y-100796666D01*
X136250000Y-101063333D01*
X136283333Y-101130000D01*
X136316666Y-101163333D01*
X136383333Y-101196666D01*
X136516666Y-101196666D01*
X136583333Y-101163333D01*
X136616666Y-101130000D01*
X136650000Y-101063333D01*
X136650000Y-100896666D01*
X136616666Y-100830000D01*
X136583333Y-100796666D01*
X136516666Y-100763333D01*
X136383333Y-100763333D01*
X136316666Y-100796666D01*
X136283333Y-100830000D01*
X136250000Y-100896666D01*
%TO.C,C8*%
X139645200Y-106517266D02*
X139678533Y-106550600D01*
X139711866Y-106650600D01*
X139711866Y-106717266D01*
X139678533Y-106817266D01*
X139611866Y-106883933D01*
X139545200Y-106917266D01*
X139411866Y-106950600D01*
X139311866Y-106950600D01*
X139178533Y-106917266D01*
X139111866Y-106883933D01*
X139045200Y-106817266D01*
X139011866Y-106717266D01*
X139011866Y-106650600D01*
X139045200Y-106550600D01*
X139078533Y-106517266D01*
X139311866Y-106117266D02*
X139278533Y-106183933D01*
X139245200Y-106217266D01*
X139178533Y-106250600D01*
X139145200Y-106250600D01*
X139078533Y-106217266D01*
X139045200Y-106183933D01*
X139011866Y-106117266D01*
X139011866Y-105983933D01*
X139045200Y-105917266D01*
X139078533Y-105883933D01*
X139145200Y-105850600D01*
X139178533Y-105850600D01*
X139245200Y-105883933D01*
X139278533Y-105917266D01*
X139311866Y-105983933D01*
X139311866Y-106117266D01*
X139345200Y-106183933D01*
X139378533Y-106217266D01*
X139445200Y-106250600D01*
X139578533Y-106250600D01*
X139645200Y-106217266D01*
X139678533Y-106183933D01*
X139711866Y-106117266D01*
X139711866Y-105983933D01*
X139678533Y-105917266D01*
X139645200Y-105883933D01*
X139578533Y-105850600D01*
X139445200Y-105850600D01*
X139378533Y-105883933D01*
X139345200Y-105917266D01*
X139311866Y-105983933D01*
%TO.C,U3*%
X143789466Y-107566666D02*
X143789466Y-108133333D01*
X143822800Y-108200000D01*
X143856133Y-108233333D01*
X143922800Y-108266666D01*
X144056133Y-108266666D01*
X144122800Y-108233333D01*
X144156133Y-108200000D01*
X144189466Y-108133333D01*
X144189466Y-107566666D01*
X144456133Y-107566666D02*
X144889466Y-107566666D01*
X144656133Y-107833333D01*
X144756133Y-107833333D01*
X144822800Y-107866666D01*
X144856133Y-107900000D01*
X144889466Y-107966666D01*
X144889466Y-108133333D01*
X144856133Y-108200000D01*
X144822800Y-108233333D01*
X144756133Y-108266666D01*
X144556133Y-108266666D01*
X144489466Y-108233333D01*
X144456133Y-108200000D01*
%TO.C,Q3*%
X138871333Y-111635333D02*
X138804666Y-111602000D01*
X138738000Y-111535333D01*
X138638000Y-111435333D01*
X138571333Y-111402000D01*
X138504666Y-111402000D01*
X138538000Y-111568666D02*
X138471333Y-111535333D01*
X138404666Y-111468666D01*
X138371333Y-111335333D01*
X138371333Y-111102000D01*
X138404666Y-110968666D01*
X138471333Y-110902000D01*
X138538000Y-110868666D01*
X138671333Y-110868666D01*
X138738000Y-110902000D01*
X138804666Y-110968666D01*
X138838000Y-111102000D01*
X138838000Y-111335333D01*
X138804666Y-111468666D01*
X138738000Y-111535333D01*
X138671333Y-111568666D01*
X138538000Y-111568666D01*
X139071333Y-110868666D02*
X139504666Y-110868666D01*
X139271333Y-111135333D01*
X139371333Y-111135333D01*
X139438000Y-111168666D01*
X139471333Y-111202000D01*
X139504666Y-111268666D01*
X139504666Y-111435333D01*
X139471333Y-111502000D01*
X139438000Y-111535333D01*
X139371333Y-111568666D01*
X139171333Y-111568666D01*
X139104666Y-111535333D01*
X139071333Y-111502000D01*
%TO.C,C9*%
X140976000Y-94604666D02*
X141009333Y-94638000D01*
X141042666Y-94738000D01*
X141042666Y-94804666D01*
X141009333Y-94904666D01*
X140942666Y-94971333D01*
X140876000Y-95004666D01*
X140742666Y-95038000D01*
X140642666Y-95038000D01*
X140509333Y-95004666D01*
X140442666Y-94971333D01*
X140376000Y-94904666D01*
X140342666Y-94804666D01*
X140342666Y-94738000D01*
X140376000Y-94638000D01*
X140409333Y-94604666D01*
X141042666Y-94271333D02*
X141042666Y-94138000D01*
X141009333Y-94071333D01*
X140976000Y-94038000D01*
X140876000Y-93971333D01*
X140742666Y-93938000D01*
X140476000Y-93938000D01*
X140409333Y-93971333D01*
X140376000Y-94004666D01*
X140342666Y-94071333D01*
X140342666Y-94204666D01*
X140376000Y-94271333D01*
X140409333Y-94304666D01*
X140476000Y-94338000D01*
X140642666Y-94338000D01*
X140709333Y-94304666D01*
X140742666Y-94271333D01*
X140776000Y-94204666D01*
X140776000Y-94071333D01*
X140742666Y-94004666D01*
X140709333Y-93971333D01*
X140642666Y-93938000D01*
%TO.C,R4*%
X135546359Y-97420000D02*
X135853641Y-97420000D01*
X135546359Y-98180000D02*
X135853641Y-98180000D01*
%TO.C,C10*%
X140972000Y-109841420D02*
X140972000Y-110122580D01*
X139952000Y-109841420D02*
X139952000Y-110122580D01*
%TO.C,C2*%
X143150000Y-96627836D02*
X143150000Y-96412164D01*
X143870000Y-96627836D02*
X143870000Y-96412164D01*
%TO.C,C7*%
X145281764Y-97582400D02*
X145497436Y-97582400D01*
X145281764Y-98302400D02*
X145497436Y-98302400D01*
%TO.C,C1*%
X145242164Y-94128000D02*
X145457836Y-94128000D01*
X145242164Y-94848000D02*
X145457836Y-94848000D01*
%TO.C,Q1*%
X135418000Y-105832000D02*
X135418000Y-104157000D01*
X132298000Y-105832000D02*
X132298000Y-105182000D01*
X135418000Y-105832000D02*
X135418000Y-106482000D01*
X132298000Y-105832000D02*
X132298000Y-106482000D01*
D11*
%TO.C,J1*%
X149637500Y-95200000D02*
X149637500Y-97200000D01*
X149337500Y-97500000D02*
X147337500Y-97500000D01*
X147037500Y-97200000D02*
X147037500Y-95200000D01*
X147337500Y-94900000D02*
X149337500Y-94900000D01*
X147337500Y-94900000D02*
G75*
G03*
X147037500Y-95200000I0J-300000D01*
G01*
X149637500Y-95200000D02*
G75*
G03*
X149337500Y-94900000I-300000J0D01*
G01*
X149337500Y-97500000D02*
G75*
G03*
X149637500Y-97200000I0J300000D01*
G01*
X147037500Y-97200000D02*
G75*
G03*
X147337500Y-97500000I300000J0D01*
G01*
X149337500Y-96200000D02*
G75*
G03*
X149337500Y-96200000I-1000000J0D01*
G01*
X148437500Y-96200000D02*
G75*
G03*
X148437500Y-96200000I-100000J0D01*
G01*
D10*
%TO.C,PG1*%
X148023600Y-106195400D02*
X148023600Y-111210400D01*
X145803600Y-104675400D02*
X146913600Y-104675400D01*
X145803600Y-105435400D02*
X145803600Y-104675400D01*
X145803600Y-111210400D02*
X146606070Y-111210400D01*
X147477071Y-106195400D02*
X148023600Y-106195400D01*
X145803600Y-106195400D02*
X146350129Y-106195400D01*
X145803600Y-106195400D02*
X145803600Y-111210400D01*
X147221130Y-111210400D02*
X148023600Y-111210400D01*
%TO.C,Y1*%
X144243600Y-98730800D02*
X144243600Y-102030800D01*
X147043600Y-98730800D02*
X144243600Y-98730800D01*
%TO.C,R2*%
X136549400Y-102820441D02*
X136549400Y-102513159D01*
X135789400Y-102820441D02*
X135789400Y-102513159D01*
%TO.C,C3*%
X137816000Y-96287836D02*
X137816000Y-96072164D01*
X138536000Y-96287836D02*
X138536000Y-96072164D01*
%TO.C,U1*%
X142818000Y-103448000D02*
X142343000Y-103448000D01*
X137598000Y-98703000D02*
X137598000Y-98228000D01*
X142818000Y-98703000D02*
X142818000Y-98228000D01*
X142818000Y-102973000D02*
X142818000Y-103448000D01*
X137598000Y-98228000D02*
X138073000Y-98228000D01*
X137598000Y-103448000D02*
X138073000Y-103448000D01*
X137598000Y-102973000D02*
X137598000Y-103448000D01*
%TO.C,C5*%
X142746000Y-109841420D02*
X142746000Y-110122580D01*
X143766000Y-109841420D02*
X143766000Y-110122580D01*
%TO.C,R3*%
X135566359Y-98480000D02*
X135873641Y-98480000D01*
X135566359Y-99240000D02*
X135873641Y-99240000D01*
%TO.C,Q2*%
X135418000Y-109896000D02*
X135418000Y-110546000D01*
X132298000Y-109896000D02*
X132298000Y-109246000D01*
X132298000Y-109896000D02*
X132298000Y-110546000D01*
X135418000Y-109896000D02*
X135418000Y-108221000D01*
%TO.C,C4*%
X141626000Y-96287836D02*
X141626000Y-96072164D01*
X142346000Y-96287836D02*
X142346000Y-96072164D01*
%TO.C,R1*%
X139066000Y-96026359D02*
X139066000Y-96333641D01*
X139826000Y-96026359D02*
X139826000Y-96333641D01*
%TO.C,C6*%
X135820036Y-99614400D02*
X135604364Y-99614400D01*
X135820036Y-100334400D02*
X135604364Y-100334400D01*
%TO.C,C8*%
X140972000Y-106539420D02*
X140972000Y-106820580D01*
X139952000Y-106539420D02*
X139952000Y-106820580D01*
%TO.C,U3*%
X141492800Y-106426000D02*
X141492800Y-107076000D01*
X141492800Y-106426000D02*
X141492800Y-105776000D01*
X144612800Y-106426000D02*
X144612800Y-107076000D01*
X144612800Y-106426000D02*
X144612800Y-104751000D01*
%TO.C,Q3*%
X136108000Y-109896000D02*
X136108000Y-110546000D01*
X139228000Y-109896000D02*
X139228000Y-110546000D01*
X139228000Y-109896000D02*
X139228000Y-108221000D01*
X136108000Y-109896000D02*
X136108000Y-109246000D01*
%TO.C,C9*%
X140356000Y-96287836D02*
X140356000Y-96072164D01*
X141076000Y-96287836D02*
X141076000Y-96072164D01*
%TD*%
M02*
