%TF.GenerationSoftware,KiCad,Pcbnew,(6.0.9-0)*%
%TF.CreationDate,2023-01-16T20:49:34+01:00*%
%TF.ProjectId,ray2,72617932-2e6b-4696-9361-645f70636258,rev?*%
%TF.SameCoordinates,Original*%
%TF.FileFunction,Copper,L1,Top*%
%TF.FilePolarity,Positive*%
%FSLAX46Y46*%
G04 Gerber Fmt 4.6, Leading zero omitted, Abs format (unit mm)*
G04 Created by KiCad (PCBNEW (6.0.9-0)) date 2023-01-16 20:49:34*
%MOMM*%
%LPD*%
G01*
G04 APERTURE LIST*
G04 Aperture macros list*
%AMRoundRect*
0 Rectangle with rounded corners*
0 $1 Rounding radius*
0 $2 $3 $4 $5 $6 $7 $8 $9 X,Y pos of 4 corners*
0 Add a 4 corners polygon primitive as box body*
4,1,4,$2,$3,$4,$5,$6,$7,$8,$9,$2,$3,0*
0 Add four circle primitives for the rounded corners*
1,1,$1+$1,$2,$3*
1,1,$1+$1,$4,$5*
1,1,$1+$1,$6,$7*
1,1,$1+$1,$8,$9*
0 Add four rect primitives between the rounded corners*
20,1,$1+$1,$2,$3,$4,$5,0*
20,1,$1+$1,$4,$5,$6,$7,0*
20,1,$1+$1,$6,$7,$8,$9,0*
20,1,$1+$1,$8,$9,$2,$3,0*%
G04 Aperture macros list end*
%TA.AperFunction,ComponentPad*%
%ADD10RoundRect,0.250001X-0.799999X-0.799999X0.799999X-0.799999X0.799999X0.799999X-0.799999X0.799999X0*%
%TD*%
%TA.AperFunction,SMDPad,CuDef*%
%ADD11RoundRect,0.135000X-0.135000X-0.185000X0.135000X-0.185000X0.135000X0.185000X-0.135000X0.185000X0*%
%TD*%
%TA.AperFunction,SMDPad,CuDef*%
%ADD12RoundRect,0.225000X-0.250000X0.225000X-0.250000X-0.225000X0.250000X-0.225000X0.250000X0.225000X0*%
%TD*%
%TA.AperFunction,SMDPad,CuDef*%
%ADD13RoundRect,0.140000X0.170000X-0.140000X0.170000X0.140000X-0.170000X0.140000X-0.170000X-0.140000X0*%
%TD*%
%TA.AperFunction,SMDPad,CuDef*%
%ADD14RoundRect,0.140000X-0.140000X-0.170000X0.140000X-0.170000X0.140000X0.170000X-0.140000X0.170000X0*%
%TD*%
%TA.AperFunction,SMDPad,CuDef*%
%ADD15RoundRect,0.150000X-0.150000X0.587500X-0.150000X-0.587500X0.150000X-0.587500X0.150000X0.587500X0*%
%TD*%
%TA.AperFunction,SMDPad,CuDef*%
%ADD16RoundRect,0.250000X0.750000X-0.250000X0.750000X0.250000X-0.750000X0.250000X-0.750000X-0.250000X0*%
%TD*%
%TA.AperFunction,SMDPad,CuDef*%
%ADD17R,1.050000X1.000000*%
%TD*%
%TA.AperFunction,SMDPad,CuDef*%
%ADD18R,2.200000X1.050000*%
%TD*%
%TA.AperFunction,ComponentPad*%
%ADD19R,1.000000X1.000000*%
%TD*%
%TA.AperFunction,ComponentPad*%
%ADD20O,1.000000X1.000000*%
%TD*%
%TA.AperFunction,SMDPad,CuDef*%
%ADD21R,1.000000X1.150000*%
%TD*%
%TA.AperFunction,ComponentPad*%
%ADD22RoundRect,0.250002X-1.699998X-1.699998X1.699998X-1.699998X1.699998X1.699998X-1.699998X1.699998X0*%
%TD*%
%TA.AperFunction,SMDPad,CuDef*%
%ADD23RoundRect,0.135000X0.185000X-0.135000X0.185000X0.135000X-0.185000X0.135000X-0.185000X-0.135000X0*%
%TD*%
%TA.AperFunction,SMDPad,CuDef*%
%ADD24RoundRect,0.062500X-0.062500X0.375000X-0.062500X-0.375000X0.062500X-0.375000X0.062500X0.375000X0*%
%TD*%
%TA.AperFunction,SMDPad,CuDef*%
%ADD25RoundRect,0.062500X-0.375000X0.062500X-0.375000X-0.062500X0.375000X-0.062500X0.375000X0.062500X0*%
%TD*%
%TA.AperFunction,SMDPad,CuDef*%
%ADD26R,3.450000X3.450000*%
%TD*%
%TA.AperFunction,SMDPad,CuDef*%
%ADD27RoundRect,0.147500X-0.172500X0.147500X-0.172500X-0.147500X0.172500X-0.147500X0.172500X0.147500X0*%
%TD*%
%TA.AperFunction,SMDPad,CuDef*%
%ADD28RoundRect,0.135000X-0.185000X0.135000X-0.185000X-0.135000X0.185000X-0.135000X0.185000X0.135000X0*%
%TD*%
%TA.AperFunction,SMDPad,CuDef*%
%ADD29RoundRect,0.147500X-0.147500X-0.172500X0.147500X-0.172500X0.147500X0.172500X-0.147500X0.172500X0*%
%TD*%
%TA.AperFunction,SMDPad,CuDef*%
%ADD30RoundRect,0.140000X0.140000X0.170000X-0.140000X0.170000X-0.140000X-0.170000X0.140000X-0.170000X0*%
%TD*%
%TA.AperFunction,ConnectorPad*%
%ADD31R,0.500000X0.500000*%
%TD*%
%TA.AperFunction,ComponentPad*%
%ADD32R,0.900000X0.500000*%
%TD*%
%TA.AperFunction,ViaPad*%
%ADD33C,0.600000*%
%TD*%
%TA.AperFunction,ViaPad*%
%ADD34C,1.200000*%
%TD*%
%TA.AperFunction,Conductor*%
%ADD35C,0.500000*%
%TD*%
%TA.AperFunction,Conductor*%
%ADD36C,0.250000*%
%TD*%
%TA.AperFunction,Conductor*%
%ADD37C,0.200000*%
%TD*%
%TA.AperFunction,Conductor*%
%ADD38C,1.000000*%
%TD*%
%TA.AperFunction,Conductor*%
%ADD39C,2.000000*%
%TD*%
G04 APERTURE END LIST*
%TO.C,AE1*%
G36*
X146540000Y-93700500D02*
G01*
X146540000Y-93442342D01*
X146841778Y-93442342D01*
X146848309Y-93491868D01*
X146868868Y-93537053D01*
X146902511Y-93572287D01*
X146921122Y-93582900D01*
X146966637Y-93595800D01*
X147015156Y-93596543D01*
X147057819Y-93584435D01*
X147065731Y-93580081D01*
X147103674Y-93547297D01*
X147127742Y-93504895D01*
X147137583Y-93457285D01*
X147132847Y-93408878D01*
X147113185Y-93364084D01*
X147078245Y-93327314D01*
X147045353Y-93310408D01*
X146997267Y-93302518D01*
X146947682Y-93309092D01*
X146902372Y-93329187D01*
X146867112Y-93361857D01*
X146850218Y-93394083D01*
X146841778Y-93442342D01*
X146540000Y-93442342D01*
X146540000Y-88800500D01*
X145140000Y-88800500D01*
X145140000Y-93700500D01*
X144640000Y-93700500D01*
X144640000Y-88800500D01*
X142940000Y-88800500D01*
X142940000Y-91440500D01*
X139940000Y-91440500D01*
X139940000Y-88800500D01*
X138240000Y-88800500D01*
X138240000Y-91440500D01*
X135240000Y-91440500D01*
X135240000Y-88800500D01*
X133540000Y-88800500D01*
X133540000Y-92740500D01*
X133040000Y-92740500D01*
X133040000Y-88300500D01*
X135740000Y-88300500D01*
X135740000Y-90940500D01*
X137740000Y-90940500D01*
X137740000Y-88300500D01*
X140440000Y-88300500D01*
X140440000Y-90940500D01*
X142440000Y-90940500D01*
X142440000Y-88300500D01*
X147440000Y-88300500D01*
X147440000Y-93700500D01*
X146540000Y-93700500D01*
G37*
%TD*%
D10*
%TO.P,P7,1,P1*%
%TO.N,Net-(P7-Pad1)*%
X132650000Y-101840000D03*
%TD*%
D11*
%TO.P,R4,1*%
%TO.N,Net-(P7-Pad1)*%
X135190000Y-97800000D03*
%TO.P,R4,2*%
%TO.N,Net-(U1-Pad9)*%
X136210000Y-97800000D03*
%TD*%
D12*
%TO.P,C10,1*%
%TO.N,+3V3*%
X140462000Y-109207000D03*
%TO.P,C10,2*%
%TO.N,GND*%
X140462000Y-110757000D03*
%TD*%
D10*
%TO.P,P2,1,P1*%
%TO.N,VIN*%
X142240000Y-118872000D03*
%TD*%
D13*
%TO.P,C2,1*%
%TO.N,Net-(C2-Pad1)*%
X143510000Y-97000000D03*
%TO.P,C2,2*%
%TO.N,GND*%
X143510000Y-96040000D03*
%TD*%
D14*
%TO.P,C7,1*%
%TO.N,+3V3*%
X144909600Y-97942400D03*
%TO.P,C7,2*%
%TO.N,GND*%
X145869600Y-97942400D03*
%TD*%
%TO.P,C1,1*%
%TO.N,Net-(AE1-Pad1)*%
X144870000Y-94488000D03*
%TO.P,C1,2*%
%TO.N,GND*%
X145830000Y-94488000D03*
%TD*%
D15*
%TO.P,Q1,1,G*%
%TO.N,/PWM_DIMMER1*%
X134808000Y-104894500D03*
%TO.P,Q1,2,S*%
%TO.N,GND*%
X132908000Y-104894500D03*
%TO.P,Q1,3,D*%
%TO.N,/L1_GND*%
X133858000Y-106769500D03*
%TD*%
D16*
%TO.P,P6,1,P1*%
%TO.N,/RX*%
X145592800Y-103124000D03*
%TD*%
D17*
%TO.P,J1,1,In*%
%TO.N,Net-(J1-Pad1)*%
X146812500Y-96200000D03*
D18*
%TO.P,J1,2,Ext*%
%TO.N,GND*%
X148337500Y-94725000D03*
X148337500Y-97675000D03*
%TD*%
D10*
%TO.P,P1,1,P1*%
%TO.N,VIN*%
X144780000Y-118872000D03*
%TD*%
D19*
%TO.P,PG1,1,Pin_1*%
%TO.N,GND*%
X146913600Y-105435400D03*
D20*
%TO.P,PG1,2,Pin_2*%
%TO.N,/USB_D+*%
X146913600Y-106705400D03*
%TO.P,PG1,3,Pin_3*%
%TO.N,/USB_D-*%
X146913600Y-107975400D03*
%TO.P,PG1,4,Pin_4*%
%TO.N,VIN*%
X146913600Y-109245400D03*
%TO.P,PG1,5,Pin_5*%
%TO.N,/BOOT*%
X146913600Y-110515400D03*
%TD*%
D21*
%TO.P,Y1,1,1*%
%TO.N,Net-(U1-Pad30)*%
X144943600Y-99505800D03*
%TO.P,Y1,2,2*%
%TO.N,GND*%
X144943600Y-101255800D03*
%TO.P,Y1,3,3*%
%TO.N,Net-(U1-Pad29)*%
X146343600Y-101255800D03*
%TO.P,Y1,4,4*%
%TO.N,GND*%
X146343600Y-99505800D03*
%TD*%
D22*
%TO.P,VIN1,1,P1*%
%TO.N,VIN*%
X146812000Y-114554000D03*
%TD*%
D23*
%TO.P,R2,1*%
%TO.N,VIN*%
X136169400Y-103176800D03*
%TO.P,R2,2*%
%TO.N,Net-(P4-Pad1)*%
X136169400Y-102156800D03*
%TD*%
D22*
%TO.P,GND1,1,P1*%
%TO.N,GND*%
X134112000Y-118024000D03*
%TD*%
D13*
%TO.P,C3,1*%
%TO.N,Net-(C3-Pad1)*%
X138176000Y-96660000D03*
%TO.P,C3,2*%
%TO.N,GND*%
X138176000Y-95700000D03*
%TD*%
D24*
%TO.P,U1,1,LNA_IN*%
%TO.N,Net-(C2-Pad1)*%
X141958000Y-98400500D03*
%TO.P,U1,2,VDD3P3*%
%TO.N,+3V3*%
X141458000Y-98400500D03*
%TO.P,U1,3,VDD3P3*%
X140958000Y-98400500D03*
%TO.P,U1,4,XTAL_32K_P/ADC1_CH0*%
%TO.N,unconnected-(U1-Pad4)*%
X140458000Y-98400500D03*
%TO.P,U1,5,XTAL_32K_N/ADC1_CH1*%
%TO.N,unconnected-(U1-Pad5)*%
X139958000Y-98400500D03*
%TO.P,U1,6,GPIO2/ADC1_CH2*%
%TO.N,unconnected-(U1-Pad6)*%
X139458000Y-98400500D03*
%TO.P,U1,7,CHIP_EN*%
%TO.N,Net-(C3-Pad1)*%
X138958000Y-98400500D03*
%TO.P,U1,8,GPIO3/ADC1_CH3*%
%TO.N,unconnected-(U1-Pad8)*%
X138458000Y-98400500D03*
D25*
%TO.P,U1,9,MTMS/GPIO4/ADC1_CH4*%
%TO.N,Net-(U1-Pad9)*%
X137770500Y-99088000D03*
%TO.P,U1,10,MTDI/GPIO5/ADC2_CH0*%
%TO.N,Net-(R3-Pad2)*%
X137770500Y-99588000D03*
%TO.P,U1,11,VDD3P3_RTC*%
%TO.N,+3V3*%
X137770500Y-100088000D03*
%TO.P,U1,12,MTCK/GPIO6*%
%TO.N,unconnected-(U1-Pad12)*%
X137770500Y-100588000D03*
%TO.P,U1,13,MTDO/GPIO7*%
%TO.N,unconnected-(U1-Pad13)*%
X137770500Y-101088000D03*
%TO.P,U1,14,GPIO8*%
%TO.N,/PWM_DIMMER1*%
X137770500Y-101588000D03*
%TO.P,U1,15,GPIO9/BOOT*%
%TO.N,/BOOT*%
X137770500Y-102088000D03*
%TO.P,U1,16,GPIO10*%
%TO.N,/PWM_DIMMER2*%
X137770500Y-102588000D03*
D24*
%TO.P,U1,17,VDD3P3_CPU*%
%TO.N,+3V3*%
X138458000Y-103275500D03*
%TO.P,U1,18,VDD_SPI/GPIO11*%
%TO.N,/PWM_DIMMER3*%
X138958000Y-103275500D03*
%TO.P,U1,19,SPIHD/GPIO12*%
%TO.N,unconnected-(U1-Pad19)*%
X139458000Y-103275500D03*
%TO.P,U1,20,SPIWP/GPIO13*%
%TO.N,unconnected-(U1-Pad20)*%
X139958000Y-103275500D03*
%TO.P,U1,21,SPICS0/GPIO14*%
%TO.N,unconnected-(U1-Pad21)*%
X140458000Y-103275500D03*
%TO.P,U1,22,SPICLK/GPIO15*%
%TO.N,unconnected-(U1-Pad22)*%
X140958000Y-103275500D03*
%TO.P,U1,23,SPID/GPIO16*%
%TO.N,unconnected-(U1-Pad23)*%
X141458000Y-103275500D03*
%TO.P,U1,24,SPIQ/GPIO17*%
%TO.N,unconnected-(U1-Pad24)*%
X141958000Y-103275500D03*
D25*
%TO.P,U1,25,GPIO18/USB_D-*%
%TO.N,/USB_D-*%
X142645500Y-102588000D03*
%TO.P,U1,26,GPIO19/USB_D+*%
%TO.N,/USB_D+*%
X142645500Y-102088000D03*
%TO.P,U1,27,U0RXD/GPIO20*%
%TO.N,/RX*%
X142645500Y-101588000D03*
%TO.P,U1,28,U0TXD/GPIO21*%
%TO.N,/TX*%
X142645500Y-101088000D03*
%TO.P,U1,29,XTAL_N*%
%TO.N,Net-(U1-Pad29)*%
X142645500Y-100588000D03*
%TO.P,U1,30,XTAL_P*%
%TO.N,Net-(U1-Pad30)*%
X142645500Y-100088000D03*
%TO.P,U1,31,VDDA*%
%TO.N,+3V3*%
X142645500Y-99588000D03*
%TO.P,U1,32,VDDA*%
X142645500Y-99088000D03*
D26*
%TO.P,U1,33,GND*%
%TO.N,GND*%
X140208000Y-100838000D03*
%TD*%
D12*
%TO.P,C5,1*%
%TO.N,VIN*%
X143256000Y-109207000D03*
%TO.P,C5,2*%
%TO.N,GND*%
X143256000Y-110757000D03*
%TD*%
D10*
%TO.P,N3,1,P1*%
%TO.N,/L3_GND*%
X138938000Y-113960000D03*
%TD*%
D11*
%TO.P,R3,1*%
%TO.N,Net-(P4-Pad1)*%
X135210000Y-98860000D03*
%TO.P,R3,2*%
%TO.N,Net-(R3-Pad2)*%
X136230000Y-98860000D03*
%TD*%
D15*
%TO.P,Q2,1,G*%
%TO.N,/PWM_DIMMER2*%
X134808000Y-108958500D03*
%TO.P,Q2,2,S*%
%TO.N,GND*%
X132908000Y-108958500D03*
%TO.P,Q2,3,D*%
%TO.N,/L2_GND*%
X133858000Y-110833500D03*
%TD*%
D13*
%TO.P,C4,1*%
%TO.N,+3V3*%
X141986000Y-96660000D03*
%TO.P,C4,2*%
%TO.N,GND*%
X141986000Y-95700000D03*
%TD*%
D27*
%TO.P,L1,1,1*%
%TO.N,Net-(AE1-Pad1)*%
X144800000Y-95483000D03*
%TO.P,L1,2,2*%
%TO.N,Net-(C2-Pad1)*%
X144800000Y-96453000D03*
%TD*%
D28*
%TO.P,R1,1*%
%TO.N,+3V3*%
X139446000Y-95670000D03*
%TO.P,R1,2*%
%TO.N,Net-(C3-Pad1)*%
X139446000Y-96690000D03*
%TD*%
D29*
%TO.P,L2,1,1*%
%TO.N,Net-(C2-Pad1)*%
X144830000Y-96400000D03*
%TO.P,L2,2,2*%
%TO.N,Net-(J1-Pad1)*%
X145800000Y-96400000D03*
%TD*%
D30*
%TO.P,C6,1*%
%TO.N,+3V3*%
X136192200Y-99974400D03*
%TO.P,C6,2*%
%TO.N,GND*%
X135232200Y-99974400D03*
%TD*%
D16*
%TO.P,P5,1,P1*%
%TO.N,/TX*%
X147955000Y-103124000D03*
%TD*%
D12*
%TO.P,C8,1*%
%TO.N,+3V3*%
X140462000Y-105905000D03*
%TO.P,C8,2*%
%TO.N,GND*%
X140462000Y-107455000D03*
%TD*%
D31*
%TO.P,AE1,1,FEED*%
%TO.N,Net-(AE1-Pad1)*%
X144890000Y-93450500D03*
D32*
%TO.P,AE1,2,PCB_Trace*%
%TO.N,GND*%
X146990000Y-93450500D03*
%TD*%
D10*
%TO.P,N2,1,P1*%
%TO.N,/L2_GND*%
X136144000Y-113960000D03*
%TD*%
%TO.P,N1,1,P1*%
%TO.N,/L1_GND*%
X133350000Y-113960000D03*
%TD*%
D15*
%TO.P,U3,1,GND*%
%TO.N,GND*%
X144002800Y-105488500D03*
%TO.P,U3,2,VO*%
%TO.N,+3V3*%
X142102800Y-105488500D03*
%TO.P,U3,3,VI*%
%TO.N,VIN*%
X143052800Y-107363500D03*
%TD*%
D10*
%TO.P,P3,1,P1*%
%TO.N,VIN*%
X147574000Y-118872000D03*
%TD*%
%TO.P,P4,1,P1*%
%TO.N,Net-(P4-Pad1)*%
X132650000Y-98640000D03*
%TD*%
D15*
%TO.P,Q3,1,G*%
%TO.N,/PWM_DIMMER3*%
X138618000Y-108958500D03*
%TO.P,Q3,2,S*%
%TO.N,GND*%
X136718000Y-108958500D03*
%TO.P,Q3,3,D*%
%TO.N,/L3_GND*%
X137668000Y-110833500D03*
%TD*%
D13*
%TO.P,C9,1*%
%TO.N,+3V3*%
X140716000Y-96660000D03*
%TO.P,C9,2*%
%TO.N,GND*%
X140716000Y-95700000D03*
%TD*%
D33*
%TO.N,GND*%
X148390000Y-96220000D03*
X149030000Y-93990000D03*
X131900000Y-105880000D03*
X131830000Y-103630000D03*
X149000000Y-108640000D03*
X148940000Y-104840000D03*
X142630000Y-104330000D03*
X143150000Y-105720000D03*
X144270000Y-105960000D03*
X143640000Y-106190000D03*
X145020000Y-107370000D03*
X144320000Y-106670000D03*
%TO.N,Net-(P7-Pad1)*%
X134560000Y-97790000D03*
%TO.N,GND*%
X134800000Y-96200000D03*
X132000000Y-95200000D03*
X135600000Y-96200000D03*
X142000000Y-94400000D03*
X147600000Y-98800000D03*
X134800000Y-94400000D03*
X146600000Y-94600000D03*
X148900000Y-101400000D03*
D34*
X133641500Y-108958500D03*
D33*
X141200000Y-94400000D03*
X147900000Y-101700000D03*
X141350000Y-100950000D03*
X142800000Y-95200000D03*
X138465200Y-118024000D03*
X137300000Y-118900000D03*
X139150000Y-101850000D03*
X132000000Y-96200000D03*
X146343600Y-98512400D03*
X132800000Y-95200000D03*
D34*
X133600000Y-104800000D03*
D33*
X135300000Y-100950000D03*
X139600000Y-94400000D03*
X135600000Y-94400000D03*
X132000000Y-94400000D03*
X144350000Y-101080000D03*
X140400000Y-94400000D03*
X138300000Y-116500000D03*
X133800000Y-95200000D03*
X148900000Y-100300000D03*
X137200000Y-94400000D03*
X143600000Y-94400000D03*
X133800000Y-94400000D03*
X137200000Y-96200000D03*
X140400000Y-95200000D03*
X133800000Y-96200000D03*
X141200000Y-95200000D03*
D34*
X137400000Y-108800000D03*
D33*
X132800000Y-94400000D03*
X135600000Y-95200000D03*
X136400000Y-94400000D03*
X132800000Y-96200000D03*
X139100000Y-118900000D03*
X138000000Y-94400000D03*
X139950000Y-99800000D03*
X140044600Y-116444600D03*
X141884400Y-114604800D03*
D34*
X143269846Y-104916918D03*
D33*
X142800000Y-94400000D03*
X134800000Y-95200000D03*
X143600000Y-95200000D03*
X138950000Y-99800000D03*
X142900000Y-112900000D03*
X140450000Y-108150000D03*
X136400000Y-96200000D03*
X137200000Y-95200000D03*
X148300000Y-99500000D03*
X138747712Y-95162003D03*
X138000000Y-95200000D03*
X142000000Y-95200000D03*
X136400000Y-95200000D03*
X138800000Y-94400000D03*
%TO.N,+3V3*%
X141350000Y-96650000D03*
X136612000Y-100088000D03*
X143956400Y-98156400D03*
D34*
X141000000Y-104700000D03*
D33*
%TO.N,/PWM_DIMMER1*%
X136600000Y-101200000D03*
X135149500Y-102699610D03*
%TO.N,/BOOT*%
X136900000Y-103900000D03*
%TO.N,/PWM_DIMMER2*%
X135953668Y-106351491D03*
X137021874Y-105654960D03*
%TO.N,/PWM_DIMMER3*%
X139350000Y-104550000D03*
X137863222Y-104633129D03*
%TO.N,VIN*%
X139487500Y-107450000D03*
X137150000Y-106700000D03*
%TD*%
D35*
%TO.N,GND*%
X144320000Y-106620000D02*
X144990000Y-107290000D01*
X144990000Y-107290000D02*
X145030000Y-107290000D01*
X144002800Y-105488500D02*
X144002800Y-106302800D01*
X144002800Y-106302800D02*
X144320000Y-106620000D01*
D36*
%TO.N,Net-(P7-Pad1)*%
X134590000Y-97780000D02*
X134580000Y-97790000D01*
X134580000Y-97790000D02*
X134560000Y-97790000D01*
X135190000Y-97800000D02*
X135170000Y-97780000D01*
X135170000Y-97780000D02*
X134590000Y-97780000D01*
%TO.N,Net-(U1-Pad9)*%
X137770500Y-99088000D02*
X137322000Y-99088000D01*
X136860000Y-98250000D02*
X136410000Y-97800000D01*
X136410000Y-97800000D02*
X136210000Y-97800000D01*
X137322000Y-99088000D02*
X137320000Y-99090000D01*
X137320000Y-99090000D02*
X137310000Y-99090000D01*
X137310000Y-99090000D02*
X136860000Y-98640000D01*
X136860000Y-98640000D02*
X136860000Y-98250000D01*
%TO.N,Net-(P4-Pad1)*%
X135210000Y-98860000D02*
X132870000Y-98860000D01*
X132870000Y-98860000D02*
X132650000Y-98640000D01*
%TO.N,Net-(R3-Pad2)*%
X137770500Y-99588000D02*
X137018000Y-99588000D01*
X137018000Y-99588000D02*
X136290000Y-98860000D01*
X136290000Y-98860000D02*
X136230000Y-98860000D01*
D37*
%TO.N,/PWM_DIMMER1*%
X134808000Y-103041110D02*
X135149500Y-102699610D01*
X134808000Y-104894500D02*
X134808000Y-103041110D01*
%TO.N,Net-(P4-Pad1)*%
X134652700Y-101397300D02*
X134652700Y-101404100D01*
X134652700Y-101404100D02*
X135405400Y-102156800D01*
X132969000Y-98806000D02*
X133736000Y-98806000D01*
X134652700Y-101397300D02*
X134649300Y-101400700D01*
X133736000Y-98806000D02*
X134652700Y-99722700D01*
X134652700Y-99722700D02*
X134652700Y-101397300D01*
D35*
%TO.N,Net-(AE1-Pad1)*%
X144890000Y-94468000D02*
X144870000Y-94488000D01*
X144870000Y-94488000D02*
X144870000Y-95433000D01*
X144890000Y-93450500D02*
X144890000Y-94468000D01*
D36*
X144870000Y-95433000D02*
X144920000Y-95483000D01*
D38*
%TO.N,GND*%
X141884400Y-113615600D02*
X141884400Y-111048800D01*
X137324000Y-118024000D02*
X137324000Y-118876000D01*
D35*
X144002800Y-105488500D02*
X143841428Y-105488500D01*
D37*
X147505000Y-94725000D02*
X148337500Y-94725000D01*
X146343600Y-99505800D02*
X146506700Y-99505800D01*
X136400000Y-96200000D02*
X137200000Y-96200000D01*
X141200000Y-95200000D02*
X140400000Y-95200000D01*
X138800000Y-94400000D02*
X138800000Y-95109715D01*
X141200000Y-94400000D02*
X142000000Y-95200000D01*
D35*
X133800000Y-108800000D02*
X133641500Y-108958500D01*
D38*
X137324000Y-118024000D02*
X138465200Y-118024000D01*
D37*
X138000000Y-95200000D02*
X138000000Y-94400000D01*
X132800000Y-96200000D02*
X133800000Y-96200000D01*
X148900000Y-100300000D02*
X148900000Y-101400000D01*
X134800000Y-95200000D02*
X134800000Y-94400000D01*
X136400000Y-95200000D02*
X136400000Y-94400000D01*
D38*
X146990000Y-93450500D02*
X146990000Y-94210000D01*
D37*
X146488000Y-94488000D02*
X146600000Y-94600000D01*
X140400000Y-94400000D02*
X139600000Y-94400000D01*
D35*
X136718000Y-108958500D02*
X137241500Y-108958500D01*
D37*
X143510000Y-95290000D02*
X143600000Y-95200000D01*
X142800000Y-94400000D02*
X142000000Y-94400000D01*
X143510000Y-96040000D02*
X143510000Y-95290000D01*
D38*
X141884400Y-114604800D02*
X141884400Y-113615600D01*
D37*
X140462000Y-107455000D02*
X140462000Y-108138000D01*
D38*
X141884400Y-111048800D02*
X141592600Y-110757000D01*
X142600000Y-112900000D02*
X142900000Y-112900000D01*
X141592600Y-110757000D02*
X140462000Y-110757000D01*
D37*
X135600000Y-94400000D02*
X135600000Y-95200000D01*
X146990000Y-94210000D02*
X147505000Y-94725000D01*
D38*
X137324000Y-118876000D02*
X137300000Y-118900000D01*
X138465200Y-118265200D02*
X139100000Y-118900000D01*
X134112000Y-118024000D02*
X137324000Y-118024000D01*
D37*
X146343600Y-99505800D02*
X146343600Y-98416400D01*
X137200000Y-96200000D02*
X137700000Y-95700000D01*
D35*
X144943600Y-101255800D02*
X144525800Y-101255800D01*
D38*
X141884400Y-113615600D02*
X142600000Y-112900000D01*
X138800000Y-116500000D02*
X138300000Y-116500000D01*
D37*
X146343600Y-98416400D02*
X145869600Y-97942400D01*
X143600000Y-94400000D02*
X142800000Y-95200000D01*
D38*
X141592600Y-110757000D02*
X143256000Y-110757000D01*
D37*
X147406250Y-98606250D02*
X148337500Y-97675000D01*
D35*
X132908000Y-108958500D02*
X133641500Y-108958500D01*
X132908000Y-104894500D02*
X133505500Y-104894500D01*
X137241500Y-108958500D02*
X137400000Y-108800000D01*
D38*
X138465200Y-118024000D02*
X139394600Y-117094600D01*
D35*
X135232200Y-99974400D02*
X135232200Y-100882200D01*
D38*
X138465200Y-118024000D02*
X138465200Y-118265200D01*
D35*
X135232200Y-100882200D02*
X135300000Y-100950000D01*
D37*
X146990000Y-94210000D02*
X146600000Y-94600000D01*
X145830000Y-94488000D02*
X146488000Y-94488000D01*
D38*
X139394600Y-117094600D02*
X138800000Y-116500000D01*
D35*
X133505500Y-104894500D02*
X133600000Y-104800000D01*
D37*
X147600000Y-98800000D02*
X148300000Y-99500000D01*
X132000000Y-95200000D02*
X132000000Y-96200000D01*
X133800000Y-94400000D02*
X133800000Y-95200000D01*
X137700000Y-95700000D02*
X138176000Y-95700000D01*
X138800000Y-95109715D02*
X138747712Y-95162003D01*
X132800000Y-94400000D02*
X132000000Y-94400000D01*
D35*
X144525800Y-101255800D02*
X144350000Y-101080000D01*
X143841428Y-105488500D02*
X143269846Y-104916918D01*
D37*
X140462000Y-108138000D02*
X140450000Y-108150000D01*
X147406250Y-98606250D02*
X147600000Y-98800000D01*
X146506700Y-99505800D02*
X147406250Y-98606250D01*
X134800000Y-96200000D02*
X135600000Y-96200000D01*
D38*
X139394600Y-117094600D02*
X141884400Y-114604800D01*
D37*
X132800000Y-95200000D02*
X132800000Y-94400000D01*
X137200000Y-94400000D02*
X137200000Y-95200000D01*
D36*
%TO.N,Net-(C2-Pad1)*%
X143416214Y-97028000D02*
X143930786Y-97028000D01*
X141958000Y-98400500D02*
X141958000Y-98072000D01*
X144637893Y-96735107D02*
X144920000Y-96453000D01*
X141958000Y-98072000D02*
X142709107Y-97320893D01*
X143930786Y-97027990D02*
G75*
G03*
X144637893Y-96735107I14J999990D01*
G01*
X143416214Y-97028010D02*
G75*
G03*
X142709107Y-97320893I-14J-999990D01*
G01*
D37*
%TO.N,+3V3*%
X142645500Y-99588000D02*
X143109000Y-99588000D01*
D38*
X141143000Y-109157000D02*
X140462000Y-109157000D01*
D37*
X141986000Y-96660000D02*
X141360000Y-96660000D01*
X137770500Y-100088000D02*
X136305800Y-100088000D01*
D38*
X141850000Y-108450000D02*
X141143000Y-109157000D01*
D37*
X138458000Y-103275500D02*
X138458000Y-104508000D01*
D38*
X142102800Y-105488500D02*
X140878500Y-105488500D01*
D37*
X141458000Y-98400500D02*
X141458000Y-97188000D01*
X143956400Y-98156400D02*
X144170400Y-97942400D01*
X141360000Y-96660000D02*
X141350000Y-96650000D01*
X138458000Y-104508000D02*
X139855000Y-105905000D01*
X143535400Y-99161600D02*
X143535400Y-98577400D01*
D38*
X141850000Y-105741300D02*
X141850000Y-108450000D01*
X142102800Y-105488500D02*
X141850000Y-105741300D01*
D37*
X136305800Y-100088000D02*
X136192200Y-99974400D01*
X140958000Y-98400500D02*
X140958000Y-96902000D01*
X142645500Y-99088000D02*
X143024800Y-99088000D01*
X143535400Y-98577400D02*
X143956400Y-98156400D01*
X140551200Y-96660000D02*
X139561200Y-95670000D01*
D38*
X140462000Y-105905000D02*
X141000000Y-105367000D01*
D37*
X140958000Y-96902000D02*
X140716000Y-96660000D01*
X144170400Y-97942400D02*
X144909600Y-97942400D01*
X139855000Y-105905000D02*
X140462000Y-105905000D01*
X139561200Y-95670000D02*
X139446000Y-95670000D01*
X141458000Y-97188000D02*
X141986000Y-96660000D01*
X141340000Y-96660000D02*
X141350000Y-96650000D01*
X143024800Y-99088000D02*
X143535400Y-98577400D01*
D38*
X141000000Y-105367000D02*
X141000000Y-104700000D01*
D37*
X140716000Y-96660000D02*
X141340000Y-96660000D01*
D38*
X140878500Y-105488500D02*
X140462000Y-105905000D01*
D37*
X143109000Y-99588000D02*
X143535400Y-99161600D01*
X140716000Y-96660000D02*
X140551200Y-96660000D01*
%TO.N,/PWM_DIMMER1*%
X137770500Y-101588000D02*
X136988000Y-101588000D01*
X136988000Y-101588000D02*
X136600000Y-101200000D01*
%TO.N,/BOOT*%
X136850000Y-102350000D02*
X136850000Y-104000000D01*
X136850000Y-104000000D02*
X136900000Y-103950000D01*
X137112000Y-102088000D02*
X136850000Y-102350000D01*
X137770500Y-102088000D02*
X137112000Y-102088000D01*
X136900000Y-103950000D02*
X136900000Y-103900000D01*
%TO.N,/PWM_DIMMER2*%
X137400000Y-103551471D02*
X137500000Y-103651471D01*
X137250000Y-104398529D02*
X137250000Y-105426834D01*
X137512000Y-102588000D02*
X137400000Y-102700000D01*
X137770500Y-102588000D02*
X137512000Y-102588000D01*
X137500000Y-104148529D02*
X137250000Y-104398529D01*
X135953668Y-106896332D02*
X135953668Y-106351491D01*
X137500000Y-103651471D02*
X137500000Y-104148529D01*
X137250000Y-105426834D02*
X137021874Y-105654960D01*
X137400000Y-102700000D02*
X137400000Y-103551471D01*
X134808000Y-108042000D02*
X135953668Y-106896332D01*
X134808000Y-108958500D02*
X134808000Y-108042000D01*
%TO.N,/PWM_DIMMER3*%
X137863222Y-104633129D02*
X137863222Y-106863222D01*
X137863222Y-106863222D02*
X138618000Y-107618000D01*
X138958000Y-103275500D02*
X138958000Y-104158000D01*
X138618000Y-107618000D02*
X138618000Y-108958500D01*
X138958000Y-104158000D02*
X139350000Y-104550000D01*
%TO.N,/TX*%
X142645500Y-101088000D02*
X143258886Y-101088000D01*
X147142200Y-102311200D02*
X147955000Y-103124000D01*
X143258886Y-101088000D02*
X144482086Y-102311200D01*
X144482086Y-102311200D02*
X147142200Y-102311200D01*
D38*
%TO.N,VIN*%
X143294400Y-109245400D02*
X143256000Y-109207000D01*
D37*
X139500000Y-109650000D02*
X139807000Y-109957000D01*
D35*
X143256000Y-107566700D02*
X143052800Y-107363500D01*
D38*
X148031200Y-109245400D02*
X148640800Y-109855000D01*
X148640800Y-109855000D02*
X148640800Y-112725200D01*
D37*
X139500000Y-107450000D02*
X139500000Y-109650000D01*
D39*
X142240000Y-118872000D02*
X147574000Y-118872000D01*
D37*
X136169400Y-105719400D02*
X137100000Y-106650000D01*
D38*
X146913600Y-109245400D02*
X143294400Y-109245400D01*
D37*
X137100000Y-106650000D02*
X137150000Y-106700000D01*
X136169400Y-104140000D02*
X136169400Y-105719400D01*
D39*
X144780000Y-116586000D02*
X146812000Y-114554000D01*
D37*
X139807000Y-109957000D02*
X142506000Y-109957000D01*
D39*
X144780000Y-118872000D02*
X144780000Y-116586000D01*
D38*
X143256000Y-109207000D02*
X143256000Y-107566700D01*
D37*
X136169400Y-103176800D02*
X136169400Y-104140000D01*
D38*
X148640800Y-112725200D02*
X146812000Y-114554000D01*
X146913600Y-109245400D02*
X148031200Y-109245400D01*
D37*
X142506000Y-109957000D02*
X143256000Y-109207000D01*
%TO.N,/USB_D-*%
X146913600Y-107975400D02*
X144957800Y-106019600D01*
X144957800Y-106019600D02*
X144957800Y-105069604D01*
X143697996Y-103809800D02*
X143687800Y-103809800D01*
X143408400Y-102971600D02*
X143687800Y-103251000D01*
X143024800Y-102588000D02*
X143408400Y-102971600D01*
X142645500Y-102588000D02*
X143024800Y-102588000D01*
X143687800Y-103251000D02*
X143687800Y-103809800D01*
X144957800Y-105069604D02*
X143697996Y-103809800D01*
%TO.N,Net-(U1-Pad29)*%
X145567400Y-100380800D02*
X146343600Y-101157000D01*
X142645500Y-100588000D02*
X143936400Y-100588000D01*
X144143600Y-100380800D02*
X145567400Y-100380800D01*
X143936400Y-100588000D02*
X144143600Y-100380800D01*
X146343600Y-101157000D02*
X146343600Y-101255800D01*
%TO.N,Net-(U1-Pad30)*%
X143662400Y-100076000D02*
X144232600Y-99505800D01*
X142657500Y-100076000D02*
X143662400Y-100076000D01*
X142645500Y-100088000D02*
X142657500Y-100076000D01*
X144232600Y-99505800D02*
X144943600Y-99505800D01*
%TO.N,/USB_D+*%
X144087800Y-103633918D02*
X144087800Y-103085315D01*
X146913600Y-106705400D02*
X146608800Y-107010200D01*
X144087800Y-103085315D02*
X143853485Y-102851000D01*
X143853485Y-102851000D02*
X143853485Y-102845833D01*
X146514086Y-107010200D02*
X145367643Y-105863757D01*
X143853485Y-102845833D02*
X143095652Y-102088000D01*
X145367643Y-105863757D02*
X145367643Y-104913761D01*
X145367643Y-104913761D02*
X144087800Y-103633918D01*
X146608800Y-107010200D02*
X146514086Y-107010200D01*
X143095652Y-102088000D02*
X142645500Y-102088000D01*
%TO.N,Net-(C3-Pad1)*%
X139446000Y-96690000D02*
X139446000Y-96875600D01*
X138254400Y-96660000D02*
X138958000Y-97363600D01*
X138958000Y-97363600D02*
X138958000Y-98400500D01*
X138176000Y-96660000D02*
X138254400Y-96660000D01*
X139446000Y-96875600D02*
X138958000Y-97363600D01*
D38*
%TO.N,/L1_GND*%
X132422300Y-106769500D02*
X131902200Y-107289600D01*
X131902200Y-112512200D02*
X133350000Y-113960000D01*
X131902200Y-107289600D02*
X131902200Y-112512200D01*
X133858000Y-106769500D02*
X132422300Y-106769500D01*
%TO.N,/L2_GND*%
X133858000Y-110947200D02*
X136144000Y-113233200D01*
X133858000Y-110337600D02*
X133858000Y-110833500D01*
X133858000Y-110833500D02*
X133858000Y-110947200D01*
X136144000Y-113233200D02*
X136144000Y-113960000D01*
%TO.N,/L3_GND*%
X138938000Y-112268000D02*
X138938000Y-113960000D01*
X137668000Y-110998000D02*
X138938000Y-112268000D01*
X137668000Y-110337600D02*
X137668000Y-110833500D01*
X137668000Y-110833500D02*
X137668000Y-110998000D01*
D37*
%TO.N,/RX*%
X144729200Y-103124000D02*
X145592800Y-103124000D01*
X142645500Y-101588000D02*
X143193200Y-101588000D01*
X143193200Y-101588000D02*
X144729200Y-103124000D01*
%TO.N,Net-(P4-Pad1)*%
X135405400Y-102156800D02*
X136169400Y-102156800D01*
%TO.N,Net-(J1-Pad1)*%
X145800000Y-96400000D02*
X146612500Y-96400000D01*
X146612500Y-96400000D02*
X146812500Y-96200000D01*
%TD*%
%TA.AperFunction,Conductor*%
%TO.N,VIN*%
G36*
X149039007Y-112441625D02*
G01*
X149085809Y-112495011D01*
X149097500Y-112548015D01*
X149097500Y-119929500D01*
X149077498Y-119997621D01*
X149023842Y-120044114D01*
X148971500Y-120055500D01*
X141440870Y-120055500D01*
X141372749Y-120035498D01*
X141326256Y-119981842D01*
X141315169Y-119938169D01*
X141307601Y-119828424D01*
X141273858Y-119339157D01*
X141184888Y-118049085D01*
X141184672Y-118035838D01*
X141190989Y-117862109D01*
X141215305Y-117792167D01*
X144970012Y-112672946D01*
X145026429Y-112629846D01*
X145070821Y-112621468D01*
X147815004Y-112604209D01*
X147815007Y-112604209D01*
X147818322Y-112604188D01*
X147925822Y-112592117D01*
X147929062Y-112591402D01*
X147929065Y-112591401D01*
X147974131Y-112581449D01*
X147974136Y-112581448D01*
X147977372Y-112580733D01*
X148079957Y-112546410D01*
X148202912Y-112467392D01*
X148206303Y-112464454D01*
X148206308Y-112464450D01*
X148215271Y-112456683D01*
X148279853Y-112427191D01*
X148297054Y-112425911D01*
X148970772Y-112422017D01*
X149039007Y-112441625D01*
G37*
%TD.AperFunction*%
%TD*%
%TA.AperFunction,Conductor*%
%TO.N,GND*%
G36*
X136573018Y-106551243D02*
G01*
X136591596Y-106566567D01*
X136609173Y-106584144D01*
X136643199Y-106646456D01*
X136644080Y-106675956D01*
X136645882Y-106675978D01*
X136645772Y-106684951D01*
X136644391Y-106693823D01*
X136645555Y-106702725D01*
X136645555Y-106702728D01*
X136649041Y-106729385D01*
X136662980Y-106835979D01*
X136672644Y-106857941D01*
X136713110Y-106949907D01*
X136720720Y-106967203D01*
X136726497Y-106974076D01*
X136726498Y-106974077D01*
X136806258Y-107068963D01*
X136812970Y-107076948D01*
X136847674Y-107100049D01*
X136916472Y-107145845D01*
X136932313Y-107156390D01*
X137069157Y-107199142D01*
X137078129Y-107199306D01*
X137078132Y-107199307D01*
X137143463Y-107200504D01*
X137212499Y-107201770D01*
X137221533Y-107199307D01*
X137342158Y-107166421D01*
X137342160Y-107166420D01*
X137350817Y-107164060D01*
X137472991Y-107089045D01*
X137479014Y-107082390D01*
X137485923Y-107076655D01*
X137488345Y-107079573D01*
X137533703Y-107051814D01*
X137604682Y-107053376D01*
X137642798Y-107073166D01*
X137658532Y-107085130D01*
X137671358Y-107096329D01*
X138280596Y-107705568D01*
X138314621Y-107767880D01*
X138317500Y-107794663D01*
X138317500Y-107979070D01*
X138297498Y-108047191D01*
X138267112Y-108079138D01*
X138261145Y-108082068D01*
X138178707Y-108164650D01*
X138127464Y-108269482D01*
X138117500Y-108337782D01*
X138117500Y-109573643D01*
X138097498Y-109641764D01*
X138043842Y-109688257D01*
X137973568Y-109698361D01*
X137932538Y-109684996D01*
X137927591Y-109682376D01*
X137927586Y-109682374D01*
X137920881Y-109678824D01*
X137756441Y-109637519D01*
X137748843Y-109637479D01*
X137748841Y-109637479D01*
X137671668Y-109637075D01*
X137586895Y-109636631D01*
X137579508Y-109638405D01*
X137579504Y-109638405D01*
X137450718Y-109669325D01*
X137422032Y-109676212D01*
X137415288Y-109679693D01*
X137415285Y-109679694D01*
X137278117Y-109750492D01*
X137271369Y-109753975D01*
X137265647Y-109758967D01*
X137265645Y-109758968D01*
X137234979Y-109785720D01*
X137143604Y-109865431D01*
X137121305Y-109897159D01*
X137051787Y-109996074D01*
X137046113Y-110004147D01*
X136984524Y-110162113D01*
X136983532Y-110169646D01*
X136983532Y-110169647D01*
X136971979Y-110257405D01*
X136967500Y-110291426D01*
X136967500Y-110969359D01*
X136967208Y-110977929D01*
X136963322Y-111034930D01*
X136964627Y-111042406D01*
X136964627Y-111042409D01*
X136974178Y-111097132D01*
X136975141Y-111103658D01*
X136976577Y-111115520D01*
X136982724Y-111166320D01*
X136985409Y-111173427D01*
X136986218Y-111176720D01*
X136990177Y-111191191D01*
X136991166Y-111194467D01*
X136992473Y-111201954D01*
X136995528Y-111208913D01*
X136995528Y-111208914D01*
X137017847Y-111259760D01*
X137020339Y-111265866D01*
X137037935Y-111312431D01*
X137042655Y-111324923D01*
X137046954Y-111331178D01*
X137048535Y-111334203D01*
X137055825Y-111347299D01*
X137057566Y-111350243D01*
X137060621Y-111357202D01*
X137065246Y-111363230D01*
X137065247Y-111363231D01*
X137099042Y-111407273D01*
X137102919Y-111412609D01*
X137134381Y-111458386D01*
X137134386Y-111458392D01*
X137138688Y-111464651D01*
X137144359Y-111469704D01*
X137149382Y-111475401D01*
X137148285Y-111476368D01*
X137177421Y-111521613D01*
X137177642Y-111523112D01*
X137181957Y-111531900D01*
X137181957Y-111531901D01*
X137181958Y-111531902D01*
X137229068Y-111627855D01*
X137311650Y-111710293D01*
X137416482Y-111761536D01*
X137421998Y-111762341D01*
X137471579Y-111792235D01*
X138173750Y-112494406D01*
X138207776Y-112556718D01*
X138202711Y-112627533D01*
X138160164Y-112684369D01*
X138093644Y-112709180D01*
X138090100Y-112709307D01*
X138090103Y-112709361D01*
X138087133Y-112709501D01*
X138084168Y-112709501D01*
X138081218Y-112709780D01*
X138081213Y-112709780D01*
X138070594Y-112710784D01*
X138052632Y-112712481D01*
X138045391Y-112715024D01*
X138045390Y-112715024D01*
X137933706Y-112754244D01*
X137933704Y-112754245D01*
X137924817Y-112757366D01*
X137815850Y-112837850D01*
X137735366Y-112946817D01*
X137732245Y-112955704D01*
X137732244Y-112955706D01*
X137713752Y-113008366D01*
X137690481Y-113074632D01*
X137687500Y-113106167D01*
X137687501Y-114813832D01*
X137690481Y-114845368D01*
X137735366Y-114973183D01*
X137815850Y-115082150D01*
X137924817Y-115162634D01*
X137933704Y-115165755D01*
X137933706Y-115165756D01*
X138032000Y-115200274D01*
X138052632Y-115207519D01*
X138060278Y-115208242D01*
X138060279Y-115208242D01*
X138066249Y-115208806D01*
X138084167Y-115210500D01*
X138937567Y-115210500D01*
X139791832Y-115210499D01*
X139794782Y-115210220D01*
X139794787Y-115210220D01*
X139805406Y-115209216D01*
X139823368Y-115207519D01*
X139830609Y-115204976D01*
X139830610Y-115204976D01*
X139942294Y-115165756D01*
X139942296Y-115165755D01*
X139951183Y-115162634D01*
X140060150Y-115082150D01*
X140140634Y-114973183D01*
X140185519Y-114845368D01*
X140188500Y-114813833D01*
X140188499Y-113106168D01*
X140185519Y-113074632D01*
X140167113Y-113022219D01*
X140143756Y-112955706D01*
X140143755Y-112955704D01*
X140140634Y-112946817D01*
X140060150Y-112837850D01*
X139951183Y-112757366D01*
X139942296Y-112754245D01*
X139942294Y-112754244D01*
X139830615Y-112715026D01*
X139823368Y-112712481D01*
X139815722Y-112711758D01*
X139815721Y-112711758D01*
X139809751Y-112711194D01*
X139791833Y-112709500D01*
X139764500Y-112709500D01*
X139696379Y-112689498D01*
X139649886Y-112635842D01*
X139638500Y-112583500D01*
X139638500Y-112296641D01*
X139638792Y-112288071D01*
X139642162Y-112238646D01*
X139642162Y-112238642D01*
X139642678Y-112231070D01*
X139641373Y-112223591D01*
X139631822Y-112168868D01*
X139630859Y-112162342D01*
X139624189Y-112107226D01*
X139623276Y-112099680D01*
X139620591Y-112092573D01*
X139619782Y-112089280D01*
X139615823Y-112074809D01*
X139614834Y-112071533D01*
X139613527Y-112064046D01*
X139610472Y-112057086D01*
X139588154Y-112006242D01*
X139585662Y-112000137D01*
X139572271Y-111964700D01*
X139563345Y-111941077D01*
X139559047Y-111934824D01*
X139557463Y-111931793D01*
X139550183Y-111918716D01*
X139548433Y-111915757D01*
X139545378Y-111908797D01*
X139540753Y-111902770D01*
X139540751Y-111902766D01*
X139506938Y-111858700D01*
X139503073Y-111853381D01*
X139467312Y-111801349D01*
X139421351Y-111760399D01*
X139416076Y-111755419D01*
X138405405Y-110744748D01*
X138371379Y-110682436D01*
X138368500Y-110655653D01*
X138368500Y-110295084D01*
X138353276Y-110169280D01*
X138314578Y-110066868D01*
X138309210Y-109996074D01*
X138342968Y-109933617D01*
X138405134Y-109899325D01*
X138434782Y-109897159D01*
X138434782Y-109896500D01*
X138801218Y-109896500D01*
X138805768Y-109895830D01*
X138805771Y-109895830D01*
X138860426Y-109887784D01*
X138860427Y-109887784D01*
X138870112Y-109886358D01*
X138922907Y-109860437D01*
X138965507Y-109839522D01*
X138965509Y-109839521D01*
X138974855Y-109834932D01*
X139037379Y-109772299D01*
X139099662Y-109738220D01*
X139170482Y-109743223D01*
X139227354Y-109785720D01*
X139242318Y-109811578D01*
X139245964Y-109820063D01*
X139249978Y-109824949D01*
X139252163Y-109827134D01*
X139254215Y-109829397D01*
X139254055Y-109829542D01*
X139261175Y-109838549D01*
X139267427Y-109845444D01*
X139273532Y-109855348D01*
X139295320Y-109871916D01*
X139308139Y-109883110D01*
X139557481Y-110132452D01*
X139559237Y-110134486D01*
X139561575Y-110139269D01*
X139570104Y-110147181D01*
X139570105Y-110147182D01*
X139597477Y-110172573D01*
X139600882Y-110175853D01*
X139614277Y-110189248D01*
X139618247Y-110191972D01*
X139620895Y-110194297D01*
X139624184Y-110197348D01*
X139643646Y-110215401D01*
X139654453Y-110219713D01*
X139658438Y-110222232D01*
X139669247Y-110228004D01*
X139673552Y-110229911D01*
X139683146Y-110236493D01*
X139707099Y-110242177D01*
X139707136Y-110242186D01*
X139724732Y-110247751D01*
X139747622Y-110256883D01*
X139753915Y-110257500D01*
X139756997Y-110257500D01*
X139760067Y-110257650D01*
X139760056Y-110257866D01*
X139771431Y-110259198D01*
X139780745Y-110259653D01*
X139792066Y-110262340D01*
X139803595Y-110260771D01*
X139803596Y-110260771D01*
X139819173Y-110258651D01*
X139836164Y-110257500D01*
X142453634Y-110257500D01*
X142456307Y-110257696D01*
X142461342Y-110259425D01*
X142472964Y-110258989D01*
X142472966Y-110258989D01*
X142510255Y-110257589D01*
X142514981Y-110257500D01*
X142533948Y-110257500D01*
X142538683Y-110256618D01*
X142542209Y-110256390D01*
X142545949Y-110256249D01*
X142573208Y-110255226D01*
X142583893Y-110250636D01*
X142588493Y-110249599D01*
X142600214Y-110246038D01*
X142604617Y-110244339D01*
X142616053Y-110242209D01*
X142637041Y-110229272D01*
X142653411Y-110220769D01*
X142667888Y-110214549D01*
X142667892Y-110214547D01*
X142676063Y-110211036D01*
X142680949Y-110207022D01*
X142683134Y-110204837D01*
X142685397Y-110202785D01*
X142685542Y-110202945D01*
X142694549Y-110195825D01*
X142701444Y-110189573D01*
X142711348Y-110183468D01*
X142727916Y-110161680D01*
X142739110Y-110148861D01*
X142943227Y-109944744D01*
X143005539Y-109910718D01*
X143070002Y-109913605D01*
X143076461Y-109915629D01*
X143083384Y-109918755D01*
X143090851Y-109920139D01*
X143094112Y-109921161D01*
X143108564Y-109925277D01*
X143111837Y-109926117D01*
X143118913Y-109928876D01*
X143163583Y-109934756D01*
X143181506Y-109937116D01*
X143188023Y-109938148D01*
X143229435Y-109945823D01*
X143250092Y-109949652D01*
X143257672Y-109949215D01*
X143257673Y-109949215D01*
X143311544Y-109946109D01*
X143318796Y-109945900D01*
X146215049Y-109945900D01*
X146283170Y-109965902D01*
X146329663Y-110019558D01*
X146339767Y-110089832D01*
X146318136Y-110144350D01*
X146291713Y-110181947D01*
X146230124Y-110339913D01*
X146207994Y-110508011D01*
X146226599Y-110676535D01*
X146284866Y-110835756D01*
X146289102Y-110842059D01*
X146289102Y-110842060D01*
X146302174Y-110861513D01*
X146379430Y-110976483D01*
X146385042Y-110981590D01*
X146385045Y-110981593D01*
X146499212Y-111085477D01*
X146499216Y-111085480D01*
X146504833Y-111090591D01*
X146511506Y-111094214D01*
X146511510Y-111094217D01*
X146647158Y-111167867D01*
X146647160Y-111167868D01*
X146653835Y-111171492D01*
X146661184Y-111173420D01*
X146810483Y-111212588D01*
X146810485Y-111212588D01*
X146817833Y-111214516D01*
X146904209Y-111215873D01*
X146979761Y-111217060D01*
X146979764Y-111217060D01*
X146987360Y-111217179D01*
X146994765Y-111215483D01*
X146994766Y-111215483D01*
X147055186Y-111201645D01*
X147152629Y-111179328D01*
X147304098Y-111103147D01*
X147433023Y-110993034D01*
X147531961Y-110855347D01*
X147539837Y-110835756D01*
X147592366Y-110705087D01*
X147592367Y-110705085D01*
X147595201Y-110698034D01*
X147619090Y-110530178D01*
X147619245Y-110515400D01*
X147617440Y-110500480D01*
X147599788Y-110354620D01*
X147598876Y-110347080D01*
X147538945Y-110188477D01*
X147529140Y-110174211D01*
X147507873Y-110143267D01*
X147485773Y-110075798D01*
X147503658Y-110007091D01*
X147555850Y-109958960D01*
X147611713Y-109945900D01*
X147688853Y-109945900D01*
X147756974Y-109965902D01*
X147777949Y-109982805D01*
X147903396Y-110108253D01*
X147937421Y-110170565D01*
X147940300Y-110197348D01*
X147940300Y-111964700D01*
X147920298Y-112032821D01*
X147866642Y-112079314D01*
X147815092Y-112090698D01*
X144764208Y-112109886D01*
X144746093Y-112110000D01*
X143915831Y-113241991D01*
X141694646Y-116270388D01*
X140646093Y-117700000D01*
X140687204Y-118296115D01*
X140816825Y-120175618D01*
X140801558Y-120244953D01*
X140751228Y-120295028D01*
X140691392Y-120310287D01*
X138007027Y-120316004D01*
X136561600Y-120319083D01*
X136493437Y-120299226D01*
X136446830Y-120245669D01*
X136436577Y-120175417D01*
X136454072Y-120126967D01*
X136499816Y-120052756D01*
X136505963Y-120039575D01*
X136557138Y-119885289D01*
X136560005Y-119871913D01*
X136569672Y-119777560D01*
X136570000Y-119771144D01*
X136570000Y-118296115D01*
X136565525Y-118280876D01*
X136564135Y-118279671D01*
X136556452Y-118278000D01*
X133984000Y-118278000D01*
X133915879Y-118257998D01*
X133869386Y-118204342D01*
X133858000Y-118152000D01*
X133858000Y-117751885D01*
X134366000Y-117751885D01*
X134370475Y-117767124D01*
X134371865Y-117768329D01*
X134379548Y-117770000D01*
X136551884Y-117770000D01*
X136567123Y-117765525D01*
X136568328Y-117764135D01*
X136569999Y-117756452D01*
X136569999Y-116276907D01*
X136569662Y-116270388D01*
X136559743Y-116174795D01*
X136556851Y-116161401D01*
X136505412Y-116007217D01*
X136499239Y-115994039D01*
X136413937Y-115856194D01*
X136404901Y-115844793D01*
X136290170Y-115730261D01*
X136278759Y-115721249D01*
X136140756Y-115636184D01*
X136127575Y-115630037D01*
X135973289Y-115578862D01*
X135959913Y-115575995D01*
X135865560Y-115566328D01*
X135859143Y-115566000D01*
X134384115Y-115566000D01*
X134368876Y-115570475D01*
X134367671Y-115571865D01*
X134366000Y-115579548D01*
X134366000Y-117751885D01*
X133858000Y-117751885D01*
X133858000Y-115584116D01*
X133853525Y-115568877D01*
X133852135Y-115567672D01*
X133844452Y-115566001D01*
X132364907Y-115566001D01*
X132358388Y-115566338D01*
X132262795Y-115576257D01*
X132249401Y-115579149D01*
X132095217Y-115630588D01*
X132082039Y-115636761D01*
X131944194Y-115722063D01*
X131932793Y-115731099D01*
X131818261Y-115845830D01*
X131809249Y-115857241D01*
X131724184Y-115995244D01*
X131718036Y-116008427D01*
X131691376Y-116088805D01*
X131650945Y-116147165D01*
X131585381Y-116174402D01*
X131515500Y-116161869D01*
X131463488Y-116113544D01*
X131445783Y-116048853D01*
X131451877Y-113356438D01*
X131472034Y-113288363D01*
X131525794Y-113241991D01*
X131596091Y-113232046D01*
X131660605Y-113261686D01*
X131666972Y-113267628D01*
X132062595Y-113663251D01*
X132096621Y-113725563D01*
X132099500Y-113752346D01*
X132099501Y-114813832D01*
X132102481Y-114845368D01*
X132147366Y-114973183D01*
X132227850Y-115082150D01*
X132336817Y-115162634D01*
X132345704Y-115165755D01*
X132345706Y-115165756D01*
X132444000Y-115200274D01*
X132464632Y-115207519D01*
X132472278Y-115208242D01*
X132472279Y-115208242D01*
X132478249Y-115208806D01*
X132496167Y-115210500D01*
X133349567Y-115210500D01*
X134203832Y-115210499D01*
X134206782Y-115210220D01*
X134206787Y-115210220D01*
X134217406Y-115209216D01*
X134235368Y-115207519D01*
X134242609Y-115204976D01*
X134242610Y-115204976D01*
X134354294Y-115165756D01*
X134354296Y-115165755D01*
X134363183Y-115162634D01*
X134472150Y-115082150D01*
X134552634Y-114973183D01*
X134597519Y-114845368D01*
X134600500Y-114813833D01*
X134600499Y-113106168D01*
X134597519Y-113074632D01*
X134579113Y-113022219D01*
X134565892Y-112984569D01*
X134562194Y-112913668D01*
X134597414Y-112852024D01*
X134660371Y-112819207D01*
X134731076Y-112825636D01*
X134773866Y-112853722D01*
X134866199Y-112946056D01*
X134900223Y-113008366D01*
X134900174Y-113062156D01*
X134899028Y-113067381D01*
X134896481Y-113074632D01*
X134893500Y-113106167D01*
X134893501Y-114813832D01*
X134896481Y-114845368D01*
X134941366Y-114973183D01*
X135021850Y-115082150D01*
X135130817Y-115162634D01*
X135139704Y-115165755D01*
X135139706Y-115165756D01*
X135238000Y-115200274D01*
X135258632Y-115207519D01*
X135266278Y-115208242D01*
X135266279Y-115208242D01*
X135272249Y-115208806D01*
X135290167Y-115210500D01*
X136143567Y-115210500D01*
X136997832Y-115210499D01*
X137000782Y-115210220D01*
X137000787Y-115210220D01*
X137011406Y-115209216D01*
X137029368Y-115207519D01*
X137036609Y-115204976D01*
X137036610Y-115204976D01*
X137148294Y-115165756D01*
X137148296Y-115165755D01*
X137157183Y-115162634D01*
X137266150Y-115082150D01*
X137346634Y-114973183D01*
X137391519Y-114845368D01*
X137394500Y-114813833D01*
X137394499Y-113106168D01*
X137391519Y-113074632D01*
X137373113Y-113022219D01*
X137349756Y-112955706D01*
X137349755Y-112955704D01*
X137346634Y-112946817D01*
X137266150Y-112837850D01*
X137157183Y-112757366D01*
X137148296Y-112754245D01*
X137148294Y-112754244D01*
X137036615Y-112715026D01*
X137029368Y-112712481D01*
X137021722Y-112711758D01*
X137021721Y-112711758D01*
X137015751Y-112711194D01*
X136997833Y-112709500D01*
X136663146Y-112709500D01*
X136595025Y-112689498D01*
X136574051Y-112672595D01*
X134595405Y-110693948D01*
X134561379Y-110631636D01*
X134558500Y-110604853D01*
X134558500Y-110295084D01*
X134543276Y-110169280D01*
X134504578Y-110066868D01*
X134499210Y-109996074D01*
X134532968Y-109933617D01*
X134595134Y-109899325D01*
X134624782Y-109897159D01*
X134624782Y-109896500D01*
X134991218Y-109896500D01*
X134995768Y-109895830D01*
X134995771Y-109895830D01*
X135050426Y-109887784D01*
X135050427Y-109887784D01*
X135060112Y-109886358D01*
X135112907Y-109860437D01*
X135155507Y-109839522D01*
X135155509Y-109839521D01*
X135164855Y-109834932D01*
X135227379Y-109772299D01*
X135239935Y-109759721D01*
X135239935Y-109759720D01*
X135247293Y-109752350D01*
X135298536Y-109647518D01*
X135305507Y-109599735D01*
X135307840Y-109583744D01*
X135307840Y-109583740D01*
X135308500Y-109579218D01*
X135308500Y-108337782D01*
X135305198Y-108315347D01*
X135299784Y-108278574D01*
X135299784Y-108278573D01*
X135298358Y-108268888D01*
X135246932Y-108164145D01*
X135247891Y-108163674D01*
X135227732Y-108105901D01*
X135244296Y-108036864D01*
X135264479Y-108010494D01*
X136129128Y-107145845D01*
X136131157Y-107144094D01*
X136135937Y-107141757D01*
X136169228Y-107105869D01*
X136172508Y-107102464D01*
X136185916Y-107089056D01*
X136188646Y-107085077D01*
X136190954Y-107082448D01*
X136212069Y-107059686D01*
X136216380Y-107048879D01*
X136218906Y-107044884D01*
X136224669Y-107034090D01*
X136226580Y-107029778D01*
X136233160Y-107020186D01*
X136237444Y-107002136D01*
X136238851Y-106996205D01*
X136244416Y-106978608D01*
X136250256Y-106963970D01*
X136250257Y-106963967D01*
X136253551Y-106955710D01*
X136254168Y-106949417D01*
X136254168Y-106946338D01*
X136254318Y-106943265D01*
X136254534Y-106943276D01*
X136255866Y-106931901D01*
X136256322Y-106922586D01*
X136259008Y-106911266D01*
X136255319Y-106884159D01*
X136254168Y-106867168D01*
X136254168Y-106813940D01*
X136274170Y-106745819D01*
X136286753Y-106729385D01*
X136366844Y-106640902D01*
X136366849Y-106640895D01*
X136372868Y-106634245D01*
X136389110Y-106600722D01*
X136436812Y-106548140D01*
X136505370Y-106529695D01*
X136573018Y-106551243D01*
G37*
%TD.AperFunction*%
%TA.AperFunction,Conductor*%
G36*
X134042821Y-99546008D02*
G01*
X134073673Y-99568644D01*
X134315295Y-99810266D01*
X134349321Y-99872578D01*
X134352200Y-99899361D01*
X134352200Y-101336299D01*
X134348795Y-101365392D01*
X134343960Y-101385766D01*
X134345529Y-101397296D01*
X134345529Y-101397297D01*
X134353213Y-101453762D01*
X134353532Y-101457436D01*
X134353990Y-101459469D01*
X134354044Y-101459865D01*
X134354474Y-101471308D01*
X134354613Y-101471630D01*
X134354372Y-101475389D01*
X134356125Y-101475150D01*
X134359056Y-101496689D01*
X134364668Y-101506876D01*
X134364668Y-101506877D01*
X134366885Y-101510901D01*
X134366136Y-101511314D01*
X134367144Y-101514365D01*
X134367490Y-101514152D01*
X134377028Y-101529625D01*
X134380130Y-101534944D01*
X134384806Y-101543432D01*
X134390213Y-101554494D01*
X134395150Y-101565985D01*
X134398664Y-101574163D01*
X134402678Y-101579049D01*
X134403760Y-101580131D01*
X134403796Y-101580190D01*
X134405451Y-101582108D01*
X134407458Y-101584551D01*
X134413071Y-101594740D01*
X134421569Y-101601883D01*
X134426232Y-101609448D01*
X134448020Y-101626016D01*
X134460839Y-101637210D01*
X134904262Y-102080633D01*
X134938288Y-102142945D01*
X134933223Y-102213760D01*
X134890676Y-102270596D01*
X134882403Y-102276289D01*
X134829374Y-102309748D01*
X134829371Y-102309750D01*
X134821780Y-102314540D01*
X134726877Y-102421998D01*
X134665947Y-102551773D01*
X134661611Y-102579622D01*
X134650224Y-102652760D01*
X134643891Y-102693433D01*
X134645055Y-102702334D01*
X134645055Y-102702338D01*
X134645696Y-102707236D01*
X134634696Y-102777375D01*
X134613134Y-102809265D01*
X134592426Y-102831588D01*
X134589147Y-102834992D01*
X134575752Y-102848387D01*
X134573028Y-102852357D01*
X134570703Y-102855005D01*
X134557508Y-102869229D01*
X134557506Y-102869232D01*
X134549599Y-102877756D01*
X134545289Y-102888560D01*
X134542767Y-102892549D01*
X134537006Y-102903337D01*
X134535089Y-102907662D01*
X134528508Y-102917256D01*
X134525822Y-102928575D01*
X134525821Y-102928577D01*
X134522817Y-102941237D01*
X134517252Y-102958834D01*
X134513697Y-102967745D01*
X134508117Y-102981732D01*
X134507500Y-102988025D01*
X134507500Y-102991104D01*
X134507350Y-102994177D01*
X134507134Y-102994166D01*
X134505802Y-103005541D01*
X134505346Y-103014856D01*
X134502660Y-103026176D01*
X134504229Y-103037705D01*
X134504229Y-103037706D01*
X134506349Y-103053283D01*
X134507500Y-103070274D01*
X134507500Y-103915070D01*
X134487498Y-103983191D01*
X134457112Y-104015138D01*
X134451145Y-104018068D01*
X134368707Y-104100650D01*
X134364134Y-104110006D01*
X134364133Y-104110007D01*
X134362593Y-104113157D01*
X134317464Y-104205482D01*
X134307500Y-104273782D01*
X134307500Y-105515218D01*
X134308170Y-105519768D01*
X134308170Y-105519771D01*
X134316216Y-105574426D01*
X134317642Y-105584112D01*
X134369068Y-105688855D01*
X134376438Y-105696212D01*
X134433055Y-105752730D01*
X134451650Y-105771293D01*
X134556482Y-105822536D01*
X134586973Y-105826984D01*
X134620256Y-105831840D01*
X134620260Y-105831840D01*
X134624782Y-105832500D01*
X134991218Y-105832500D01*
X134995768Y-105831830D01*
X134995771Y-105831830D01*
X135050426Y-105823784D01*
X135050427Y-105823784D01*
X135060112Y-105822358D01*
X135154804Y-105775867D01*
X135155507Y-105775522D01*
X135155509Y-105775521D01*
X135164855Y-105770932D01*
X135226134Y-105709546D01*
X135239935Y-105695721D01*
X135239935Y-105695720D01*
X135247293Y-105688350D01*
X135256686Y-105669135D01*
X135273871Y-105633978D01*
X135298536Y-105583518D01*
X135308500Y-105515218D01*
X135308500Y-104273782D01*
X135301670Y-104227382D01*
X135299784Y-104214574D01*
X135299784Y-104214573D01*
X135298358Y-104204888D01*
X135262223Y-104131289D01*
X135251522Y-104109493D01*
X135251521Y-104109491D01*
X135246932Y-104100145D01*
X135195729Y-104049031D01*
X135171722Y-104025066D01*
X135171721Y-104025066D01*
X135164350Y-104017707D01*
X135159519Y-104015346D01*
X135117489Y-103961814D01*
X135108500Y-103915076D01*
X135108500Y-103324268D01*
X135128502Y-103256147D01*
X135182158Y-103209654D01*
X135211397Y-103201369D01*
X135211999Y-103201380D01*
X135220658Y-103199019D01*
X135220660Y-103199019D01*
X135341658Y-103166031D01*
X135341660Y-103166030D01*
X135350317Y-103163670D01*
X135456972Y-103098184D01*
X135525489Y-103079586D01*
X135593184Y-103100983D01*
X135638565Y-103155582D01*
X135648900Y-103205559D01*
X135648900Y-103351116D01*
X135655332Y-103399973D01*
X135659406Y-103408709D01*
X135659406Y-103408710D01*
X135693306Y-103481408D01*
X135705335Y-103507204D01*
X135788996Y-103590865D01*
X135798989Y-103595525D01*
X135808019Y-103601848D01*
X135806805Y-103603582D01*
X135849435Y-103641119D01*
X135868900Y-103708396D01*
X135868900Y-105667034D01*
X135868704Y-105669707D01*
X135866975Y-105674742D01*
X135867411Y-105686364D01*
X135867411Y-105686366D01*
X135868811Y-105723655D01*
X135868900Y-105728381D01*
X135868900Y-105747348D01*
X135869280Y-105749388D01*
X135855858Y-105817863D01*
X135806703Y-105869091D01*
X135778672Y-105880923D01*
X135747197Y-105889919D01*
X135625948Y-105966421D01*
X135620006Y-105973149D01*
X135620005Y-105973150D01*
X135608974Y-105985640D01*
X135531045Y-106073879D01*
X135470115Y-106203654D01*
X135468734Y-106212526D01*
X135452162Y-106318963D01*
X135448059Y-106345314D01*
X135449223Y-106354216D01*
X135449223Y-106354219D01*
X135454872Y-106397419D01*
X135466648Y-106487470D01*
X135485765Y-106530917D01*
X135516481Y-106600723D01*
X135524388Y-106618694D01*
X135571283Y-106674482D01*
X135578796Y-106683420D01*
X135607316Y-106748436D01*
X135596160Y-106818551D01*
X135571439Y-106853590D01*
X134632548Y-107792481D01*
X134630514Y-107794237D01*
X134625731Y-107796575D01*
X134617819Y-107805104D01*
X134617818Y-107805105D01*
X134592427Y-107832477D01*
X134589147Y-107835882D01*
X134575752Y-107849277D01*
X134573028Y-107853247D01*
X134570703Y-107855895D01*
X134557508Y-107870119D01*
X134557506Y-107870122D01*
X134549599Y-107878646D01*
X134545289Y-107889450D01*
X134542767Y-107893439D01*
X134537006Y-107904227D01*
X134535089Y-107908552D01*
X134528508Y-107918146D01*
X134525822Y-107929465D01*
X134525821Y-107929467D01*
X134522817Y-107942127D01*
X134517252Y-107959724D01*
X134513946Y-107968011D01*
X134508117Y-107982622D01*
X134507500Y-107988915D01*
X134507500Y-107990440D01*
X134505146Y-108000115D01*
X134502749Y-107999532D01*
X134484555Y-108051913D01*
X134457614Y-108078892D01*
X134451145Y-108082068D01*
X134443790Y-108089436D01*
X134443787Y-108089438D01*
X134396773Y-108136535D01*
X134368707Y-108164650D01*
X134317464Y-108269482D01*
X134307500Y-108337782D01*
X134307500Y-109573643D01*
X134287498Y-109641764D01*
X134233842Y-109688257D01*
X134163568Y-109698361D01*
X134122538Y-109684996D01*
X134117591Y-109682376D01*
X134117586Y-109682374D01*
X134110881Y-109678824D01*
X133946441Y-109637519D01*
X133938843Y-109637479D01*
X133938841Y-109637479D01*
X133861668Y-109637075D01*
X133776895Y-109636631D01*
X133769508Y-109638405D01*
X133769504Y-109638405D01*
X133640718Y-109669325D01*
X133612032Y-109676212D01*
X133605288Y-109679693D01*
X133605285Y-109679694D01*
X133468117Y-109750492D01*
X133461369Y-109753975D01*
X133455647Y-109758967D01*
X133455645Y-109758968D01*
X133424979Y-109785720D01*
X133333604Y-109865431D01*
X133311305Y-109897159D01*
X133241787Y-109996074D01*
X133236113Y-110004147D01*
X133174524Y-110162113D01*
X133173532Y-110169646D01*
X133173532Y-110169647D01*
X133161979Y-110257405D01*
X133157500Y-110291426D01*
X133157500Y-110918559D01*
X133157208Y-110927129D01*
X133154037Y-110973646D01*
X133153322Y-110984130D01*
X133154627Y-110991606D01*
X133154627Y-110991609D01*
X133164178Y-111046332D01*
X133165141Y-111052858D01*
X133169707Y-111090591D01*
X133172724Y-111115520D01*
X133175409Y-111122627D01*
X133176218Y-111125920D01*
X133180177Y-111140391D01*
X133181166Y-111143667D01*
X133182473Y-111151154D01*
X133185528Y-111158113D01*
X133185528Y-111158114D01*
X133207847Y-111208960D01*
X133210339Y-111215066D01*
X133228368Y-111262777D01*
X133232655Y-111274123D01*
X133236954Y-111280378D01*
X133238535Y-111283403D01*
X133245825Y-111296499D01*
X133247566Y-111299443D01*
X133250621Y-111306402D01*
X133255246Y-111312430D01*
X133255247Y-111312431D01*
X133289042Y-111356473D01*
X133292919Y-111361809D01*
X133324385Y-111407591D01*
X133324388Y-111407594D01*
X133328688Y-111413851D01*
X133331803Y-111416626D01*
X133361337Y-111480290D01*
X133366214Y-111513420D01*
X133366216Y-111513427D01*
X133367642Y-111523112D01*
X133419068Y-111627855D01*
X133501650Y-111710293D01*
X133606482Y-111761536D01*
X133653170Y-111768347D01*
X133717690Y-111797973D01*
X133724062Y-111803918D01*
X134456276Y-112536132D01*
X134490300Y-112598443D01*
X134485235Y-112669259D01*
X134442688Y-112726094D01*
X134376168Y-112750905D01*
X134325430Y-112744108D01*
X134242619Y-112715027D01*
X134242616Y-112715026D01*
X134235368Y-112712481D01*
X134227722Y-112711758D01*
X134227721Y-112711758D01*
X134221751Y-112711194D01*
X134203833Y-112709500D01*
X134144003Y-112709500D01*
X133142348Y-112709501D01*
X133074227Y-112689499D01*
X133053253Y-112672596D01*
X132639605Y-112258948D01*
X132605579Y-112196636D01*
X132602700Y-112169853D01*
X132602700Y-107631946D01*
X132622702Y-107563825D01*
X132639605Y-107542851D01*
X132675551Y-107506905D01*
X132737863Y-107472879D01*
X132764646Y-107470000D01*
X133294484Y-107470000D01*
X133362605Y-107490002D01*
X133407586Y-107540469D01*
X133419068Y-107563855D01*
X133501650Y-107646293D01*
X133606482Y-107697536D01*
X133636973Y-107701984D01*
X133670256Y-107706840D01*
X133670260Y-107706840D01*
X133674782Y-107707500D01*
X134041218Y-107707500D01*
X134045768Y-107706830D01*
X134045771Y-107706830D01*
X134100426Y-107698784D01*
X134100427Y-107698784D01*
X134110112Y-107697358D01*
X134180788Y-107662658D01*
X134205507Y-107650522D01*
X134205509Y-107650521D01*
X134214855Y-107645932D01*
X134270638Y-107590052D01*
X134289935Y-107570721D01*
X134289935Y-107570720D01*
X134297293Y-107563350D01*
X134308477Y-107540471D01*
X134320923Y-107515008D01*
X134348536Y-107458518D01*
X134356677Y-107402715D01*
X134357840Y-107394744D01*
X134357840Y-107394740D01*
X134358500Y-107390218D01*
X134358500Y-107308809D01*
X134378502Y-107240688D01*
X134390417Y-107224999D01*
X134437440Y-107172221D01*
X134444248Y-107159364D01*
X134492509Y-107068214D01*
X134516776Y-107022381D01*
X134558081Y-106857941D01*
X134558312Y-106813940D01*
X134558632Y-106752756D01*
X134558969Y-106688395D01*
X134555487Y-106673888D01*
X134521161Y-106530917D01*
X134519388Y-106523532D01*
X134500382Y-106486707D01*
X134445108Y-106379617D01*
X134445108Y-106379616D01*
X134441625Y-106372869D01*
X134436632Y-106367145D01*
X134389551Y-106313175D01*
X134359843Y-106248693D01*
X134358500Y-106230346D01*
X134358500Y-106148782D01*
X134357259Y-106140347D01*
X134349784Y-106089574D01*
X134349784Y-106089573D01*
X134348358Y-106079888D01*
X134302697Y-105986886D01*
X134301522Y-105984493D01*
X134301521Y-105984491D01*
X134296932Y-105975145D01*
X134214350Y-105892707D01*
X134203602Y-105887453D01*
X134152970Y-105862704D01*
X134109518Y-105841464D01*
X134079027Y-105837016D01*
X134045744Y-105832160D01*
X134045740Y-105832160D01*
X134041218Y-105831500D01*
X133674782Y-105831500D01*
X133670232Y-105832170D01*
X133670229Y-105832170D01*
X133615574Y-105840216D01*
X133615573Y-105840216D01*
X133605888Y-105841642D01*
X133587651Y-105850596D01*
X133510493Y-105888478D01*
X133510491Y-105888479D01*
X133501145Y-105893068D01*
X133493787Y-105900438D01*
X133493788Y-105900438D01*
X133432702Y-105961631D01*
X133418707Y-105975650D01*
X133414133Y-105985008D01*
X133407618Y-105998335D01*
X133359732Y-106050751D01*
X133294419Y-106069000D01*
X132450937Y-106069000D01*
X132442366Y-106068708D01*
X132385370Y-106064822D01*
X132377894Y-106066127D01*
X132377890Y-106066127D01*
X132323168Y-106075678D01*
X132316642Y-106076641D01*
X132285118Y-106080456D01*
X132253980Y-106084224D01*
X132246873Y-106086909D01*
X132243580Y-106087718D01*
X132229109Y-106091677D01*
X132225833Y-106092666D01*
X132218346Y-106093973D01*
X132211388Y-106097028D01*
X132211386Y-106097028D01*
X132160542Y-106119346D01*
X132154437Y-106121838D01*
X132153580Y-106122162D01*
X132095377Y-106144155D01*
X132089124Y-106148453D01*
X132086093Y-106150037D01*
X132073016Y-106157317D01*
X132070057Y-106159067D01*
X132063097Y-106162122D01*
X132057070Y-106166747D01*
X132057066Y-106166749D01*
X132013000Y-106200562D01*
X132007681Y-106204427D01*
X131955649Y-106240188D01*
X131935212Y-106263126D01*
X131914700Y-106286148D01*
X131909719Y-106291424D01*
X131682650Y-106518493D01*
X131620338Y-106552519D01*
X131549523Y-106547454D01*
X131492687Y-106504907D01*
X131467876Y-106438387D01*
X131467555Y-106429113D01*
X131470357Y-105190922D01*
X131474946Y-103163295D01*
X131495102Y-103095221D01*
X131548863Y-103048849D01*
X131619160Y-103038904D01*
X131642694Y-103044698D01*
X131667141Y-103053283D01*
X131764632Y-103087519D01*
X131772278Y-103088242D01*
X131772279Y-103088242D01*
X131776649Y-103088655D01*
X131796167Y-103090500D01*
X132649567Y-103090500D01*
X133503832Y-103090499D01*
X133506782Y-103090220D01*
X133506787Y-103090220D01*
X133517406Y-103089216D01*
X133535368Y-103087519D01*
X133542609Y-103084976D01*
X133542610Y-103084976D01*
X133654294Y-103045756D01*
X133654296Y-103045755D01*
X133663183Y-103042634D01*
X133772150Y-102962150D01*
X133852634Y-102853183D01*
X133855761Y-102844280D01*
X133894974Y-102732615D01*
X133897519Y-102725368D01*
X133898714Y-102712732D01*
X133900221Y-102696781D01*
X133900500Y-102693833D01*
X133900499Y-100986168D01*
X133897519Y-100954632D01*
X133890155Y-100933661D01*
X133855756Y-100835706D01*
X133855755Y-100835704D01*
X133852634Y-100826817D01*
X133772150Y-100717850D01*
X133663183Y-100637366D01*
X133654296Y-100634245D01*
X133654294Y-100634244D01*
X133542615Y-100595026D01*
X133535368Y-100592481D01*
X133527722Y-100591758D01*
X133527721Y-100591758D01*
X133521751Y-100591194D01*
X133503833Y-100589500D01*
X132650433Y-100589500D01*
X131796168Y-100589501D01*
X131793218Y-100589780D01*
X131793213Y-100589780D01*
X131782594Y-100590784D01*
X131764632Y-100592481D01*
X131757391Y-100595024D01*
X131757390Y-100595024D01*
X131648691Y-100633196D01*
X131577791Y-100636894D01*
X131516146Y-100601674D01*
X131483329Y-100538717D01*
X131480943Y-100514028D01*
X131482183Y-99965837D01*
X131502339Y-99897762D01*
X131556100Y-99851390D01*
X131626397Y-99841445D01*
X131649928Y-99847238D01*
X131764632Y-99887519D01*
X131772278Y-99888242D01*
X131772279Y-99888242D01*
X131778249Y-99888806D01*
X131796167Y-99890500D01*
X132649567Y-99890500D01*
X133503832Y-99890499D01*
X133506782Y-99890220D01*
X133506787Y-99890220D01*
X133517406Y-99889216D01*
X133535368Y-99887519D01*
X133542609Y-99884976D01*
X133542610Y-99884976D01*
X133654294Y-99845756D01*
X133654296Y-99845755D01*
X133663183Y-99842634D01*
X133772150Y-99762150D01*
X133852634Y-99653183D01*
X133855755Y-99644296D01*
X133855758Y-99644290D01*
X133865696Y-99615990D01*
X133907139Y-99558345D01*
X133973169Y-99532257D01*
X134042821Y-99546008D01*
G37*
%TD.AperFunction*%
%TA.AperFunction,Conductor*%
G36*
X149370608Y-103367900D02*
G01*
X149403200Y-103430973D01*
X149405500Y-103454936D01*
X149405500Y-109325055D01*
X149385498Y-109393176D01*
X149331842Y-109439669D01*
X149261568Y-109449773D01*
X149196988Y-109420279D01*
X149175663Y-109396425D01*
X149170112Y-109388349D01*
X149124151Y-109347399D01*
X149118876Y-109342419D01*
X148546782Y-108770325D01*
X148540928Y-108764059D01*
X148508365Y-108726731D01*
X148503369Y-108721004D01*
X148451727Y-108684710D01*
X148446442Y-108680784D01*
X148402724Y-108646505D01*
X148402720Y-108646503D01*
X148396743Y-108641816D01*
X148389820Y-108638690D01*
X148386872Y-108636905D01*
X148373912Y-108629513D01*
X148370866Y-108627880D01*
X148364653Y-108623513D01*
X148305833Y-108600580D01*
X148299754Y-108598024D01*
X148242216Y-108572045D01*
X148234745Y-108570660D01*
X148231477Y-108569636D01*
X148217036Y-108565523D01*
X148213763Y-108564683D01*
X148206687Y-108561924D01*
X148162017Y-108556044D01*
X148144094Y-108553684D01*
X148137577Y-108552652D01*
X148082975Y-108542532D01*
X148075508Y-108541148D01*
X148067928Y-108541585D01*
X148067927Y-108541585D01*
X148014056Y-108544691D01*
X148006804Y-108544900D01*
X147612707Y-108544900D01*
X147544586Y-108524898D01*
X147498093Y-108471242D01*
X147487989Y-108400968D01*
X147510385Y-108345373D01*
X147527530Y-108321514D01*
X147527531Y-108321511D01*
X147531961Y-108315347D01*
X147539837Y-108295756D01*
X147592366Y-108165087D01*
X147592367Y-108165085D01*
X147595201Y-108158034D01*
X147604008Y-108096151D01*
X147618509Y-107994262D01*
X147618509Y-107994259D01*
X147619090Y-107990178D01*
X147619245Y-107975400D01*
X147617440Y-107960480D01*
X147610632Y-107904227D01*
X147598876Y-107807080D01*
X147538945Y-107648477D01*
X147532131Y-107638562D01*
X147447214Y-107515008D01*
X147447213Y-107515007D01*
X147442912Y-107508749D01*
X147399422Y-107470000D01*
X147359263Y-107434220D01*
X147321707Y-107373970D01*
X147322688Y-107302980D01*
X147361252Y-107244333D01*
X147427248Y-107187967D01*
X147427251Y-107187964D01*
X147433023Y-107183034D01*
X147531961Y-107045347D01*
X147551716Y-106996205D01*
X147592366Y-106895087D01*
X147592367Y-106895085D01*
X147595201Y-106888034D01*
X147610995Y-106777056D01*
X147618509Y-106724262D01*
X147618509Y-106724259D01*
X147619090Y-106720178D01*
X147619245Y-106705400D01*
X147609584Y-106625564D01*
X147599789Y-106544623D01*
X147599789Y-106544621D01*
X147598876Y-106537080D01*
X147596191Y-106529974D01*
X147595287Y-106526294D01*
X147598463Y-106455369D01*
X147639480Y-106397419D01*
X147657142Y-106385719D01*
X147667249Y-106380186D01*
X147769324Y-106303685D01*
X147781885Y-106291124D01*
X147858386Y-106189049D01*
X147866924Y-106173454D01*
X147912078Y-106053006D01*
X147915705Y-106037751D01*
X147921231Y-105986886D01*
X147921600Y-105980072D01*
X147921600Y-105707515D01*
X147917125Y-105692276D01*
X147915735Y-105691071D01*
X147908052Y-105689400D01*
X146785600Y-105689400D01*
X146717479Y-105669398D01*
X146670986Y-105615742D01*
X146659600Y-105563400D01*
X146659600Y-105163285D01*
X147167600Y-105163285D01*
X147172075Y-105178524D01*
X147173465Y-105179729D01*
X147181148Y-105181400D01*
X147903484Y-105181400D01*
X147918723Y-105176925D01*
X147919928Y-105175535D01*
X147921599Y-105167852D01*
X147921599Y-104890731D01*
X147921229Y-104883910D01*
X147915705Y-104833048D01*
X147912079Y-104817796D01*
X147866924Y-104697346D01*
X147858386Y-104681751D01*
X147781885Y-104579676D01*
X147769324Y-104567115D01*
X147667249Y-104490614D01*
X147651654Y-104482076D01*
X147531206Y-104436922D01*
X147515951Y-104433295D01*
X147465086Y-104427769D01*
X147458272Y-104427400D01*
X147185715Y-104427400D01*
X147170476Y-104431875D01*
X147169271Y-104433265D01*
X147167600Y-104440948D01*
X147167600Y-105163285D01*
X146659600Y-105163285D01*
X146659600Y-104445516D01*
X146655125Y-104430277D01*
X146653735Y-104429072D01*
X146646052Y-104427401D01*
X146368931Y-104427401D01*
X146362110Y-104427771D01*
X146311248Y-104433295D01*
X146295996Y-104436921D01*
X146175546Y-104482076D01*
X146159951Y-104490614D01*
X146057876Y-104567115D01*
X146045315Y-104579676D01*
X145968814Y-104681751D01*
X145960276Y-104697346D01*
X145915122Y-104817794D01*
X145909668Y-104840731D01*
X145908002Y-104840335D01*
X145884423Y-104897094D01*
X145826063Y-104937525D01*
X145755109Y-104939986D01*
X145694089Y-104903695D01*
X145666015Y-104850446D01*
X145665869Y-104846552D01*
X145661277Y-104835864D01*
X145660236Y-104831246D01*
X145656686Y-104819561D01*
X145654982Y-104815144D01*
X145652852Y-104803708D01*
X145639915Y-104782720D01*
X145631412Y-104766350D01*
X145625192Y-104751873D01*
X145625190Y-104751869D01*
X145621679Y-104743698D01*
X145617665Y-104738812D01*
X145615480Y-104736627D01*
X145613428Y-104734364D01*
X145613588Y-104734219D01*
X145606468Y-104725212D01*
X145600216Y-104718317D01*
X145594111Y-104708413D01*
X145572323Y-104691845D01*
X145559504Y-104680651D01*
X144918448Y-104039595D01*
X144884422Y-103977283D01*
X144889487Y-103906468D01*
X144932034Y-103849632D01*
X144998554Y-103824821D01*
X145007543Y-103824500D01*
X146396634Y-103824500D01*
X146414552Y-103822806D01*
X146420522Y-103822242D01*
X146420523Y-103822242D01*
X146428169Y-103821519D01*
X146555984Y-103776634D01*
X146563554Y-103771042D01*
X146563557Y-103771041D01*
X146657379Y-103701742D01*
X146664950Y-103696150D01*
X146672549Y-103685862D01*
X146675491Y-103683630D01*
X146677206Y-103681915D01*
X146677441Y-103682150D01*
X146729111Y-103642951D01*
X146799893Y-103637432D01*
X146862422Y-103671057D01*
X146875251Y-103685862D01*
X146882850Y-103696150D01*
X146890421Y-103701742D01*
X146984243Y-103771041D01*
X146984246Y-103771042D01*
X146991816Y-103776634D01*
X147119631Y-103821519D01*
X147127277Y-103822242D01*
X147127278Y-103822242D01*
X147133248Y-103822806D01*
X147151166Y-103824500D01*
X148758834Y-103824500D01*
X148776752Y-103822806D01*
X148782722Y-103822242D01*
X148782723Y-103822242D01*
X148790369Y-103821519D01*
X148918184Y-103776634D01*
X148925754Y-103771042D01*
X148925757Y-103771041D01*
X149019579Y-103701742D01*
X149027150Y-103696150D01*
X149063294Y-103647215D01*
X149102041Y-103594757D01*
X149102042Y-103594754D01*
X149107634Y-103587184D01*
X149152519Y-103459369D01*
X149154059Y-103443078D01*
X149180383Y-103377142D01*
X149238176Y-103335905D01*
X149309089Y-103332460D01*
X149370608Y-103367900D01*
G37*
%TD.AperFunction*%
%TA.AperFunction,Conductor*%
G36*
X138400376Y-104895331D02*
G01*
X138451363Y-104926335D01*
X139605484Y-106080456D01*
X139607238Y-106082487D01*
X139609575Y-106087269D01*
X139618104Y-106095181D01*
X139618105Y-106095182D01*
X139645463Y-106120560D01*
X139648868Y-106123840D01*
X139662276Y-106137248D01*
X139666255Y-106139978D01*
X139668884Y-106142286D01*
X139691646Y-106163401D01*
X139702453Y-106167712D01*
X139706448Y-106170238D01*
X139717238Y-106175999D01*
X139721553Y-106177911D01*
X139731146Y-106184492D01*
X139736865Y-106185849D01*
X139788187Y-106229318D01*
X139801217Y-106256409D01*
X139802281Y-106263126D01*
X139806782Y-106271959D01*
X139806782Y-106271960D01*
X139818164Y-106294298D01*
X139863472Y-106383220D01*
X139958780Y-106478528D01*
X140078874Y-106539719D01*
X140088663Y-106541269D01*
X140088665Y-106541270D01*
X140125734Y-106547141D01*
X140178512Y-106555500D01*
X140183467Y-106555500D01*
X140185766Y-106555681D01*
X140214190Y-106561258D01*
X140322536Y-106595836D01*
X140322538Y-106595836D01*
X140329775Y-106598146D01*
X140337355Y-106598663D01*
X140337356Y-106598663D01*
X140491354Y-106609162D01*
X140491358Y-106609162D01*
X140498930Y-106609678D01*
X140506407Y-106608373D01*
X140506408Y-106608373D01*
X140658477Y-106581832D01*
X140665954Y-106580527D01*
X140672903Y-106577477D01*
X140672905Y-106577476D01*
X140699617Y-106565750D01*
X140740381Y-106555512D01*
X140740534Y-106555500D01*
X140745488Y-106555500D01*
X140750373Y-106554726D01*
X140750377Y-106554726D01*
X140835335Y-106541270D01*
X140835337Y-106541269D01*
X140845126Y-106539719D01*
X140965220Y-106478528D01*
X140966911Y-106481847D01*
X141016268Y-106464220D01*
X141085424Y-106480279D01*
X141134920Y-106531177D01*
X141149500Y-106590012D01*
X141149500Y-108107653D01*
X141129498Y-108175774D01*
X141112595Y-108196749D01*
X140889747Y-108419596D01*
X140827435Y-108453621D01*
X140800652Y-108456500D01*
X140419484Y-108456500D01*
X140293680Y-108471724D01*
X140135077Y-108531655D01*
X140120629Y-108541585D01*
X140074439Y-108573330D01*
X140060276Y-108581756D01*
X139983704Y-108620772D01*
X139913927Y-108633877D01*
X139848142Y-108607177D01*
X139807235Y-108549150D01*
X139800500Y-108508506D01*
X139800500Y-107898639D01*
X139820502Y-107830518D01*
X139833085Y-107814084D01*
X139900676Y-107739411D01*
X139900681Y-107739404D01*
X139906700Y-107732754D01*
X139969210Y-107603733D01*
X139992996Y-107462354D01*
X139993147Y-107450000D01*
X139982255Y-107373941D01*
X139974096Y-107316968D01*
X139974095Y-107316965D01*
X139972823Y-107308082D01*
X139913484Y-107177572D01*
X139882624Y-107141757D01*
X139825760Y-107075763D01*
X139825757Y-107075760D01*
X139819900Y-107068963D01*
X139699595Y-106990985D01*
X139562239Y-106949907D01*
X139553263Y-106949852D01*
X139553262Y-106949852D01*
X139493055Y-106949484D01*
X139418876Y-106949031D01*
X139281029Y-106988428D01*
X139159780Y-107064930D01*
X139153838Y-107071658D01*
X139153837Y-107071659D01*
X139128764Y-107100049D01*
X139064877Y-107172388D01*
X139051082Y-107201770D01*
X139033238Y-107239777D01*
X139003947Y-107302163D01*
X139002567Y-107311028D01*
X139001461Y-107314645D01*
X138962416Y-107373941D01*
X138897512Y-107402715D01*
X138827355Y-107391831D01*
X138791872Y-107366901D01*
X138200627Y-106775656D01*
X138166601Y-106713344D01*
X138163722Y-106686561D01*
X138163722Y-105095578D01*
X138183724Y-105027457D01*
X138196307Y-105011023D01*
X138268853Y-104930875D01*
X138329396Y-104893794D01*
X138400376Y-104895331D01*
G37*
%TD.AperFunction*%
%TA.AperFunction,Conductor*%
G36*
X142941258Y-102933501D02*
G01*
X142962232Y-102950403D01*
X143215676Y-103203848D01*
X143215678Y-103203849D01*
X143215682Y-103203853D01*
X143350396Y-103338568D01*
X143384421Y-103400880D01*
X143387300Y-103427663D01*
X143387300Y-103757426D01*
X143386735Y-103768983D01*
X143383554Y-103779968D01*
X143384558Y-103791559D01*
X143386830Y-103817794D01*
X143387300Y-103828666D01*
X143387300Y-103837748D01*
X143388362Y-103843449D01*
X143388362Y-103843451D01*
X143388524Y-103844321D01*
X143390184Y-103856520D01*
X143393213Y-103891496D01*
X143398320Y-103901945D01*
X143399232Y-103905233D01*
X143400461Y-103908417D01*
X143402591Y-103919853D01*
X143414367Y-103938957D01*
X143421021Y-103949752D01*
X143426960Y-103960534D01*
X143442375Y-103992069D01*
X143450901Y-103999978D01*
X143452934Y-104002716D01*
X143455228Y-104005246D01*
X143461332Y-104015148D01*
X143470588Y-104022187D01*
X143470593Y-104022192D01*
X143489287Y-104036407D01*
X143498708Y-104044326D01*
X143515916Y-104060289D01*
X143515918Y-104060290D01*
X143524446Y-104068201D01*
X143530849Y-104070755D01*
X143546487Y-104083262D01*
X144620395Y-105157170D01*
X144654421Y-105219482D01*
X144657300Y-105246265D01*
X144657300Y-105967234D01*
X144657104Y-105969907D01*
X144655375Y-105974942D01*
X144655811Y-105986564D01*
X144655811Y-105986566D01*
X144657211Y-106023855D01*
X144657300Y-106028581D01*
X144657300Y-106047548D01*
X144658182Y-106052283D01*
X144658410Y-106055809D01*
X144659574Y-106086808D01*
X144664164Y-106097493D01*
X144665201Y-106102093D01*
X144668762Y-106113814D01*
X144670461Y-106118217D01*
X144672591Y-106129653D01*
X144678695Y-106139555D01*
X144685527Y-106150639D01*
X144694031Y-106167011D01*
X144700251Y-106181488D01*
X144700253Y-106181492D01*
X144703764Y-106189663D01*
X144707778Y-106194549D01*
X144709963Y-106196734D01*
X144712015Y-106198997D01*
X144711855Y-106199142D01*
X144718975Y-106208149D01*
X144725227Y-106215044D01*
X144731332Y-106224948D01*
X144753120Y-106241516D01*
X144765939Y-106252710D01*
X146197015Y-107683786D01*
X146231041Y-107746098D01*
X146230042Y-107799902D01*
X146230124Y-107799913D01*
X146229132Y-107807449D01*
X146211402Y-107942127D01*
X146207994Y-107968011D01*
X146226599Y-108136535D01*
X146234467Y-108158034D01*
X146275034Y-108268888D01*
X146284866Y-108295756D01*
X146289101Y-108302059D01*
X146289105Y-108302066D01*
X146320391Y-108348624D01*
X146341784Y-108416321D01*
X146323180Y-108484837D01*
X146270487Y-108532418D01*
X146215810Y-108544900D01*
X144082500Y-108544900D01*
X144014379Y-108524898D01*
X143967886Y-108471242D01*
X143956500Y-108418900D01*
X143956500Y-107524184D01*
X143941276Y-107398380D01*
X143881345Y-107239777D01*
X143844210Y-107185746D01*
X143789614Y-107106308D01*
X143789613Y-107106307D01*
X143785312Y-107100049D01*
X143777589Y-107093168D01*
X143664392Y-106992312D01*
X143664388Y-106992310D01*
X143658721Y-106987260D01*
X143652013Y-106983708D01*
X143652011Y-106983707D01*
X143620341Y-106966939D01*
X143569498Y-106917386D01*
X143553300Y-106855584D01*
X143553300Y-106742782D01*
X143549973Y-106720178D01*
X143544584Y-106683574D01*
X143544584Y-106683573D01*
X143543158Y-106673888D01*
X143516059Y-106618694D01*
X143496322Y-106578493D01*
X143496321Y-106578491D01*
X143491732Y-106569145D01*
X143409150Y-106486707D01*
X143392494Y-106478565D01*
X143367340Y-106466270D01*
X143304318Y-106435464D01*
X143273827Y-106431016D01*
X143240544Y-106426160D01*
X143240540Y-106426160D01*
X143236018Y-106425500D01*
X142869582Y-106425500D01*
X142865032Y-106426170D01*
X142865029Y-106426170D01*
X142810374Y-106434216D01*
X142810373Y-106434216D01*
X142800688Y-106435642D01*
X142732030Y-106469351D01*
X142662068Y-106481419D01*
X142596686Y-106453745D01*
X142556645Y-106395118D01*
X142550500Y-106356248D01*
X142550500Y-106294298D01*
X142563300Y-106238965D01*
X142578363Y-106208149D01*
X142593336Y-106177518D01*
X142598472Y-106142313D01*
X142602640Y-106113744D01*
X142602640Y-106113740D01*
X142603300Y-106109218D01*
X142603300Y-106029018D01*
X142623302Y-105960897D01*
X142630139Y-105951281D01*
X142638048Y-105941195D01*
X142643119Y-105935129D01*
X142677189Y-105896890D01*
X142682240Y-105891221D01*
X142685795Y-105884507D01*
X142687398Y-105881481D01*
X142699592Y-105862704D01*
X142706383Y-105854043D01*
X142710123Y-105845760D01*
X142730578Y-105800460D01*
X142734059Y-105793354D01*
X142758022Y-105748094D01*
X142758023Y-105748092D01*
X142761576Y-105741381D01*
X142764258Y-105730704D01*
X142771626Y-105709546D01*
X142773027Y-105706443D01*
X142776155Y-105699516D01*
X142777721Y-105691071D01*
X142786869Y-105641710D01*
X142788555Y-105633978D01*
X142801030Y-105584313D01*
X142801031Y-105584307D01*
X142802881Y-105576941D01*
X142802939Y-105565928D01*
X142805046Y-105543634D01*
X142805668Y-105540279D01*
X142805668Y-105540275D01*
X142807052Y-105532808D01*
X142806301Y-105519771D01*
X142803668Y-105474112D01*
X142803461Y-105466200D01*
X142803729Y-105414989D01*
X142803769Y-105407395D01*
X142801997Y-105400012D01*
X142801996Y-105400007D01*
X142801198Y-105396682D01*
X142797927Y-105374533D01*
X142797730Y-105371126D01*
X142797293Y-105363541D01*
X142795059Y-105356281D01*
X142795058Y-105356273D01*
X142780003Y-105307338D01*
X142777913Y-105299702D01*
X142769622Y-105265164D01*
X142764188Y-105242532D01*
X142759139Y-105232750D01*
X142750676Y-105212012D01*
X142749672Y-105208747D01*
X142749672Y-105208746D01*
X142747439Y-105201489D01*
X142727308Y-105167852D01*
X142717245Y-105151038D01*
X142713395Y-105144122D01*
X142689910Y-105098622D01*
X142686425Y-105091869D01*
X142679193Y-105083579D01*
X142666024Y-105065454D01*
X142664271Y-105062525D01*
X142660369Y-105056005D01*
X142655024Y-105050604D01*
X142655022Y-105050601D01*
X142639740Y-105035158D01*
X142606041Y-104972669D01*
X142603300Y-104946530D01*
X142603300Y-104867782D01*
X142602225Y-104860476D01*
X142594584Y-104808574D01*
X142594584Y-104808573D01*
X142593158Y-104798888D01*
X142563662Y-104738812D01*
X142546322Y-104703493D01*
X142546321Y-104703491D01*
X142541732Y-104694145D01*
X142459150Y-104611707D01*
X142354318Y-104560464D01*
X142315898Y-104554859D01*
X142290544Y-104551160D01*
X142290540Y-104551160D01*
X142286018Y-104550500D01*
X141919582Y-104550500D01*
X141915029Y-104551170D01*
X141915019Y-104551171D01*
X141904753Y-104552682D01*
X141834446Y-104542813D01*
X141780636Y-104496499D01*
X141767415Y-104469462D01*
X141741994Y-104396464D01*
X141726485Y-104351927D01*
X141722372Y-104345344D01*
X141635049Y-104205599D01*
X141631316Y-104199625D01*
X141545449Y-104113157D01*
X141511642Y-104050727D01*
X141516954Y-103979929D01*
X141559698Y-103923242D01*
X141599541Y-103905558D01*
X141599480Y-103905410D01*
X141605403Y-103902956D01*
X141610275Y-103900794D01*
X141623117Y-103898240D01*
X141637999Y-103888296D01*
X141705752Y-103867082D01*
X141778001Y-103888296D01*
X141792883Y-103898240D01*
X141805050Y-103900660D01*
X141805052Y-103900661D01*
X141828928Y-103905410D01*
X141869599Y-103913500D01*
X141957985Y-103913500D01*
X142046400Y-103913499D01*
X142052467Y-103912292D01*
X142052470Y-103912292D01*
X142110946Y-103900661D01*
X142110947Y-103900661D01*
X142123117Y-103898240D01*
X142138000Y-103888296D01*
X142199796Y-103847005D01*
X142210112Y-103840112D01*
X142222052Y-103822242D01*
X142261347Y-103763434D01*
X142261348Y-103763432D01*
X142268240Y-103753117D01*
X142283500Y-103676401D01*
X142283499Y-103039499D01*
X142303501Y-102971379D01*
X142357157Y-102924886D01*
X142409499Y-102913500D01*
X142737340Y-102913499D01*
X142873137Y-102913499D01*
X142941258Y-102933501D01*
G37*
%TD.AperFunction*%
%TA.AperFunction,Conductor*%
G36*
X146389109Y-93840002D02*
G01*
X146399594Y-93847526D01*
X146402852Y-93850126D01*
X146411695Y-93861224D01*
X146424477Y-93867389D01*
X146428705Y-93870764D01*
X146434547Y-93874442D01*
X146439410Y-93876793D01*
X146450492Y-93885656D01*
X146464320Y-93888836D01*
X146468851Y-93891026D01*
X146476397Y-93893676D01*
X146481307Y-93894800D01*
X146494087Y-93900965D01*
X146517155Y-93900985D01*
X146517153Y-93903010D01*
X146517219Y-93903026D01*
X146517219Y-93901000D01*
X146534108Y-93901000D01*
X146585563Y-93901045D01*
X146585559Y-93905850D01*
X146585657Y-93905856D01*
X146585657Y-93901000D01*
X147434108Y-93901000D01*
X147471374Y-93901033D01*
X147471376Y-93901033D01*
X147485563Y-93901045D01*
X147498354Y-93894903D01*
X147503267Y-93893787D01*
X147510817Y-93891150D01*
X147515351Y-93888968D01*
X147529185Y-93885812D01*
X147540280Y-93876971D01*
X147545154Y-93874625D01*
X147551006Y-93870954D01*
X147555238Y-93867588D01*
X147568024Y-93861448D01*
X147576884Y-93850370D01*
X147580627Y-93847392D01*
X147646390Y-93820639D01*
X147659064Y-93820000D01*
X149279500Y-93820000D01*
X149347621Y-93840002D01*
X149394114Y-93893658D01*
X149405500Y-93946000D01*
X149405500Y-102793064D01*
X149385498Y-102861185D01*
X149331842Y-102907678D01*
X149261568Y-102917782D01*
X149196988Y-102888288D01*
X149158604Y-102828562D01*
X149154059Y-102804922D01*
X149153242Y-102796278D01*
X149153242Y-102796277D01*
X149152519Y-102788631D01*
X149107634Y-102660816D01*
X149102042Y-102653246D01*
X149102041Y-102653243D01*
X149032742Y-102559421D01*
X149027150Y-102551850D01*
X148964786Y-102505787D01*
X148925757Y-102476959D01*
X148925754Y-102476958D01*
X148918184Y-102471366D01*
X148790369Y-102426481D01*
X148782723Y-102425758D01*
X148782722Y-102425758D01*
X148776752Y-102425194D01*
X148758834Y-102423500D01*
X147731661Y-102423500D01*
X147663540Y-102403498D01*
X147642566Y-102386595D01*
X147391719Y-102135748D01*
X147389963Y-102133714D01*
X147387625Y-102128931D01*
X147351723Y-102095627D01*
X147348318Y-102092347D01*
X147334923Y-102078952D01*
X147330953Y-102076228D01*
X147328305Y-102073903D01*
X147314081Y-102060708D01*
X147314078Y-102060706D01*
X147305554Y-102052799D01*
X147294750Y-102048489D01*
X147290761Y-102045967D01*
X147279973Y-102040206D01*
X147275648Y-102038289D01*
X147266054Y-102031708D01*
X147254735Y-102029022D01*
X147254733Y-102029021D01*
X147242073Y-102026017D01*
X147224476Y-102020452D01*
X147209838Y-102014612D01*
X147209835Y-102014611D01*
X147201578Y-102011317D01*
X147195285Y-102010700D01*
X147192206Y-102010700D01*
X147189133Y-102010550D01*
X147189144Y-102010334D01*
X147177769Y-102009002D01*
X147168455Y-102008547D01*
X147157134Y-102005860D01*
X147154555Y-102006211D01*
X147093037Y-101984831D01*
X147049221Y-101928968D01*
X147043150Y-101862864D01*
X147042286Y-101862779D01*
X147042729Y-101858283D01*
X147042676Y-101857707D01*
X147042893Y-101856616D01*
X147044100Y-101850548D01*
X147044100Y-100661052D01*
X147032467Y-100602569D01*
X146988152Y-100536248D01*
X146921831Y-100491933D01*
X146909662Y-100489512D01*
X146909661Y-100489512D01*
X146869416Y-100481507D01*
X146863348Y-100480300D01*
X146144061Y-100480300D01*
X146075940Y-100460298D01*
X146054966Y-100443395D01*
X145816919Y-100205348D01*
X145815163Y-100203314D01*
X145812825Y-100198531D01*
X145776923Y-100165227D01*
X145773518Y-100161947D01*
X145760123Y-100148552D01*
X145756153Y-100145828D01*
X145753505Y-100143503D01*
X145739281Y-100130308D01*
X145739278Y-100130306D01*
X145730754Y-100122399D01*
X145719953Y-100118090D01*
X145710117Y-100111872D01*
X145711314Y-100109979D01*
X145667554Y-100075653D01*
X145644100Y-100002439D01*
X145644100Y-98911052D01*
X145632467Y-98852569D01*
X145588152Y-98786248D01*
X145521831Y-98741933D01*
X145509662Y-98739512D01*
X145509661Y-98739512D01*
X145469416Y-98731507D01*
X145463348Y-98730300D01*
X144423852Y-98730300D01*
X144417271Y-98731609D01*
X144416997Y-98731584D01*
X144411621Y-98732114D01*
X144411521Y-98731094D01*
X144346557Y-98725278D01*
X144290491Y-98681722D01*
X144266874Y-98614769D01*
X144283204Y-98545675D01*
X144299278Y-98523474D01*
X144369578Y-98445807D01*
X144375600Y-98439154D01*
X144379514Y-98431076D01*
X144384532Y-98423636D01*
X144386824Y-98425182D01*
X144424953Y-98383138D01*
X144493509Y-98364682D01*
X144562932Y-98387438D01*
X144563486Y-98387826D01*
X144571284Y-98395624D01*
X144581276Y-98400283D01*
X144581277Y-98400284D01*
X144664634Y-98439154D01*
X144680113Y-98446372D01*
X144729699Y-98452900D01*
X144909534Y-98452900D01*
X145089500Y-98452899D01*
X145139087Y-98446372D01*
X145176138Y-98429095D01*
X145237923Y-98400284D01*
X145237924Y-98400283D01*
X145247916Y-98395624D01*
X145332824Y-98310716D01*
X145360715Y-98250905D01*
X145379498Y-98210624D01*
X145379498Y-98210623D01*
X145383572Y-98201887D01*
X145390100Y-98152301D01*
X145390099Y-97732500D01*
X145383572Y-97682913D01*
X145374043Y-97662477D01*
X145337484Y-97584077D01*
X145337483Y-97584076D01*
X145332824Y-97574084D01*
X145247916Y-97489176D01*
X145229311Y-97480500D01*
X145147824Y-97442502D01*
X145147823Y-97442502D01*
X145139087Y-97438428D01*
X145089501Y-97431900D01*
X144909666Y-97431900D01*
X144729700Y-97431901D01*
X144680113Y-97438428D01*
X144671379Y-97442501D01*
X144671378Y-97442501D01*
X144581277Y-97484516D01*
X144571284Y-97489176D01*
X144486376Y-97574084D01*
X144481716Y-97584077D01*
X144478848Y-97588173D01*
X144423390Y-97632500D01*
X144375636Y-97641900D01*
X144222770Y-97641900D01*
X144220095Y-97641704D01*
X144215058Y-97639974D01*
X144166130Y-97641811D01*
X144161403Y-97641900D01*
X144142452Y-97641900D01*
X144137719Y-97642782D01*
X144134192Y-97643010D01*
X144114820Y-97643737D01*
X144114818Y-97643738D01*
X144103192Y-97644174D01*
X144092503Y-97648766D01*
X144087903Y-97649803D01*
X144068731Y-97655629D01*
X144066950Y-97655961D01*
X144032079Y-97656588D01*
X144031139Y-97656307D01*
X144022168Y-97656252D01*
X144022167Y-97656252D01*
X143993165Y-97656075D01*
X143941730Y-97655761D01*
X143873733Y-97635343D01*
X143827569Y-97581404D01*
X143817894Y-97511070D01*
X143847781Y-97446671D01*
X143869193Y-97427478D01*
X143878316Y-97423224D01*
X143912684Y-97388856D01*
X143974996Y-97354830D01*
X143993538Y-97352221D01*
X144024208Y-97350211D01*
X144100050Y-97345242D01*
X144100055Y-97345241D01*
X144104165Y-97344972D01*
X144108204Y-97344169D01*
X144108209Y-97344168D01*
X144187342Y-97328428D01*
X144274582Y-97311076D01*
X144278492Y-97309749D01*
X144278495Y-97309748D01*
X144435208Y-97256554D01*
X144435210Y-97256553D01*
X144439117Y-97255227D01*
X144594954Y-97178378D01*
X144598380Y-97176089D01*
X144598385Y-97176086D01*
X144667512Y-97129898D01*
X144739427Y-97081847D01*
X144850093Y-96984798D01*
X144860886Y-96976328D01*
X144868088Y-96971285D01*
X144940355Y-96948500D01*
X145005486Y-96948500D01*
X145010036Y-96947830D01*
X145010039Y-96947830D01*
X145033442Y-96944385D01*
X145073884Y-96938431D01*
X145177880Y-96887372D01*
X145185234Y-96880005D01*
X145185237Y-96880003D01*
X145237319Y-96827830D01*
X145299602Y-96793751D01*
X145370422Y-96798754D01*
X145415510Y-96827675D01*
X145439320Y-96851443D01*
X145447621Y-96859730D01*
X145456977Y-96864303D01*
X145456978Y-96864304D01*
X145484224Y-96877622D01*
X145551706Y-96910608D01*
X145561385Y-96912020D01*
X145614987Y-96919840D01*
X145614993Y-96919840D01*
X145619514Y-96920500D01*
X145980486Y-96920500D01*
X145985036Y-96919830D01*
X145985039Y-96919830D01*
X146008442Y-96916385D01*
X146048884Y-96910431D01*
X146097869Y-96886381D01*
X146167831Y-96874314D01*
X146199960Y-96882647D01*
X146209269Y-96888867D01*
X146267752Y-96900500D01*
X147357248Y-96900500D01*
X147368700Y-96898222D01*
X147403561Y-96891288D01*
X147403562Y-96891288D01*
X147415731Y-96888867D01*
X147429108Y-96879929D01*
X147471739Y-96851443D01*
X147482052Y-96844552D01*
X147526367Y-96778231D01*
X147538000Y-96719748D01*
X147538000Y-95680252D01*
X147526367Y-95621769D01*
X147482052Y-95555448D01*
X147415731Y-95511133D01*
X147403562Y-95508712D01*
X147403561Y-95508712D01*
X147363316Y-95500707D01*
X147357248Y-95499500D01*
X146267752Y-95499500D01*
X146261684Y-95500707D01*
X146221439Y-95508712D01*
X146221438Y-95508712D01*
X146209269Y-95511133D01*
X146142948Y-95555448D01*
X146098633Y-95621769D01*
X146087000Y-95680252D01*
X146087000Y-95753500D01*
X146066998Y-95821621D01*
X146013342Y-95868114D01*
X145961000Y-95879500D01*
X145619514Y-95879500D01*
X145614964Y-95880170D01*
X145614961Y-95880170D01*
X145591568Y-95883614D01*
X145551116Y-95889569D01*
X145463206Y-95932730D01*
X145393244Y-95944798D01*
X145327863Y-95917124D01*
X145287822Y-95858496D01*
X145285834Y-95787527D01*
X145294475Y-95764299D01*
X145310608Y-95731294D01*
X145318054Y-95680252D01*
X145319840Y-95668013D01*
X145319840Y-95668007D01*
X145320500Y-95663486D01*
X145320500Y-94825757D01*
X145332305Y-94772507D01*
X145339898Y-94756225D01*
X145339899Y-94756222D01*
X145343972Y-94747487D01*
X145350500Y-94697901D01*
X145350499Y-94278100D01*
X145343972Y-94228513D01*
X145344019Y-94228507D01*
X145340500Y-94203855D01*
X145340500Y-93946000D01*
X145360502Y-93877879D01*
X145414158Y-93831386D01*
X145466500Y-93820000D01*
X146320988Y-93820000D01*
X146389109Y-93840002D01*
G37*
%TD.AperFunction*%
%TA.AperFunction,Conductor*%
G36*
X141778001Y-99013296D02*
G01*
X141792883Y-99023240D01*
X141805050Y-99025660D01*
X141805052Y-99025661D01*
X141835002Y-99031618D01*
X141869599Y-99038500D01*
X141881501Y-99038500D01*
X141949622Y-99058502D01*
X141996115Y-99112158D01*
X142007501Y-99164499D01*
X142007501Y-99176400D01*
X142008708Y-99182467D01*
X142008708Y-99182470D01*
X142018864Y-99233529D01*
X142022760Y-99253117D01*
X142029654Y-99263434D01*
X142032704Y-99267999D01*
X142053918Y-99335752D01*
X142032704Y-99408001D01*
X142022760Y-99422883D01*
X142007500Y-99499599D01*
X142007501Y-99676400D01*
X142008708Y-99682467D01*
X142008708Y-99682470D01*
X142020339Y-99740946D01*
X142022760Y-99753117D01*
X142032276Y-99767358D01*
X142032704Y-99767999D01*
X142053918Y-99835752D01*
X142032704Y-99908001D01*
X142022760Y-99922883D01*
X142007500Y-99999599D01*
X142007501Y-100176400D01*
X142008708Y-100182467D01*
X142008708Y-100182470D01*
X142017034Y-100224329D01*
X142022760Y-100253117D01*
X142029654Y-100263434D01*
X142032704Y-100267999D01*
X142053918Y-100335752D01*
X142032704Y-100408001D01*
X142022760Y-100422883D01*
X142007500Y-100499599D01*
X142007501Y-100676400D01*
X142008708Y-100682467D01*
X142008708Y-100682470D01*
X142015745Y-100717850D01*
X142022760Y-100753117D01*
X142029654Y-100763434D01*
X142032704Y-100767999D01*
X142053918Y-100835752D01*
X142032704Y-100908001D01*
X142022760Y-100922883D01*
X142020340Y-100935050D01*
X142020339Y-100935052D01*
X142014924Y-100962275D01*
X142007500Y-100999599D01*
X142007501Y-101176400D01*
X142008708Y-101182467D01*
X142008708Y-101182470D01*
X142014652Y-101212354D01*
X142022760Y-101253117D01*
X142029654Y-101263434D01*
X142032704Y-101267999D01*
X142053918Y-101335752D01*
X142032704Y-101408001D01*
X142022760Y-101422883D01*
X142007500Y-101499599D01*
X142007501Y-101676400D01*
X142008708Y-101682467D01*
X142008708Y-101682470D01*
X142011938Y-101698707D01*
X142022760Y-101753117D01*
X142032704Y-101767999D01*
X142053918Y-101835752D01*
X142032704Y-101908001D01*
X142022760Y-101922883D01*
X142007500Y-101999599D01*
X142007501Y-102176400D01*
X142022760Y-102253117D01*
X142029654Y-102263434D01*
X142032704Y-102267999D01*
X142053918Y-102335752D01*
X142032704Y-102408001D01*
X142022760Y-102422883D01*
X142007500Y-102499599D01*
X142007500Y-102511501D01*
X141987498Y-102579622D01*
X141933842Y-102626115D01*
X141881500Y-102637501D01*
X141869600Y-102637501D01*
X141863533Y-102638708D01*
X141863530Y-102638708D01*
X141805054Y-102650339D01*
X141805053Y-102650339D01*
X141792883Y-102652760D01*
X141778001Y-102662704D01*
X141710248Y-102683918D01*
X141637999Y-102662704D01*
X141635174Y-102660816D01*
X141623117Y-102652760D01*
X141610950Y-102650340D01*
X141610948Y-102650339D01*
X141580998Y-102644382D01*
X141546401Y-102637500D01*
X141458015Y-102637500D01*
X141369600Y-102637501D01*
X141363533Y-102638708D01*
X141363530Y-102638708D01*
X141305054Y-102650339D01*
X141305053Y-102650339D01*
X141292883Y-102652760D01*
X141278001Y-102662704D01*
X141210248Y-102683918D01*
X141137999Y-102662704D01*
X141135174Y-102660816D01*
X141123117Y-102652760D01*
X141110950Y-102650340D01*
X141110948Y-102650339D01*
X141080998Y-102644382D01*
X141046401Y-102637500D01*
X140958015Y-102637500D01*
X140869600Y-102637501D01*
X140863533Y-102638708D01*
X140863530Y-102638708D01*
X140805054Y-102650339D01*
X140805053Y-102650339D01*
X140792883Y-102652760D01*
X140778001Y-102662704D01*
X140710248Y-102683918D01*
X140637999Y-102662704D01*
X140635174Y-102660816D01*
X140623117Y-102652760D01*
X140610950Y-102650340D01*
X140610948Y-102650339D01*
X140580998Y-102644382D01*
X140546401Y-102637500D01*
X140458015Y-102637500D01*
X140369600Y-102637501D01*
X140363533Y-102638708D01*
X140363530Y-102638708D01*
X140305054Y-102650339D01*
X140305053Y-102650339D01*
X140292883Y-102652760D01*
X140278001Y-102662704D01*
X140210248Y-102683918D01*
X140137999Y-102662704D01*
X140135174Y-102660816D01*
X140123117Y-102652760D01*
X140110950Y-102650340D01*
X140110948Y-102650339D01*
X140080998Y-102644382D01*
X140046401Y-102637500D01*
X139958015Y-102637500D01*
X139869600Y-102637501D01*
X139863533Y-102638708D01*
X139863530Y-102638708D01*
X139805054Y-102650339D01*
X139805053Y-102650339D01*
X139792883Y-102652760D01*
X139778001Y-102662704D01*
X139710248Y-102683918D01*
X139637999Y-102662704D01*
X139635174Y-102660816D01*
X139623117Y-102652760D01*
X139610950Y-102650340D01*
X139610948Y-102650339D01*
X139580998Y-102644382D01*
X139546401Y-102637500D01*
X139458015Y-102637500D01*
X139369600Y-102637501D01*
X139363533Y-102638708D01*
X139363530Y-102638708D01*
X139305054Y-102650339D01*
X139305053Y-102650339D01*
X139292883Y-102652760D01*
X139278001Y-102662704D01*
X139210248Y-102683918D01*
X139137999Y-102662704D01*
X139135174Y-102660816D01*
X139123117Y-102652760D01*
X139110950Y-102650340D01*
X139110948Y-102650339D01*
X139080998Y-102644382D01*
X139046401Y-102637500D01*
X138958015Y-102637500D01*
X138869600Y-102637501D01*
X138863533Y-102638708D01*
X138863530Y-102638708D01*
X138805054Y-102650339D01*
X138805053Y-102650339D01*
X138792883Y-102652760D01*
X138778001Y-102662704D01*
X138710248Y-102683918D01*
X138637999Y-102662704D01*
X138635174Y-102660816D01*
X138623117Y-102652760D01*
X138610950Y-102650340D01*
X138610948Y-102650339D01*
X138580998Y-102644382D01*
X138546401Y-102637500D01*
X138534499Y-102637500D01*
X138466378Y-102617498D01*
X138419885Y-102563842D01*
X138408499Y-102511500D01*
X138408499Y-102499600D01*
X138406034Y-102487204D01*
X138395661Y-102435054D01*
X138395660Y-102435052D01*
X138393240Y-102422883D01*
X138383296Y-102408001D01*
X138362082Y-102340248D01*
X138383296Y-102267999D01*
X138386347Y-102263433D01*
X138393240Y-102253117D01*
X138396240Y-102238038D01*
X138401618Y-102210998D01*
X138408500Y-102176401D01*
X138408499Y-101999600D01*
X138406729Y-101990698D01*
X138395661Y-101935054D01*
X138395660Y-101935052D01*
X138393240Y-101922883D01*
X138383296Y-101908001D01*
X138362082Y-101840248D01*
X138383296Y-101767999D01*
X138386347Y-101763433D01*
X138393240Y-101753117D01*
X138408500Y-101676401D01*
X138408499Y-101499600D01*
X138403684Y-101475389D01*
X138395661Y-101435054D01*
X138395660Y-101435052D01*
X138393240Y-101422883D01*
X138383296Y-101408001D01*
X138362082Y-101340248D01*
X138383296Y-101267999D01*
X138386347Y-101263433D01*
X138393240Y-101253117D01*
X138408500Y-101176401D01*
X138408499Y-100999600D01*
X138406418Y-100989134D01*
X138395661Y-100935054D01*
X138395660Y-100935052D01*
X138393240Y-100922883D01*
X138383296Y-100908001D01*
X138362082Y-100840248D01*
X138383296Y-100767999D01*
X138386347Y-100763433D01*
X138393240Y-100753117D01*
X138398749Y-100725425D01*
X138403824Y-100699907D01*
X138408500Y-100676401D01*
X138408499Y-100499600D01*
X138406493Y-100489512D01*
X138395661Y-100435054D01*
X138395660Y-100435052D01*
X138393240Y-100422883D01*
X138383296Y-100408001D01*
X138362082Y-100340248D01*
X138383296Y-100267999D01*
X138386347Y-100263433D01*
X138393240Y-100253117D01*
X138398967Y-100224329D01*
X138404098Y-100198531D01*
X138408500Y-100176401D01*
X138408499Y-99999600D01*
X138393240Y-99922883D01*
X138383296Y-99908001D01*
X138362082Y-99840248D01*
X138383296Y-99767999D01*
X138386347Y-99763433D01*
X138393240Y-99753117D01*
X138408500Y-99676401D01*
X138408499Y-99499600D01*
X138401399Y-99463901D01*
X138395661Y-99435054D01*
X138395660Y-99435052D01*
X138393240Y-99422883D01*
X138383296Y-99408001D01*
X138362082Y-99340248D01*
X138383296Y-99267999D01*
X138386347Y-99263433D01*
X138393240Y-99253117D01*
X138397137Y-99233529D01*
X138402594Y-99206094D01*
X138408500Y-99176401D01*
X138408500Y-99164499D01*
X138428502Y-99096378D01*
X138482158Y-99049885D01*
X138534500Y-99038499D01*
X138546400Y-99038499D01*
X138552467Y-99037292D01*
X138552470Y-99037292D01*
X138610946Y-99025661D01*
X138610947Y-99025661D01*
X138623117Y-99023240D01*
X138637999Y-99013296D01*
X138705752Y-98992082D01*
X138778001Y-99013296D01*
X138792883Y-99023240D01*
X138805050Y-99025660D01*
X138805052Y-99025661D01*
X138835002Y-99031618D01*
X138869599Y-99038500D01*
X138957985Y-99038500D01*
X139046400Y-99038499D01*
X139052467Y-99037292D01*
X139052470Y-99037292D01*
X139110946Y-99025661D01*
X139110947Y-99025661D01*
X139123117Y-99023240D01*
X139137999Y-99013296D01*
X139205752Y-98992082D01*
X139278001Y-99013296D01*
X139292883Y-99023240D01*
X139305050Y-99025660D01*
X139305052Y-99025661D01*
X139335002Y-99031618D01*
X139369599Y-99038500D01*
X139457985Y-99038500D01*
X139546400Y-99038499D01*
X139552467Y-99037292D01*
X139552470Y-99037292D01*
X139610946Y-99025661D01*
X139610947Y-99025661D01*
X139623117Y-99023240D01*
X139637999Y-99013296D01*
X139705752Y-98992082D01*
X139778001Y-99013296D01*
X139792883Y-99023240D01*
X139805050Y-99025660D01*
X139805052Y-99025661D01*
X139835002Y-99031618D01*
X139869599Y-99038500D01*
X139957985Y-99038500D01*
X140046400Y-99038499D01*
X140052467Y-99037292D01*
X140052470Y-99037292D01*
X140110946Y-99025661D01*
X140110947Y-99025661D01*
X140123117Y-99023240D01*
X140137999Y-99013296D01*
X140205752Y-98992082D01*
X140278001Y-99013296D01*
X140292883Y-99023240D01*
X140305050Y-99025660D01*
X140305052Y-99025661D01*
X140335002Y-99031618D01*
X140369599Y-99038500D01*
X140457985Y-99038500D01*
X140546400Y-99038499D01*
X140552467Y-99037292D01*
X140552470Y-99037292D01*
X140610946Y-99025661D01*
X140610947Y-99025661D01*
X140623117Y-99023240D01*
X140637999Y-99013296D01*
X140705752Y-98992082D01*
X140778001Y-99013296D01*
X140792883Y-99023240D01*
X140805050Y-99025660D01*
X140805052Y-99025661D01*
X140835002Y-99031618D01*
X140869599Y-99038500D01*
X140957985Y-99038500D01*
X141046400Y-99038499D01*
X141052467Y-99037292D01*
X141052470Y-99037292D01*
X141110946Y-99025661D01*
X141110947Y-99025661D01*
X141123117Y-99023240D01*
X141137999Y-99013296D01*
X141205752Y-98992082D01*
X141278001Y-99013296D01*
X141292883Y-99023240D01*
X141305050Y-99025660D01*
X141305052Y-99025661D01*
X141335002Y-99031618D01*
X141369599Y-99038500D01*
X141457985Y-99038500D01*
X141546400Y-99038499D01*
X141552467Y-99037292D01*
X141552470Y-99037292D01*
X141610946Y-99025661D01*
X141610947Y-99025661D01*
X141623117Y-99023240D01*
X141637999Y-99013296D01*
X141705752Y-98992082D01*
X141778001Y-99013296D01*
G37*
%TD.AperFunction*%
%TA.AperFunction,Conductor*%
G36*
X145458860Y-100701302D02*
G01*
X145479834Y-100718205D01*
X145606195Y-100844566D01*
X145640221Y-100906878D01*
X145643100Y-100933661D01*
X145643100Y-101850548D01*
X145644306Y-101856613D01*
X145644307Y-101856619D01*
X145645003Y-101860116D01*
X145644836Y-101861985D01*
X145644914Y-101862779D01*
X145644763Y-101862794D01*
X145638677Y-101930830D01*
X145595124Y-101986898D01*
X145521425Y-102010700D01*
X144658747Y-102010700D01*
X144590626Y-101990698D01*
X144569652Y-101973795D01*
X143699452Y-101103595D01*
X143665426Y-101041283D01*
X143670491Y-100970468D01*
X143713038Y-100913632D01*
X143779558Y-100888821D01*
X143788547Y-100888500D01*
X143884034Y-100888500D01*
X143886707Y-100888696D01*
X143891742Y-100890425D01*
X143903364Y-100889989D01*
X143903366Y-100889989D01*
X143940655Y-100888589D01*
X143945381Y-100888500D01*
X143964348Y-100888500D01*
X143969083Y-100887618D01*
X143972609Y-100887390D01*
X143976349Y-100887249D01*
X144003608Y-100886226D01*
X144014293Y-100881636D01*
X144018893Y-100880599D01*
X144030614Y-100877038D01*
X144035017Y-100875339D01*
X144046453Y-100873209D01*
X144067441Y-100860272D01*
X144083811Y-100851769D01*
X144098288Y-100845549D01*
X144098292Y-100845547D01*
X144106463Y-100842036D01*
X144111349Y-100838022D01*
X144113534Y-100835837D01*
X144115797Y-100833785D01*
X144115942Y-100833945D01*
X144124949Y-100826825D01*
X144131844Y-100820573D01*
X144141748Y-100814468D01*
X144158316Y-100792680D01*
X144169510Y-100779861D01*
X144231166Y-100718205D01*
X144293478Y-100684179D01*
X144320261Y-100681300D01*
X145390739Y-100681300D01*
X145458860Y-100701302D01*
G37*
%TD.AperFunction*%
%TA.AperFunction,Conductor*%
G36*
X135806226Y-99227856D02*
G01*
X135814579Y-99237496D01*
X135815935Y-99240404D01*
X135892244Y-99316713D01*
X135926270Y-99379025D01*
X135921205Y-99449840D01*
X135878658Y-99506676D01*
X135872871Y-99510141D01*
X135872907Y-99510193D01*
X135863877Y-99516516D01*
X135853884Y-99521176D01*
X135768976Y-99606084D01*
X135764317Y-99616076D01*
X135764316Y-99616077D01*
X135733358Y-99682467D01*
X135718228Y-99714913D01*
X135711700Y-99764499D01*
X135711701Y-100184300D01*
X135718228Y-100233887D01*
X135722301Y-100242621D01*
X135722301Y-100242622D01*
X135732006Y-100263434D01*
X135768976Y-100342716D01*
X135853884Y-100427624D01*
X135863876Y-100432283D01*
X135863877Y-100432284D01*
X135953976Y-100474298D01*
X135962713Y-100478372D01*
X136012299Y-100484900D01*
X136040867Y-100484900D01*
X136266840Y-100484899D01*
X136336658Y-100506011D01*
X136381762Y-100536035D01*
X136427383Y-100590430D01*
X136436355Y-100660858D01*
X136405826Y-100724956D01*
X136379177Y-100747483D01*
X136342907Y-100770368D01*
X136272280Y-100814930D01*
X136266338Y-100821658D01*
X136266337Y-100821659D01*
X136245238Y-100845549D01*
X136177377Y-100922388D01*
X136116447Y-101052163D01*
X136115066Y-101061035D01*
X136096159Y-101182470D01*
X136094391Y-101193823D01*
X136095555Y-101202725D01*
X136095555Y-101202728D01*
X136102289Y-101254221D01*
X136112980Y-101335979D01*
X136170720Y-101467203D01*
X136180825Y-101479225D01*
X136209347Y-101544238D01*
X136198192Y-101614352D01*
X136150901Y-101667306D01*
X136084375Y-101686300D01*
X135945084Y-101686300D01*
X135896227Y-101692732D01*
X135887491Y-101696806D01*
X135887490Y-101696806D01*
X135876845Y-101701770D01*
X135788996Y-101742735D01*
X135712336Y-101819395D01*
X135650024Y-101853421D01*
X135623241Y-101856300D01*
X135582063Y-101856300D01*
X135513942Y-101836298D01*
X135492968Y-101819396D01*
X134990105Y-101316534D01*
X134956080Y-101254221D01*
X134953200Y-101227438D01*
X134953200Y-99775072D01*
X134953397Y-99772395D01*
X134955126Y-99767358D01*
X134954592Y-99753117D01*
X134953289Y-99718430D01*
X134953200Y-99713703D01*
X134953200Y-99694752D01*
X134952318Y-99690019D01*
X134952090Y-99686492D01*
X134951363Y-99667120D01*
X134951362Y-99667118D01*
X134950926Y-99655492D01*
X134946332Y-99644800D01*
X134945295Y-99640197D01*
X134941738Y-99628487D01*
X134940039Y-99624084D01*
X134937909Y-99612647D01*
X134931806Y-99602746D01*
X134931805Y-99602743D01*
X134924971Y-99591656D01*
X134916468Y-99575287D01*
X134907948Y-99555459D01*
X134899432Y-99484975D01*
X134930374Y-99421076D01*
X134990951Y-99384049D01*
X135031852Y-99379996D01*
X135035684Y-99380500D01*
X135384316Y-99380500D01*
X135433173Y-99374068D01*
X135485197Y-99349809D01*
X135530411Y-99328725D01*
X135530412Y-99328725D01*
X135540404Y-99324065D01*
X135624065Y-99240404D01*
X135624753Y-99241092D01*
X135672247Y-99203131D01*
X135742867Y-99195823D01*
X135806226Y-99227856D01*
G37*
%TD.AperFunction*%
%TA.AperFunction,Conductor*%
G36*
X144381621Y-93840002D02*
G01*
X144428114Y-93893658D01*
X144439500Y-93946000D01*
X144439500Y-94107353D01*
X144427695Y-94160603D01*
X144396028Y-94228513D01*
X144389500Y-94278099D01*
X144389501Y-94697900D01*
X144396028Y-94747487D01*
X144400101Y-94756221D01*
X144400101Y-94756222D01*
X144407695Y-94772507D01*
X144419500Y-94825757D01*
X144419500Y-94999126D01*
X144399498Y-95067247D01*
X144382673Y-95088144D01*
X144340270Y-95130621D01*
X144289392Y-95234706D01*
X144279500Y-95302514D01*
X144279500Y-95663486D01*
X144289569Y-95731884D01*
X144340628Y-95835880D01*
X144372919Y-95868114D01*
X144376015Y-95871205D01*
X144410095Y-95933488D01*
X144405092Y-96004308D01*
X144395493Y-96022397D01*
X144395270Y-96022621D01*
X144394048Y-96025121D01*
X144382542Y-96048659D01*
X144358515Y-96082343D01*
X144347627Y-96093250D01*
X144347624Y-96093254D01*
X144340270Y-96100621D01*
X144289392Y-96204706D01*
X144287980Y-96214385D01*
X144284714Y-96236776D01*
X144279500Y-96272514D01*
X144279500Y-96527207D01*
X144259498Y-96595328D01*
X144212898Y-96638328D01*
X144199855Y-96645300D01*
X144177031Y-96654754D01*
X144079935Y-96684206D01*
X144008941Y-96684839D01*
X143954266Y-96652726D01*
X143878316Y-96576776D01*
X143797617Y-96539145D01*
X143778224Y-96530102D01*
X143778223Y-96530102D01*
X143769487Y-96526028D01*
X143719901Y-96519500D01*
X143510077Y-96519500D01*
X143300100Y-96519501D01*
X143250513Y-96526028D01*
X143241779Y-96530101D01*
X143241778Y-96530101D01*
X143180225Y-96558804D01*
X143141684Y-96576776D01*
X143056776Y-96661684D01*
X143052117Y-96671676D01*
X143052116Y-96671677D01*
X143030461Y-96718117D01*
X142983544Y-96771402D01*
X142956766Y-96784180D01*
X142907883Y-96800773D01*
X142752046Y-96877622D01*
X142748620Y-96879911D01*
X142748615Y-96879914D01*
X142692500Y-96917408D01*
X142624747Y-96938622D01*
X142556280Y-96919838D01*
X142508838Y-96867020D01*
X142496500Y-96812642D01*
X142496499Y-96484225D01*
X142496499Y-96480100D01*
X142489972Y-96430513D01*
X142453267Y-96351798D01*
X142443884Y-96331677D01*
X142443883Y-96331676D01*
X142439224Y-96321684D01*
X142354316Y-96236776D01*
X142344304Y-96232107D01*
X142254224Y-96190102D01*
X142254223Y-96190102D01*
X142245487Y-96186028D01*
X142195901Y-96179500D01*
X141986077Y-96179500D01*
X141776100Y-96179501D01*
X141726513Y-96186028D01*
X141717779Y-96190101D01*
X141717778Y-96190101D01*
X141711094Y-96193218D01*
X141689674Y-96203206D01*
X141619484Y-96213867D01*
X141578259Y-96198586D01*
X141577775Y-96199633D01*
X141569633Y-96195871D01*
X141562095Y-96190985D01*
X141424739Y-96149907D01*
X141415763Y-96149852D01*
X141415762Y-96149852D01*
X141355555Y-96149484D01*
X141281376Y-96149031D01*
X141143529Y-96188428D01*
X141135938Y-96193218D01*
X141135937Y-96193218D01*
X141132459Y-96195412D01*
X141128535Y-96196529D01*
X141127743Y-96196883D01*
X141127692Y-96196769D01*
X141064173Y-96214845D01*
X141011975Y-96203043D01*
X141011598Y-96202867D01*
X140975487Y-96186028D01*
X140925901Y-96179500D01*
X140888188Y-96179500D01*
X140547862Y-96179501D01*
X140479742Y-96159499D01*
X140458767Y-96142596D01*
X140003405Y-95687234D01*
X139969379Y-95624922D01*
X139966500Y-95598139D01*
X139966500Y-95495684D01*
X139960068Y-95446827D01*
X139910065Y-95339596D01*
X139826404Y-95255935D01*
X139719173Y-95205932D01*
X139670316Y-95199500D01*
X139221684Y-95199500D01*
X139172827Y-95205932D01*
X139065596Y-95255935D01*
X138981935Y-95339596D01*
X138931932Y-95446827D01*
X138925500Y-95495684D01*
X138925500Y-95844316D01*
X138931932Y-95893173D01*
X138936006Y-95901909D01*
X138936006Y-95901910D01*
X138956005Y-95944798D01*
X138981935Y-96000404D01*
X139065596Y-96084065D01*
X139064908Y-96084753D01*
X139102869Y-96132247D01*
X139110177Y-96202867D01*
X139078144Y-96266226D01*
X139068504Y-96274579D01*
X139065596Y-96275935D01*
X138981935Y-96359596D01*
X138931932Y-96466827D01*
X138930674Y-96476386D01*
X138929812Y-96479342D01*
X138891548Y-96539145D01*
X138827026Y-96568767D01*
X138756732Y-96558804D01*
X138702984Y-96512419D01*
X138683923Y-96460530D01*
X138681230Y-96440071D01*
X138679972Y-96430513D01*
X138643267Y-96351798D01*
X138633884Y-96331677D01*
X138633883Y-96331676D01*
X138629224Y-96321684D01*
X138544316Y-96236776D01*
X138534304Y-96232107D01*
X138444224Y-96190102D01*
X138444223Y-96190102D01*
X138435487Y-96186028D01*
X138385901Y-96179500D01*
X138176077Y-96179500D01*
X137966100Y-96179501D01*
X137916513Y-96186028D01*
X137907779Y-96190101D01*
X137907778Y-96190101D01*
X137817677Y-96232116D01*
X137807684Y-96236776D01*
X137722776Y-96321684D01*
X137718117Y-96331676D01*
X137718116Y-96331677D01*
X137705097Y-96359596D01*
X137672028Y-96430513D01*
X137665500Y-96480099D01*
X137665501Y-96839900D01*
X137672028Y-96889487D01*
X137676101Y-96898221D01*
X137676101Y-96898222D01*
X137716473Y-96984800D01*
X137722776Y-96998316D01*
X137807684Y-97083224D01*
X137817676Y-97087883D01*
X137817677Y-97087884D01*
X137852377Y-97104065D01*
X137916513Y-97133972D01*
X137966099Y-97140500D01*
X137991267Y-97140500D01*
X138257739Y-97140499D01*
X138325858Y-97160501D01*
X138346833Y-97177404D01*
X138620595Y-97451166D01*
X138654621Y-97513478D01*
X138657500Y-97540261D01*
X138657500Y-97636500D01*
X138637498Y-97704621D01*
X138583842Y-97751114D01*
X138531501Y-97762500D01*
X138421480Y-97762501D01*
X138369600Y-97762501D01*
X138363533Y-97763708D01*
X138363530Y-97763708D01*
X138305054Y-97775339D01*
X138305053Y-97775339D01*
X138292883Y-97777760D01*
X138282567Y-97784653D01*
X138282565Y-97784654D01*
X138216204Y-97828995D01*
X138205888Y-97835888D01*
X138198995Y-97846204D01*
X138154653Y-97912566D01*
X138154652Y-97912568D01*
X138147760Y-97922883D01*
X138132500Y-97999599D01*
X138132501Y-98371282D01*
X138132501Y-98636500D01*
X138112499Y-98704621D01*
X138058843Y-98751114D01*
X138006501Y-98762500D01*
X137495016Y-98762500D01*
X137426895Y-98742498D01*
X137405921Y-98725595D01*
X137222405Y-98542079D01*
X137188379Y-98479767D01*
X137185500Y-98452984D01*
X137185500Y-98269713D01*
X137185979Y-98258732D01*
X137188303Y-98232170D01*
X137188303Y-98232168D01*
X137189263Y-98221193D01*
X137179508Y-98184783D01*
X137177133Y-98174072D01*
X137170588Y-98136955D01*
X137165079Y-98127412D01*
X137163888Y-98124140D01*
X137162408Y-98120967D01*
X137159554Y-98110316D01*
X137137945Y-98079456D01*
X137132039Y-98070185D01*
X137118707Y-98047094D01*
X137113194Y-98037545D01*
X137084317Y-98013315D01*
X137076215Y-98005889D01*
X136715973Y-97645647D01*
X136681947Y-97583335D01*
X136680146Y-97572997D01*
X136675327Y-97536387D01*
X136675326Y-97536384D01*
X136674068Y-97526827D01*
X136647522Y-97469898D01*
X136628725Y-97429589D01*
X136628725Y-97429588D01*
X136624065Y-97419596D01*
X136540404Y-97335935D01*
X136527522Y-97329928D01*
X136441910Y-97290006D01*
X136441909Y-97290006D01*
X136433173Y-97285932D01*
X136384316Y-97279500D01*
X136035684Y-97279500D01*
X135986827Y-97285932D01*
X135978091Y-97290006D01*
X135978090Y-97290006D01*
X135892478Y-97329928D01*
X135879596Y-97335935D01*
X135795935Y-97419596D01*
X135795247Y-97418908D01*
X135747753Y-97456869D01*
X135677133Y-97464177D01*
X135613774Y-97432144D01*
X135605421Y-97422504D01*
X135604065Y-97419596D01*
X135520404Y-97335935D01*
X135507522Y-97329928D01*
X135421910Y-97290006D01*
X135421909Y-97290006D01*
X135413173Y-97285932D01*
X135364316Y-97279500D01*
X135015684Y-97279500D01*
X134966827Y-97285932D01*
X134958093Y-97290005D01*
X134958089Y-97290006D01*
X134872874Y-97329743D01*
X134802682Y-97340404D01*
X134773486Y-97331886D01*
X134772095Y-97330985D01*
X134634739Y-97289907D01*
X134625763Y-97289852D01*
X134625762Y-97289852D01*
X134565555Y-97289484D01*
X134491376Y-97289031D01*
X134353529Y-97328428D01*
X134232280Y-97404930D01*
X134226338Y-97411658D01*
X134226337Y-97411659D01*
X134207986Y-97432438D01*
X134137377Y-97512388D01*
X134082109Y-97630105D01*
X134081618Y-97631150D01*
X134034561Y-97684312D01*
X133966233Y-97703594D01*
X133898327Y-97682874D01*
X133856210Y-97636563D01*
X133855754Y-97635702D01*
X133852634Y-97626817D01*
X133803972Y-97560933D01*
X133777745Y-97525425D01*
X133772150Y-97517850D01*
X133663183Y-97437366D01*
X133654296Y-97434245D01*
X133654294Y-97434244D01*
X133542615Y-97395026D01*
X133535368Y-97392481D01*
X133527722Y-97391758D01*
X133527721Y-97391758D01*
X133521751Y-97391194D01*
X133503833Y-97389500D01*
X132650433Y-97389500D01*
X131796168Y-97389501D01*
X131793218Y-97389780D01*
X131793213Y-97389780D01*
X131782594Y-97390784D01*
X131764632Y-97392481D01*
X131757391Y-97395024D01*
X131757390Y-97395024D01*
X131655938Y-97430651D01*
X131585038Y-97434349D01*
X131523393Y-97399129D01*
X131490576Y-97336172D01*
X131488191Y-97311490D01*
X131495808Y-93945713D01*
X131515965Y-93877640D01*
X131569725Y-93831268D01*
X131621808Y-93820000D01*
X144313500Y-93820000D01*
X144381621Y-93840002D01*
G37*
%TD.AperFunction*%
%TD*%
M02*
