M48
; DRILL file {KiCad (6.0.9-0)} date 2023 January 16, Monday 20:49:42
; FORMAT={-:-/ absolute / inch / decimal}
; #@! TF.CreationDate,2023-01-16T20:49:42+01:00
; #@! TF.GenerationSoftware,Kicad,Pcbnew,(6.0.9-0)
; #@! TF.FileFunction,Plated,1,2,PTH
FMAT,2
INCH
; #@! TA.AperFunction,Plated,PTH,ViaDrill
T1C0.0118
; #@! TA.AperFunction,Plated,PTH,ComponentDrill
T2C0.0118
; #@! TA.AperFunction,Plated,PTH,ViaDrill
T3C0.0236
; #@! TA.AperFunction,Plated,PTH,ComponentDrill
T4C0.0256
; #@! TA.AperFunction,Plated,PTH,ComponentDrill
T5C0.0433
; #@! TA.AperFunction,Plated,PTH,ComponentDrill
T6C0.0827
%
G90
G05
T1
X5.1902Y-4.0799
X5.1929Y-4.1685
X5.1969Y-3.7165
X5.1969Y-3.748
X5.1969Y-3.7874
X5.2283Y-3.7165
X5.2283Y-3.748
X5.2283Y-3.7874
X5.2677Y-3.7165
X5.2677Y-3.748
X5.2677Y-3.7874
X5.2976Y-3.85
X5.3071Y-3.7165
X5.3071Y-3.748
X5.3071Y-3.7874
X5.3208Y-4.0433
X5.3268Y-3.9744
X5.3386Y-3.7165
X5.3386Y-3.748
X5.3386Y-3.7874
X5.3525Y-4.1871
X5.3701Y-3.7165
X5.3701Y-3.748
X5.3701Y-3.7874
X5.378Y-3.9843
X5.3784Y-3.9405
X5.3898Y-4.0906
X5.3946Y-4.1596
X5.3996Y-4.2008
X5.4016Y-3.7165
X5.4016Y-3.748
X5.4016Y-3.7874
X5.4055Y-4.6811
X5.4277Y-4.1194
X5.4331Y-3.7165
X5.4331Y-3.748
X5.4449Y-4.5866
X5.4514Y-4.6466
X5.4625Y-3.7465
X5.4646Y-3.7165
X5.4705Y-3.9291
X5.4764Y-4.6811
X5.4783Y-4.0098
X5.4862Y-4.1161
X5.4916Y-4.2303
X5.4961Y-3.7165
X5.5098Y-3.9291
X5.5136Y-4.5844
X5.5276Y-3.7165
X5.5276Y-3.748
X5.5295Y-4.2579
X5.5591Y-3.7165
X5.5591Y-3.748
X5.565Y-3.8051
X5.565Y-3.9744
X5.586Y-4.512
X5.5906Y-3.7165
X5.5906Y-3.748
X5.6154Y-4.1075
X5.622Y-3.7165
X5.622Y-3.748
X5.626Y-4.4449
X5.6358Y-4.1622
X5.6535Y-3.7165
X5.6535Y-3.748
X5.6551Y-4.1807
X5.6676Y-3.8644
X5.6799Y-4.1717
X5.6819Y-4.1996
X5.6831Y-3.9795
X5.7094Y-4.2272
X5.7616Y-3.8784
X5.7717Y-3.7244
X5.811Y-3.8898
X5.8228Y-4.0039
X5.8386Y-3.9173
X5.8421Y-3.7882
X5.8622Y-3.9488
X5.8622Y-3.9921
X5.8638Y-4.1276
X5.8661Y-4.2772
X5.8673Y-3.7004
T2
X5.787Y-3.6792
T3
X5.2598Y-4.126
X5.2615Y-4.2897
X5.4094Y-4.2835
X5.5512Y-4.122
X5.6405Y-4.1306
T4
X5.784Y-4.151
X5.784Y-4.201
X5.784Y-4.251
X5.784Y-4.301
X5.784Y-4.351
T5
X5.2224Y-3.8835
X5.2224Y-4.0094
X5.25Y-4.4866
X5.36Y-4.4866
X5.47Y-4.4866
X5.6Y-4.68
X5.7Y-4.68
X5.81Y-4.68
T6
X5.28Y-4.6466
X5.78Y-4.51
T0
M30
